<ttFont>
    <TTGlyph name=".notdef" xMin="84" yMin="0" xMax="643" yMax="531">
      <contour>
        <pt x="629" y="506" on="1"/>
        <pt x="377" y="266" on="1"/>
        <pt x="629" y="25" on="1"/>
      </contour>
      <contour>
        <pt x="112" y="13" on="1"/>
        <pt x="619" y="13" on="1"/>
        <pt x="366" y="256" on="1"/>
      </contour>
      <contour>
        <pt x="99" y="22" on="1"/>
        <pt x="355" y="266" on="1"/>
        <pt x="99" y="507" on="1"/>
      </contour>
      <contour>
        <pt x="620" y="518" on="1"/>
        <pt x="109" y="518" on="1"/>
        <pt x="366" y="276" on="1"/>
      </contour>
      <contour>
        <pt x="85" y="0" on="1"/>
        <pt x="85" y="531" on="1"/>
        <pt x="643" y="531" on="1"/>
        <pt x="643" y="0" on="1"/>
      </contour>
    </TTGlyph>
    <TTGlyph name="A" xMin="38" yMin="0" xMax="666" yMax="732">
      <contour>
        <pt x="38" y="0" on="1"/>
        <pt x="293" y="732" on="1"/>
        <pt x="421" y="732" on="1"/>
        <pt x="666" y="0" on="1"/>
        <pt x="539" y="0" on="1"/>
        <pt x="483" y="177" on="1"/>
        <pt x="224" y="177" on="1"/>
        <pt x="167" y="0" on="1"/>
      </contour>
      <contour>
        <pt x="257" y="283" on="1"/>
        <pt x="453" y="283" on="1"/>
        <pt x="357" y="574" on="1"/>
      </contour>
    </TTGlyph>
    <TTGlyph name="AE" xMin="25" yMin="-5" xMax="905" yMax="733">
      <contour>
        <pt x="524" y="732" on="1"/>
        <pt x="568" y="732" on="1"/>
        <pt x="578" y="732" on="0"/>
        <pt x="863" y="722" on="0"/>
        <pt x="904" y="716" on="1"/>
        <pt x="904" y="621" on="1"/>
        <pt x="610" y="621" on="1"/>
        <pt x="574" y="621" on="0"/>
        <pt x="566" y="603" on="1"/>
        <pt x="560" y="590" on="0"/>
        <pt x="559" y="567" on="1"/>
        <pt x="559" y="417" on="1"/>
        <pt x="861" y="406" on="1"/>
        <pt x="861" y="312" on="1"/>
        <pt x="559" y="302" on="1"/>
        <pt x="559" y="158" on="1"/>
        <pt x="559" y="133" on="0"/>
        <pt x="571" y="121" on="0"/>
        <pt x="574" y="116" on="0"/>
        <pt x="585" y="112" on="0"/>
        <pt x="588" y="111" on="0"/>
        <pt x="602" y="110" on="0"/>
        <pt x="604" y="110" on="0"/>
        <pt x="620" y="110" on="0"/>
        <pt x="621" y="110" on="1"/>
        <pt x="903" y="109" on="1"/>
        <pt x="903" y="13" on="1"/>
        <pt x="869" y="8" on="0"/>
        <pt x="628" y="-3" on="1"/>
        <pt x="600" y="-4" on="1"/>
        <pt x="590" y="-5" on="0"/>
        <pt x="569" y="-5" on="0"/>
        <pt x="537" y="-2" on="0"/>
        <pt x="494" y="13" on="0"/>
        <pt x="478" y="27" on="1"/>
        <pt x="443" y="58" on="0"/>
        <pt x="443" y="121" on="1"/>
        <pt x="443" y="206" on="1"/>
        <pt x="255" y="206" on="1"/>
        <pt x="153" y="0" on="1"/>
        <pt x="25" y="0" on="1"/>
        <pt x="314" y="586" on="1"/>
        <pt x="357" y="673" on="0"/>
        <pt x="414" y="703" on="1"/>
        <pt x="467" y="732" on="0"/>
      </contour>
      <contour>
        <pt x="443" y="312" on="1"/>
        <pt x="443" y="593" on="1"/>
        <pt x="306" y="312" on="1"/>
      </contour>
    </TTGlyph>
    <TTGlyph name="Aacute" xMin="38" yMin="0" xMax="666" yMax="934">
      <contour>
        <pt x="38" y="0" on="1"/>
        <pt x="293" y="732" on="1"/>
        <pt x="421" y="732" on="1"/>
        <pt x="666" y="0" on="1"/>
        <pt x="539" y="0" on="1"/>
        <pt x="483" y="177" on="1"/>
        <pt x="224" y="177" on="1"/>
        <pt x="167" y="0" on="1"/>
      </contour>
      <contour>
        <pt x="257" y="283" on="1"/>
        <pt x="453" y="283" on="1"/>
        <pt x="357" y="574" on="1"/>
      </contour>
      <contour>
        <pt x="316" y="797" on="1"/>
        <pt x="412" y="934" on="1"/>
        <pt x="525" y="934" on="1"/>
        <pt x="399" y="797" on="1"/>
      </contour>
    </TTGlyph>
    <TTGlyph name="Abreve" xMin="38" yMin="0" xMax="666" yMax="911">
      <contour>
        <pt x="38" y="0" on="1"/>
        <pt x="293" y="732" on="1"/>
        <pt x="421" y="732" on="1"/>
        <pt x="666" y="0" on="1"/>
        <pt x="539" y="0" on="1"/>
        <pt x="483" y="177" on="1"/>
        <pt x="224" y="177" on="1"/>
        <pt x="167" y="0" on="1"/>
      </contour>
      <contour>
        <pt x="257" y="283" on="1"/>
        <pt x="453" y="283" on="1"/>
        <pt x="357" y="574" on="1"/>
      </contour>
      <contour>
        <pt x="242" y="911" on="1"/>
        <pt x="296" y="911" on="1"/>
        <pt x="296" y="875" on="0"/>
        <pt x="326" y="858" on="1"/>
        <pt x="340" y="851" on="0"/>
        <pt x="385" y="851" on="0"/>
        <pt x="418" y="883" on="0"/>
        <pt x="418" y="911" on="1"/>
        <pt x="472" y="911" on="1"/>
        <pt x="472" y="876" on="0"/>
        <pt x="456" y="849" on="1"/>
        <pt x="423" y="797" on="0"/>
        <pt x="356" y="797" on="1"/>
        <pt x="291" y="797" on="0"/>
        <pt x="258" y="850" on="1"/>
        <pt x="242" y="876" on="0"/>
      </contour>
    </TTGlyph>
    <TTGlyph name="Acircumflex" xMin="38" yMin="0" xMax="666" yMax="931">
      <contour>
        <pt x="38" y="0" on="1"/>
        <pt x="293" y="732" on="1"/>
        <pt x="421" y="732" on="1"/>
        <pt x="666" y="0" on="1"/>
        <pt x="539" y="0" on="1"/>
        <pt x="483" y="177" on="1"/>
        <pt x="224" y="177" on="1"/>
        <pt x="167" y="0" on="1"/>
      </contour>
      <contour>
        <pt x="257" y="283" on="1"/>
        <pt x="453" y="283" on="1"/>
        <pt x="357" y="574" on="1"/>
      </contour>
      <contour>
        <pt x="206" y="797" on="1"/>
        <pt x="317" y="930" on="1"/>
        <pt x="409" y="930" on="1"/>
        <pt x="508" y="797" on="1"/>
        <pt x="423" y="797" on="1"/>
        <pt x="360" y="861" on="1"/>
        <pt x="292" y="797" on="1"/>
      </contour>
    </TTGlyph>
    <TTGlyph name="Adieresis" xMin="38" yMin="0" xMax="666" yMax="909">
      <contour>
        <pt x="38" y="0" on="1"/>
        <pt x="293" y="732" on="1"/>
        <pt x="421" y="732" on="1"/>
        <pt x="666" y="0" on="1"/>
        <pt x="539" y="0" on="1"/>
        <pt x="483" y="177" on="1"/>
        <pt x="224" y="177" on="1"/>
        <pt x="167" y="0" on="1"/>
      </contour>
      <contour>
        <pt x="257" y="283" on="1"/>
        <pt x="453" y="283" on="1"/>
        <pt x="357" y="574" on="1"/>
      </contour>
      <contour>
        <pt x="174" y="830" on="0"/>
        <pt x="174" y="876" on="0"/>
        <pt x="207" y="908" on="0"/>
        <pt x="253" y="908" on="0"/>
        <pt x="285" y="876" on="0"/>
        <pt x="285" y="830" on="0"/>
        <pt x="253" y="797" on="0"/>
        <pt x="207" y="797" on="0"/>
      </contour>
      <contour>
        <pt x="429" y="830" on="0"/>
        <pt x="429" y="876" on="0"/>
        <pt x="462" y="908" on="0"/>
        <pt x="508" y="908" on="0"/>
        <pt x="540" y="876" on="0"/>
        <pt x="540" y="830" on="0"/>
        <pt x="508" y="797" on="0"/>
        <pt x="462" y="797" on="0"/>
      </contour>
    </TTGlyph>
    <TTGlyph name="Agrave" xMin="38" yMin="0" xMax="666" yMax="934">
      <contour>
        <pt x="38" y="0" on="1"/>
        <pt x="293" y="732" on="1"/>
        <pt x="421" y="732" on="1"/>
        <pt x="666" y="0" on="1"/>
        <pt x="539" y="0" on="1"/>
        <pt x="483" y="177" on="1"/>
        <pt x="224" y="177" on="1"/>
        <pt x="167" y="0" on="1"/>
      </contour>
      <contour>
        <pt x="257" y="283" on="1"/>
        <pt x="453" y="283" on="1"/>
        <pt x="357" y="574" on="1"/>
      </contour>
      <contour>
        <pt x="190" y="934" on="1"/>
        <pt x="302" y="934" on="1"/>
        <pt x="399" y="797" on="1"/>
        <pt x="316" y="797" on="1"/>
      </contour>
    </TTGlyph>
    <TTGlyph name="Amacron" xMin="38" yMin="0" xMax="666" yMax="871">
      <contour>
        <pt x="38" y="0" on="1"/>
        <pt x="293" y="732" on="1"/>
        <pt x="421" y="732" on="1"/>
        <pt x="666" y="0" on="1"/>
        <pt x="539" y="0" on="1"/>
        <pt x="483" y="177" on="1"/>
        <pt x="224" y="177" on="1"/>
        <pt x="167" y="0" on="1"/>
      </contour>
      <contour>
        <pt x="257" y="283" on="1"/>
        <pt x="453" y="283" on="1"/>
        <pt x="357" y="574" on="1"/>
      </contour>
      <contour>
        <pt x="211" y="797" on="1"/>
        <pt x="211" y="870" on="1"/>
        <pt x="503" y="870" on="1"/>
        <pt x="503" y="797" on="1"/>
      </contour>
    </TTGlyph>
    <TTGlyph name="Aogonek" xMin="38" yMin="-187" xMax="666" yMax="732">
      <contour>
        <pt x="38" y="0" on="1"/>
        <pt x="293" y="732" on="1"/>
        <pt x="421" y="732" on="1"/>
        <pt x="666" y="0" on="1"/>
        <pt x="539" y="0" on="1"/>
        <pt x="483" y="177" on="1"/>
        <pt x="224" y="177" on="1"/>
        <pt x="167" y="0" on="1"/>
      </contour>
      <contour>
        <pt x="257" y="283" on="1"/>
        <pt x="453" y="283" on="1"/>
        <pt x="357" y="574" on="1"/>
      </contour>
      <contour>
        <pt x="631" y="1" on="1"/>
        <pt x="579" y="-40" on="0"/>
        <pt x="579" y="-75" on="1"/>
        <pt x="579" y="-89" on="0"/>
        <pt x="604" y="-113" on="0"/>
        <pt x="635" y="-113" on="1"/>
        <pt x="636" y="-113" on="0"/>
        <pt x="637" y="-113" on="1"/>
        <pt x="637" y="-184" on="1"/>
        <pt x="625" y="-186" on="0"/>
        <pt x="594" y="-186" on="0"/>
        <pt x="545" y="-170" on="0"/>
        <pt x="528" y="-148" on="1"/>
        <pt x="506" y="-119" on="0"/>
        <pt x="506" y="-94" on="1"/>
        <pt x="506" y="-35" on="0"/>
        <pt x="581" y="1" on="1"/>
      </contour>
    </TTGlyph>
    <TTGlyph name="Aring" xMin="38" yMin="0" xMax="666" yMax="936">
      <contour>
        <pt x="38" y="0" on="1"/>
        <pt x="293" y="732" on="1"/>
        <pt x="421" y="732" on="1"/>
        <pt x="666" y="0" on="1"/>
        <pt x="539" y="0" on="1"/>
        <pt x="483" y="177" on="1"/>
        <pt x="224" y="177" on="1"/>
        <pt x="167" y="0" on="1"/>
      </contour>
      <contour>
        <pt x="257" y="283" on="1"/>
        <pt x="453" y="283" on="1"/>
        <pt x="357" y="574" on="1"/>
      </contour>
      <contour>
        <pt x="256" y="804" on="0"/>
        <pt x="283" y="757" on="0"/>
        <pt x="330" y="730" on="0"/>
        <pt x="385" y="730" on="0"/>
        <pt x="432" y="757" on="0"/>
        <pt x="459" y="804" on="0"/>
        <pt x="459" y="875" on="0"/>
        <pt x="400" y="935" on="0"/>
        <pt x="316" y="935" on="0"/>
        <pt x="256" y="875" on="0"/>
      </contour>
      <contour>
        <pt x="310" y="813" on="0"/>
        <pt x="310" y="852" on="0"/>
        <pt x="338" y="880" on="0"/>
        <pt x="377" y="880" on="0"/>
        <pt x="391" y="866" on="1"/>
        <pt x="397" y="859" on="0"/>
        <pt x="404" y="842" on="0"/>
        <pt x="404" y="813" on="0"/>
        <pt x="377" y="786" on="0"/>
        <pt x="338" y="786" on="0"/>
      </contour>
    </TTGlyph>
    <TTGlyph name="Atilde" xMin="38" yMin="0" xMax="666" yMax="917">
      <contour>
        <pt x="38" y="0" on="1"/>
        <pt x="293" y="732" on="1"/>
        <pt x="421" y="732" on="1"/>
        <pt x="666" y="0" on="1"/>
        <pt x="539" y="0" on="1"/>
        <pt x="483" y="177" on="1"/>
        <pt x="224" y="177" on="1"/>
        <pt x="167" y="0" on="1"/>
      </contour>
      <contour>
        <pt x="257" y="283" on="1"/>
        <pt x="453" y="283" on="1"/>
        <pt x="357" y="574" on="1"/>
      </contour>
      <contour>
        <pt x="415" y="880" on="1"/>
        <pt x="449" y="880" on="0"/>
        <pt x="504" y="917" on="1"/>
        <pt x="528" y="864" on="1"/>
        <pt x="506" y="842" on="0"/>
        <pt x="482" y="822" on="0"/>
        <pt x="436" y="798" on="0"/>
        <pt x="425" y="798" on="1"/>
        <pt x="389" y="798" on="0"/>
        <pt x="322" y="832" on="0"/>
        <pt x="304" y="832" on="1"/>
        <pt x="277" y="832" on="0"/>
        <pt x="247" y="818" on="0"/>
        <pt x="218" y="801" on="0"/>
        <pt x="209" y="797" on="1"/>
        <pt x="186" y="847" on="1"/>
        <pt x="255" y="915" on="0"/>
        <pt x="306" y="915" on="1"/>
        <pt x="332" y="914" on="0"/>
        <pt x="400" y="880" on="0"/>
        <pt x="414" y="880" on="0"/>
      </contour>
    </TTGlyph>
    <TTGlyph name="B" xMin="67" yMin="0" xMax="572" yMax="732">
      <contour>
        <pt x="362" y="732" on="1"/>
        <pt x="513" y="732" on="0"/>
        <pt x="552" y="610" on="1"/>
        <pt x="563" y="577" on="0"/>
        <pt x="563" y="480" on="0"/>
        <pt x="516" y="391" on="0"/>
        <pt x="466" y="380" on="1"/>
        <pt x="510" y="371" on="0"/>
        <pt x="572" y="282" on="0"/>
        <pt x="572" y="211" on="1"/>
        <pt x="572" y="0" on="0"/>
        <pt x="364" y="0" on="1"/>
        <pt x="68" y="0" on="1"/>
        <pt x="68" y="732" on="1"/>
      </contour>
      <contour>
        <pt x="184" y="106" on="1"/>
        <pt x="361" y="106" on="1"/>
        <pt x="456" y="106" on="0"/>
        <pt x="456" y="216" on="1"/>
        <pt x="456" y="266" on="0"/>
        <pt x="409" y="332" on="0"/>
        <pt x="361" y="332" on="1"/>
        <pt x="184" y="332" on="1"/>
      </contour>
      <contour>
        <pt x="184" y="434" on="1"/>
        <pt x="357" y="434" on="1"/>
        <pt x="402" y="434" on="0"/>
        <pt x="448" y="484" on="0"/>
        <pt x="448" y="584" on="0"/>
        <pt x="395" y="626" on="0"/>
        <pt x="357" y="626" on="1"/>
        <pt x="184" y="626" on="1"/>
      </contour>
    </TTGlyph>
    <TTGlyph name="C" xMin="46" yMin="-7" xMax="545" yMax="741">
      <contour>
        <pt x="62" y="186" on="0"/>
        <pt x="47" y="298" on="0"/>
        <pt x="47" y="442" on="0"/>
        <pt x="60" y="552" on="0"/>
        <pt x="93" y="647" on="0"/>
        <pt x="121" y="677" on="1"/>
        <pt x="179" y="740" on="0"/>
        <pt x="428" y="740" on="0"/>
        <pt x="545" y="710" on="1"/>
        <pt x="545" y="619" on="1"/>
        <pt x="545" y="619" on="0"/>
        <pt x="529" y="620" on="0"/>
        <pt x="502" y="622" on="0"/>
        <pt x="466" y="625" on="0"/>
        <pt x="424" y="627" on="0"/>
        <pt x="402" y="629" on="1"/>
        <pt x="354" y="631" on="0"/>
        <pt x="279" y="631" on="0"/>
        <pt x="233" y="620" on="0"/>
        <pt x="194" y="588" on="0"/>
        <pt x="184" y="558" on="1"/>
        <pt x="163" y="496" on="0"/>
        <pt x="163" y="233" on="0"/>
        <pt x="229" y="103" on="0"/>
        <pt x="315" y="103" on="1"/>
        <pt x="408" y="103" on="0"/>
        <pt x="511" y="109" on="1"/>
        <pt x="545" y="111" on="1"/>
        <pt x="545" y="20" on="1"/>
        <pt x="447" y="-6" on="0"/>
        <pt x="312" y="-6" on="1"/>
        <pt x="240" y="-6" on="0"/>
        <pt x="155" y="29" on="0"/>
        <pt x="98" y="92" on="0"/>
      </contour>
    </TTGlyph>
    <TTGlyph name="Cacute" xMin="46" yMin="-7" xMax="545" yMax="937">
      <contour>
        <pt x="72" y="148" on="0"/>
        <pt x="47" y="280" on="0"/>
        <pt x="47" y="429" on="0"/>
        <pt x="56" y="525" on="0"/>
        <pt x="77" y="611" on="0"/>
        <pt x="114" y="673" on="0"/>
        <pt x="141" y="695" on="1"/>
        <pt x="195" y="740" on="0"/>
        <pt x="294" y="740" on="1"/>
        <pt x="428" y="740" on="0"/>
        <pt x="545" y="710" on="1"/>
        <pt x="545" y="619" on="1"/>
        <pt x="545" y="619" on="0"/>
        <pt x="529" y="620" on="0"/>
        <pt x="502" y="622" on="0"/>
        <pt x="466" y="625" on="0"/>
        <pt x="424" y="627" on="0"/>
        <pt x="402" y="629" on="1"/>
        <pt x="354" y="631" on="0"/>
        <pt x="279" y="631" on="0"/>
        <pt x="233" y="620" on="0"/>
        <pt x="194" y="588" on="0"/>
        <pt x="184" y="558" on="1"/>
        <pt x="163" y="496" on="0"/>
        <pt x="163" y="233" on="0"/>
        <pt x="229" y="103" on="0"/>
        <pt x="315" y="103" on="1"/>
        <pt x="408" y="103" on="0"/>
        <pt x="511" y="109" on="1"/>
        <pt x="545" y="111" on="1"/>
        <pt x="545" y="20" on="1"/>
        <pt x="447" y="-6" on="0"/>
        <pt x="312" y="-6" on="1"/>
        <pt x="227" y="-6" on="0"/>
        <pt x="129" y="47" on="0"/>
      </contour>
      <contour>
        <pt x="289" y="800" on="1"/>
        <pt x="386" y="936" on="1"/>
        <pt x="498" y="936" on="1"/>
        <pt x="372" y="800" on="1"/>
      </contour>
    </TTGlyph>
    <TTGlyph name="Ccaron" xMin="46" yMin="-7" xMax="545" yMax="934">
      <contour>
        <pt x="72" y="148" on="0"/>
        <pt x="47" y="280" on="0"/>
        <pt x="47" y="429" on="0"/>
        <pt x="56" y="525" on="0"/>
        <pt x="77" y="611" on="0"/>
        <pt x="114" y="673" on="0"/>
        <pt x="141" y="695" on="1"/>
        <pt x="195" y="740" on="0"/>
        <pt x="294" y="740" on="1"/>
        <pt x="428" y="740" on="0"/>
        <pt x="545" y="710" on="1"/>
        <pt x="545" y="619" on="1"/>
        <pt x="545" y="619" on="0"/>
        <pt x="529" y="620" on="0"/>
        <pt x="502" y="622" on="0"/>
        <pt x="466" y="625" on="0"/>
        <pt x="424" y="627" on="0"/>
        <pt x="402" y="629" on="1"/>
        <pt x="354" y="631" on="0"/>
        <pt x="279" y="631" on="0"/>
        <pt x="233" y="620" on="0"/>
        <pt x="194" y="588" on="0"/>
        <pt x="184" y="558" on="1"/>
        <pt x="163" y="496" on="0"/>
        <pt x="163" y="233" on="0"/>
        <pt x="229" y="103" on="0"/>
        <pt x="315" y="103" on="1"/>
        <pt x="408" y="103" on="0"/>
        <pt x="511" y="109" on="1"/>
        <pt x="545" y="111" on="1"/>
        <pt x="545" y="20" on="1"/>
        <pt x="447" y="-6" on="0"/>
        <pt x="312" y="-6" on="1"/>
        <pt x="227" y="-6" on="0"/>
        <pt x="129" y="47" on="0"/>
      </contour>
      <contour>
        <pt x="186" y="934" on="1"/>
        <pt x="271" y="934" on="1"/>
        <pt x="340" y="870" on="1"/>
        <pt x="403" y="934" on="1"/>
        <pt x="488" y="934" on="1"/>
        <pt x="385" y="800" on="1"/>
        <pt x="293" y="800" on="1"/>
      </contour>
    </TTGlyph>
    <TTGlyph name="Ccedilla" xMin="46" yMin="-176" xMax="545" yMax="740">
      <contour>
        <pt x="72" y="148" on="0"/>
        <pt x="47" y="280" on="0"/>
        <pt x="47" y="429" on="0"/>
        <pt x="56" y="525" on="0"/>
        <pt x="77" y="611" on="0"/>
        <pt x="114" y="673" on="0"/>
        <pt x="141" y="695" on="1"/>
        <pt x="195" y="740" on="0"/>
        <pt x="294" y="740" on="1"/>
        <pt x="428" y="740" on="0"/>
        <pt x="545" y="710" on="1"/>
        <pt x="545" y="619" on="1"/>
        <pt x="545" y="619" on="0"/>
        <pt x="529" y="620" on="0"/>
        <pt x="502" y="622" on="0"/>
        <pt x="466" y="625" on="0"/>
        <pt x="424" y="627" on="0"/>
        <pt x="402" y="629" on="1"/>
        <pt x="354" y="631" on="0"/>
        <pt x="279" y="631" on="0"/>
        <pt x="233" y="620" on="0"/>
        <pt x="194" y="588" on="0"/>
        <pt x="184" y="558" on="1"/>
        <pt x="163" y="496" on="0"/>
        <pt x="163" y="233" on="0"/>
        <pt x="229" y="103" on="0"/>
        <pt x="315" y="103" on="1"/>
        <pt x="408" y="103" on="0"/>
        <pt x="511" y="109" on="1"/>
        <pt x="545" y="111" on="1"/>
        <pt x="545" y="20" on="1"/>
        <pt x="447" y="-6" on="0"/>
        <pt x="312" y="-6" on="1"/>
        <pt x="227" y="-6" on="0"/>
        <pt x="129" y="47" on="0"/>
      </contour>
      <contour>
        <pt x="230" y="-36" on="1"/>
        <pt x="314" y="-36" on="1"/>
        <pt x="314" y="-114" on="0"/>
        <pt x="268" y="-176" on="0"/>
        <pt x="206" y="-176" on="1"/>
        <pt x="152" y="-176" on="1"/>
        <pt x="152" y="-124" on="1"/>
        <pt x="199" y="-109" on="1"/>
        <pt x="224" y="-98" on="0"/>
        <pt x="228" y="-70" on="1"/>
        <pt x="230" y="-58" on="0"/>
      </contour>
    </TTGlyph>
    <TTGlyph name="Ccircumflex" xMin="46" yMin="-7" xMax="545" yMax="934">
      <contour>
        <pt x="72" y="148" on="0"/>
        <pt x="47" y="280" on="0"/>
        <pt x="47" y="429" on="0"/>
        <pt x="56" y="525" on="0"/>
        <pt x="77" y="611" on="0"/>
        <pt x="114" y="673" on="0"/>
        <pt x="141" y="695" on="1"/>
        <pt x="195" y="740" on="0"/>
        <pt x="294" y="740" on="1"/>
        <pt x="428" y="740" on="0"/>
        <pt x="545" y="710" on="1"/>
        <pt x="545" y="619" on="1"/>
        <pt x="545" y="619" on="0"/>
        <pt x="529" y="620" on="0"/>
        <pt x="502" y="622" on="0"/>
        <pt x="466" y="625" on="0"/>
        <pt x="424" y="627" on="0"/>
        <pt x="402" y="629" on="1"/>
        <pt x="354" y="631" on="0"/>
        <pt x="279" y="631" on="0"/>
        <pt x="233" y="620" on="0"/>
        <pt x="194" y="588" on="0"/>
        <pt x="184" y="558" on="1"/>
        <pt x="163" y="496" on="0"/>
        <pt x="163" y="233" on="0"/>
        <pt x="229" y="103" on="0"/>
        <pt x="315" y="103" on="1"/>
        <pt x="408" y="103" on="0"/>
        <pt x="511" y="109" on="1"/>
        <pt x="545" y="111" on="1"/>
        <pt x="545" y="20" on="1"/>
        <pt x="447" y="-6" on="0"/>
        <pt x="312" y="-6" on="1"/>
        <pt x="227" y="-6" on="0"/>
        <pt x="129" y="47" on="0"/>
      </contour>
      <contour>
        <pt x="179" y="800" on="1"/>
        <pt x="290" y="934" on="1"/>
        <pt x="382" y="934" on="1"/>
        <pt x="481" y="800" on="1"/>
        <pt x="396" y="800" on="1"/>
        <pt x="333" y="864" on="1"/>
        <pt x="265" y="800" on="1"/>
      </contour>
    </TTGlyph>
    <TTGlyph name="Cdotaccent" xMin="46" yMin="-7" xMax="545" yMax="918">
      <contour>
        <pt x="72" y="148" on="0"/>
        <pt x="47" y="280" on="0"/>
        <pt x="47" y="429" on="0"/>
        <pt x="56" y="525" on="0"/>
        <pt x="77" y="611" on="0"/>
        <pt x="114" y="673" on="0"/>
        <pt x="141" y="695" on="1"/>
        <pt x="195" y="740" on="0"/>
        <pt x="294" y="740" on="1"/>
        <pt x="428" y="740" on="0"/>
        <pt x="545" y="710" on="1"/>
        <pt x="545" y="619" on="1"/>
        <pt x="545" y="619" on="0"/>
        <pt x="529" y="620" on="0"/>
        <pt x="502" y="622" on="0"/>
        <pt x="466" y="625" on="0"/>
        <pt x="424" y="627" on="0"/>
        <pt x="402" y="629" on="1"/>
        <pt x="354" y="631" on="0"/>
        <pt x="279" y="631" on="0"/>
        <pt x="233" y="620" on="0"/>
        <pt x="194" y="588" on="0"/>
        <pt x="184" y="558" on="1"/>
        <pt x="163" y="496" on="0"/>
        <pt x="163" y="233" on="0"/>
        <pt x="229" y="103" on="0"/>
        <pt x="315" y="103" on="1"/>
        <pt x="408" y="103" on="0"/>
        <pt x="511" y="109" on="1"/>
        <pt x="545" y="111" on="1"/>
        <pt x="545" y="20" on="1"/>
        <pt x="447" y="-6" on="0"/>
        <pt x="312" y="-6" on="1"/>
        <pt x="227" y="-6" on="0"/>
        <pt x="129" y="47" on="0"/>
      </contour>
      <contour>
        <pt x="278" y="824" on="1"/>
        <pt x="278" y="892" on="1"/>
        <pt x="278" y="917" on="0"/>
        <pt x="302" y="917" on="1"/>
        <pt x="366" y="917" on="1"/>
        <pt x="377" y="917" on="0"/>
        <pt x="389" y="903" on="0"/>
        <pt x="389" y="892" on="1"/>
        <pt x="389" y="824" on="1"/>
        <pt x="389" y="801" on="0"/>
        <pt x="366" y="801" on="1"/>
        <pt x="302" y="801" on="1"/>
        <pt x="291" y="801" on="0"/>
        <pt x="278" y="814" on="0"/>
      </contour>
    </TTGlyph>
    <TTGlyph name="D" xMin="67" yMin="0" xMax="621" yMax="732">
      <contour>
        <pt x="68" y="0" on="1"/>
        <pt x="68" y="732" on="1"/>
        <pt x="365" y="732" on="1"/>
        <pt x="621" y="732" on="0"/>
        <pt x="621" y="363" on="1"/>
        <pt x="621" y="208" on="0"/>
        <pt x="562" y="108" on="1"/>
        <pt x="532" y="57" on="0"/>
        <pt x="431" y="0" on="0"/>
        <pt x="365" y="0" on="1"/>
      </contour>
      <contour>
        <pt x="184" y="107" on="1"/>
        <pt x="358" y="107" on="1"/>
        <pt x="409" y="107" on="0"/>
        <pt x="442" y="141" on="1"/>
        <pt x="505" y="204" on="0"/>
        <pt x="505" y="364" on="1"/>
        <pt x="505" y="554" on="0"/>
        <pt x="437" y="604" on="1"/>
        <pt x="406" y="626" on="0"/>
        <pt x="358" y="626" on="1"/>
        <pt x="184" y="626" on="1"/>
      </contour>
    </TTGlyph>
    <TTGlyph name="Dcaron" xMin="67" yMin="0" xMax="621" yMax="928">
      <contour>
        <pt x="68" y="0" on="1"/>
        <pt x="68" y="732" on="1"/>
        <pt x="365" y="732" on="1"/>
        <pt x="621" y="732" on="0"/>
        <pt x="621" y="363" on="1"/>
        <pt x="621" y="208" on="0"/>
        <pt x="562" y="108" on="1"/>
        <pt x="532" y="57" on="0"/>
        <pt x="431" y="0" on="0"/>
        <pt x="365" y="0" on="1"/>
      </contour>
      <contour>
        <pt x="184" y="107" on="1"/>
        <pt x="358" y="107" on="1"/>
        <pt x="409" y="107" on="0"/>
        <pt x="442" y="141" on="1"/>
        <pt x="505" y="204" on="0"/>
        <pt x="505" y="364" on="1"/>
        <pt x="505" y="554" on="0"/>
        <pt x="437" y="604" on="1"/>
        <pt x="406" y="626" on="0"/>
        <pt x="358" y="626" on="1"/>
        <pt x="184" y="626" on="1"/>
      </contour>
      <contour>
        <pt x="167" y="927" on="1"/>
        <pt x="252" y="927" on="1"/>
        <pt x="322" y="863" on="1"/>
        <pt x="384" y="927" on="1"/>
        <pt x="469" y="927" on="1"/>
        <pt x="367" y="794" on="1"/>
        <pt x="275" y="794" on="1"/>
      </contour>
    </TTGlyph>
    <TTGlyph name="Dcroat" xMin="2" yMin="0" xMax="621" yMax="732">
      <contour>
        <pt x="3" y="342" on="1"/>
        <pt x="3" y="404" on="1"/>
        <pt x="68" y="404" on="1"/>
        <pt x="68" y="731" on="1"/>
        <pt x="68" y="732" on="0"/>
        <pt x="365" y="732" on="1"/>
        <pt x="621" y="732" on="0"/>
        <pt x="621" y="363" on="1"/>
        <pt x="621" y="208" on="0"/>
        <pt x="562" y="108" on="1"/>
        <pt x="533" y="57" on="0"/>
        <pt x="432" y="0" on="0"/>
        <pt x="365" y="0" on="1"/>
        <pt x="68" y="0" on="1"/>
        <pt x="68" y="342" on="1"/>
      </contour>
      <contour>
        <pt x="184" y="107" on="1"/>
        <pt x="358" y="107" on="1"/>
        <pt x="503" y="107" on="0"/>
        <pt x="503" y="364" on="1"/>
        <pt x="503" y="510" on="0"/>
        <pt x="463" y="569" on="1"/>
        <pt x="426" y="623" on="0"/>
        <pt x="358" y="623" on="1"/>
        <pt x="184" y="623" on="1"/>
        <pt x="184" y="404" on="1"/>
        <pt x="305" y="404" on="1"/>
        <pt x="305" y="342" on="1"/>
        <pt x="184" y="342" on="1"/>
      </contour>
    </TTGlyph>
    <TTGlyph name="E" xMin="65" yMin="-4" xMax="533" yMax="733">
      <contour>
        <pt x="132" y="716" on="1"/>
        <pt x="152" y="726" on="0"/>
        <pt x="188" y="732" on="0"/>
        <pt x="210" y="732" on="0"/>
        <pt x="492" y="722" on="0"/>
        <pt x="533" y="716" on="1"/>
        <pt x="533" y="621" on="1"/>
        <pt x="234" y="621" on="1"/>
        <pt x="197" y="621" on="0"/>
        <pt x="188" y="603" on="1"/>
        <pt x="182" y="589" on="0"/>
        <pt x="182" y="565" on="1"/>
        <pt x="182" y="420" on="1"/>
        <pt x="489" y="410" on="1"/>
        <pt x="489" y="315" on="1"/>
        <pt x="182" y="305" on="1"/>
        <pt x="182" y="160" on="1"/>
        <pt x="183" y="118" on="0"/>
        <pt x="210" y="111" on="1"/>
        <pt x="223" y="108" on="0"/>
        <pt x="244" y="108" on="1"/>
        <pt x="533" y="108" on="1"/>
        <pt x="533" y="14" on="1"/>
        <pt x="501" y="10" on="0"/>
        <pt x="292" y="0" on="1"/>
        <pt x="223" y="-3" on="1"/>
        <pt x="215" y="-3" on="0"/>
        <pt x="194" y="-3" on="0"/>
        <pt x="162" y="0" on="0"/>
        <pt x="118" y="17" on="0"/>
        <pt x="102" y="31" on="1"/>
        <pt x="66" y="65" on="0"/>
        <pt x="66" y="136" on="1"/>
        <pt x="66" y="588" on="1"/>
        <pt x="66" y="682" on="0"/>
      </contour>
    </TTGlyph>
    <TTGlyph name="Eacute" xMin="66" yMin="-4" xMax="533" yMax="931">
      <contour>
        <pt x="66" y="136" on="1"/>
        <pt x="66" y="588" on="1"/>
        <pt x="66" y="643" on="0"/>
        <pt x="113" y="711" on="0"/>
        <pt x="172" y="732" on="0"/>
        <pt x="210" y="732" on="0"/>
        <pt x="492" y="722" on="0"/>
        <pt x="533" y="716" on="1"/>
        <pt x="533" y="621" on="1"/>
        <pt x="234" y="621" on="1"/>
        <pt x="197" y="621" on="0"/>
        <pt x="188" y="603" on="1"/>
        <pt x="182" y="589" on="0"/>
        <pt x="182" y="565" on="1"/>
        <pt x="182" y="420" on="1"/>
        <pt x="489" y="410" on="1"/>
        <pt x="489" y="315" on="1"/>
        <pt x="182" y="305" on="1"/>
        <pt x="182" y="160" on="1"/>
        <pt x="183" y="118" on="0"/>
        <pt x="210" y="111" on="1"/>
        <pt x="223" y="108" on="0"/>
        <pt x="244" y="108" on="1"/>
        <pt x="533" y="108" on="1"/>
        <pt x="533" y="14" on="1"/>
        <pt x="501" y="10" on="0"/>
        <pt x="292" y="0" on="1"/>
        <pt x="223" y="-3" on="1"/>
        <pt x="215" y="-3" on="0"/>
        <pt x="194" y="-3" on="0"/>
        <pt x="162" y="0" on="0"/>
        <pt x="118" y="17" on="0"/>
        <pt x="102" y="31" on="1"/>
        <pt x="66" y="65" on="0"/>
      </contour>
      <contour>
        <pt x="280" y="794" on="1"/>
        <pt x="376" y="930" on="1"/>
        <pt x="489" y="930" on="1"/>
        <pt x="363" y="794" on="1"/>
      </contour>
    </TTGlyph>
    <TTGlyph name="Ecaron" xMin="66" yMin="-4" xMax="533" yMax="928">
      <contour>
        <pt x="66" y="136" on="1"/>
        <pt x="66" y="588" on="1"/>
        <pt x="66" y="643" on="0"/>
        <pt x="113" y="711" on="0"/>
        <pt x="172" y="732" on="0"/>
        <pt x="210" y="732" on="0"/>
        <pt x="492" y="722" on="0"/>
        <pt x="533" y="716" on="1"/>
        <pt x="533" y="621" on="1"/>
        <pt x="234" y="621" on="1"/>
        <pt x="197" y="621" on="0"/>
        <pt x="188" y="603" on="1"/>
        <pt x="182" y="589" on="0"/>
        <pt x="182" y="565" on="1"/>
        <pt x="182" y="420" on="1"/>
        <pt x="489" y="410" on="1"/>
        <pt x="489" y="315" on="1"/>
        <pt x="182" y="305" on="1"/>
        <pt x="182" y="160" on="1"/>
        <pt x="183" y="118" on="0"/>
        <pt x="210" y="111" on="1"/>
        <pt x="223" y="108" on="0"/>
        <pt x="244" y="108" on="1"/>
        <pt x="533" y="108" on="1"/>
        <pt x="533" y="14" on="1"/>
        <pt x="501" y="10" on="0"/>
        <pt x="292" y="0" on="1"/>
        <pt x="223" y="-3" on="1"/>
        <pt x="215" y="-3" on="0"/>
        <pt x="194" y="-3" on="0"/>
        <pt x="162" y="0" on="0"/>
        <pt x="118" y="17" on="0"/>
        <pt x="102" y="31" on="1"/>
        <pt x="66" y="65" on="0"/>
      </contour>
      <contour>
        <pt x="167" y="927" on="1"/>
        <pt x="252" y="927" on="1"/>
        <pt x="321" y="863" on="1"/>
        <pt x="384" y="927" on="1"/>
        <pt x="469" y="927" on="1"/>
        <pt x="366" y="794" on="1"/>
        <pt x="274" y="794" on="1"/>
      </contour>
    </TTGlyph>
    <TTGlyph name="Ecircumflex" xMin="66" yMin="-4" xMax="533" yMax="931">
      <contour>
        <pt x="66" y="136" on="1"/>
        <pt x="66" y="588" on="1"/>
        <pt x="66" y="643" on="0"/>
        <pt x="113" y="711" on="0"/>
        <pt x="172" y="732" on="0"/>
        <pt x="210" y="732" on="0"/>
        <pt x="492" y="722" on="0"/>
        <pt x="533" y="716" on="1"/>
        <pt x="533" y="621" on="1"/>
        <pt x="234" y="621" on="1"/>
        <pt x="197" y="621" on="0"/>
        <pt x="188" y="603" on="1"/>
        <pt x="182" y="589" on="0"/>
        <pt x="182" y="565" on="1"/>
        <pt x="182" y="420" on="1"/>
        <pt x="489" y="410" on="1"/>
        <pt x="489" y="315" on="1"/>
        <pt x="182" y="305" on="1"/>
        <pt x="182" y="160" on="1"/>
        <pt x="183" y="118" on="0"/>
        <pt x="210" y="111" on="1"/>
        <pt x="223" y="108" on="0"/>
        <pt x="244" y="108" on="1"/>
        <pt x="533" y="108" on="1"/>
        <pt x="533" y="14" on="1"/>
        <pt x="501" y="10" on="0"/>
        <pt x="292" y="0" on="1"/>
        <pt x="223" y="-3" on="1"/>
        <pt x="215" y="-3" on="0"/>
        <pt x="194" y="-3" on="0"/>
        <pt x="162" y="0" on="0"/>
        <pt x="118" y="17" on="0"/>
        <pt x="102" y="31" on="1"/>
        <pt x="66" y="65" on="0"/>
      </contour>
      <contour>
        <pt x="166" y="797" on="1"/>
        <pt x="277" y="930" on="1"/>
        <pt x="369" y="930" on="1"/>
        <pt x="468" y="797" on="1"/>
        <pt x="383" y="797" on="1"/>
        <pt x="320" y="861" on="1"/>
        <pt x="252" y="797" on="1"/>
      </contour>
    </TTGlyph>
    <TTGlyph name="Edieresis" xMin="66" yMin="-4" xMax="533" yMax="906">
      <contour>
        <pt x="66" y="136" on="1"/>
        <pt x="66" y="588" on="1"/>
        <pt x="66" y="643" on="0"/>
        <pt x="113" y="711" on="0"/>
        <pt x="172" y="732" on="0"/>
        <pt x="210" y="732" on="0"/>
        <pt x="492" y="722" on="0"/>
        <pt x="533" y="716" on="1"/>
        <pt x="533" y="621" on="1"/>
        <pt x="234" y="621" on="1"/>
        <pt x="197" y="621" on="0"/>
        <pt x="188" y="603" on="1"/>
        <pt x="182" y="589" on="0"/>
        <pt x="182" y="565" on="1"/>
        <pt x="182" y="420" on="1"/>
        <pt x="489" y="410" on="1"/>
        <pt x="489" y="315" on="1"/>
        <pt x="182" y="305" on="1"/>
        <pt x="182" y="160" on="1"/>
        <pt x="183" y="118" on="0"/>
        <pt x="210" y="111" on="1"/>
        <pt x="223" y="108" on="0"/>
        <pt x="244" y="108" on="1"/>
        <pt x="533" y="108" on="1"/>
        <pt x="533" y="14" on="1"/>
        <pt x="501" y="10" on="0"/>
        <pt x="292" y="0" on="1"/>
        <pt x="223" y="-3" on="1"/>
        <pt x="215" y="-3" on="0"/>
        <pt x="194" y="-3" on="0"/>
        <pt x="162" y="0" on="0"/>
        <pt x="118" y="17" on="0"/>
        <pt x="102" y="31" on="1"/>
        <pt x="66" y="65" on="0"/>
      </contour>
      <contour>
        <pt x="131" y="827" on="0"/>
        <pt x="131" y="873" on="0"/>
        <pt x="164" y="905" on="0"/>
        <pt x="210" y="905" on="0"/>
        <pt x="242" y="873" on="0"/>
        <pt x="242" y="827" on="0"/>
        <pt x="210" y="794" on="0"/>
        <pt x="164" y="794" on="0"/>
      </contour>
      <contour>
        <pt x="386" y="827" on="0"/>
        <pt x="386" y="873" on="0"/>
        <pt x="419" y="905" on="0"/>
        <pt x="465" y="905" on="0"/>
        <pt x="497" y="873" on="0"/>
        <pt x="497" y="827" on="0"/>
        <pt x="465" y="794" on="0"/>
        <pt x="419" y="794" on="0"/>
      </contour>
    </TTGlyph>
    <TTGlyph name="Edotaccent" xMin="66" yMin="-4" xMax="533" yMax="912">
      <contour>
        <pt x="66" y="136" on="1"/>
        <pt x="66" y="588" on="1"/>
        <pt x="66" y="643" on="0"/>
        <pt x="113" y="711" on="0"/>
        <pt x="172" y="732" on="0"/>
        <pt x="210" y="732" on="0"/>
        <pt x="492" y="722" on="0"/>
        <pt x="533" y="716" on="1"/>
        <pt x="533" y="621" on="1"/>
        <pt x="234" y="621" on="1"/>
        <pt x="197" y="621" on="0"/>
        <pt x="188" y="603" on="1"/>
        <pt x="182" y="589" on="0"/>
        <pt x="182" y="565" on="1"/>
        <pt x="182" y="420" on="1"/>
        <pt x="489" y="410" on="1"/>
        <pt x="489" y="315" on="1"/>
        <pt x="182" y="305" on="1"/>
        <pt x="182" y="160" on="1"/>
        <pt x="183" y="118" on="0"/>
        <pt x="210" y="111" on="1"/>
        <pt x="223" y="108" on="0"/>
        <pt x="244" y="108" on="1"/>
        <pt x="533" y="108" on="1"/>
        <pt x="533" y="14" on="1"/>
        <pt x="501" y="10" on="0"/>
        <pt x="292" y="0" on="1"/>
        <pt x="223" y="-3" on="1"/>
        <pt x="215" y="-3" on="0"/>
        <pt x="194" y="-3" on="0"/>
        <pt x="162" y="0" on="0"/>
        <pt x="118" y="17" on="0"/>
        <pt x="102" y="31" on="1"/>
        <pt x="66" y="65" on="0"/>
      </contour>
      <contour>
        <pt x="268" y="818" on="1"/>
        <pt x="268" y="886" on="1"/>
        <pt x="268" y="911" on="0"/>
        <pt x="292" y="911" on="1"/>
        <pt x="356" y="911" on="1"/>
        <pt x="367" y="911" on="0"/>
        <pt x="379" y="897" on="0"/>
        <pt x="379" y="886" on="1"/>
        <pt x="379" y="818" on="1"/>
        <pt x="379" y="795" on="0"/>
        <pt x="356" y="795" on="1"/>
        <pt x="292" y="795" on="1"/>
        <pt x="281" y="795" on="0"/>
        <pt x="268" y="808" on="0"/>
      </contour>
    </TTGlyph>
    <TTGlyph name="Egrave" xMin="66" yMin="-4" xMax="533" yMax="931">
      <contour>
        <pt x="66" y="136" on="1"/>
        <pt x="66" y="588" on="1"/>
        <pt x="66" y="643" on="0"/>
        <pt x="113" y="711" on="0"/>
        <pt x="172" y="732" on="0"/>
        <pt x="210" y="732" on="0"/>
        <pt x="492" y="722" on="0"/>
        <pt x="533" y="716" on="1"/>
        <pt x="533" y="621" on="1"/>
        <pt x="234" y="621" on="1"/>
        <pt x="197" y="621" on="0"/>
        <pt x="188" y="603" on="1"/>
        <pt x="182" y="589" on="0"/>
        <pt x="182" y="565" on="1"/>
        <pt x="182" y="420" on="1"/>
        <pt x="489" y="410" on="1"/>
        <pt x="489" y="315" on="1"/>
        <pt x="182" y="305" on="1"/>
        <pt x="182" y="160" on="1"/>
        <pt x="183" y="118" on="0"/>
        <pt x="210" y="111" on="1"/>
        <pt x="223" y="108" on="0"/>
        <pt x="244" y="108" on="1"/>
        <pt x="533" y="108" on="1"/>
        <pt x="533" y="14" on="1"/>
        <pt x="501" y="10" on="0"/>
        <pt x="292" y="0" on="1"/>
        <pt x="223" y="-3" on="1"/>
        <pt x="215" y="-3" on="0"/>
        <pt x="194" y="-3" on="0"/>
        <pt x="162" y="0" on="0"/>
        <pt x="118" y="17" on="0"/>
        <pt x="102" y="31" on="1"/>
        <pt x="66" y="65" on="0"/>
      </contour>
      <contour>
        <pt x="169" y="931" on="1"/>
        <pt x="281" y="931" on="1"/>
        <pt x="378" y="794" on="1"/>
        <pt x="295" y="794" on="1"/>
      </contour>
    </TTGlyph>
    <TTGlyph name="Emacron" xMin="66" yMin="-4" xMax="533" yMax="870">
      <contour>
        <pt x="66" y="136" on="1"/>
        <pt x="66" y="588" on="1"/>
        <pt x="66" y="643" on="0"/>
        <pt x="113" y="711" on="0"/>
        <pt x="172" y="732" on="0"/>
        <pt x="210" y="732" on="0"/>
        <pt x="492" y="722" on="0"/>
        <pt x="533" y="716" on="1"/>
        <pt x="533" y="621" on="1"/>
        <pt x="234" y="621" on="1"/>
        <pt x="197" y="621" on="0"/>
        <pt x="188" y="603" on="1"/>
        <pt x="182" y="589" on="0"/>
        <pt x="182" y="565" on="1"/>
        <pt x="182" y="420" on="1"/>
        <pt x="489" y="410" on="1"/>
        <pt x="489" y="315" on="1"/>
        <pt x="182" y="305" on="1"/>
        <pt x="182" y="160" on="1"/>
        <pt x="183" y="118" on="0"/>
        <pt x="210" y="111" on="1"/>
        <pt x="223" y="108" on="0"/>
        <pt x="244" y="108" on="1"/>
        <pt x="533" y="108" on="1"/>
        <pt x="533" y="14" on="1"/>
        <pt x="501" y="10" on="0"/>
        <pt x="292" y="0" on="1"/>
        <pt x="223" y="-3" on="1"/>
        <pt x="215" y="-3" on="0"/>
        <pt x="194" y="-3" on="0"/>
        <pt x="162" y="0" on="0"/>
        <pt x="118" y="17" on="0"/>
        <pt x="102" y="31" on="1"/>
        <pt x="66" y="65" on="0"/>
      </contour>
      <contour>
        <pt x="168" y="796" on="1"/>
        <pt x="168" y="869" on="1"/>
        <pt x="460" y="869" on="1"/>
        <pt x="460" y="796" on="1"/>
      </contour>
    </TTGlyph>
    <TTGlyph name="Eng" xMin="67" yMin="-258" xMax="628" yMax="732">
      <contour>
        <pt x="68" y="0" on="1"/>
        <pt x="68" y="732" on="1"/>
        <pt x="186" y="732" on="1"/>
        <pt x="511" y="222" on="1"/>
        <pt x="511" y="732" on="1"/>
        <pt x="627" y="732" on="1"/>
        <pt x="627" y="-77" on="1"/>
        <pt x="627" y="-210" on="0"/>
        <pt x="523" y="-243" on="1"/>
        <pt x="478" y="-258" on="0"/>
        <pt x="419" y="-258" on="1"/>
        <pt x="404" y="-258" on="0"/>
        <pt x="389" y="-257" on="1"/>
        <pt x="389" y="-172" on="1"/>
        <pt x="395" y="-171" on="0"/>
        <pt x="430" y="-165" on="0"/>
        <pt x="446" y="-162" on="0"/>
        <pt x="474" y="-153" on="0"/>
        <pt x="488" y="-139" on="0"/>
        <pt x="496" y="-129" on="1"/>
        <pt x="511" y="-110" on="0"/>
        <pt x="511" y="-66" on="1"/>
        <pt x="511" y="0" on="1"/>
        <pt x="185" y="514" on="1"/>
        <pt x="184" y="0" on="1"/>
      </contour>
    </TTGlyph>
    <TTGlyph name="Eogonek" xMin="66" yMin="-173" xMax="540" yMax="733">
      <contour>
        <pt x="66" y="136" on="1"/>
        <pt x="66" y="588" on="1"/>
        <pt x="66" y="643" on="0"/>
        <pt x="113" y="711" on="0"/>
        <pt x="172" y="732" on="0"/>
        <pt x="210" y="732" on="0"/>
        <pt x="492" y="722" on="0"/>
        <pt x="533" y="716" on="1"/>
        <pt x="533" y="621" on="1"/>
        <pt x="234" y="621" on="1"/>
        <pt x="197" y="621" on="0"/>
        <pt x="188" y="603" on="1"/>
        <pt x="182" y="589" on="0"/>
        <pt x="182" y="565" on="1"/>
        <pt x="182" y="420" on="1"/>
        <pt x="489" y="410" on="1"/>
        <pt x="489" y="315" on="1"/>
        <pt x="182" y="305" on="1"/>
        <pt x="182" y="160" on="1"/>
        <pt x="183" y="118" on="0"/>
        <pt x="210" y="111" on="1"/>
        <pt x="223" y="108" on="0"/>
        <pt x="244" y="108" on="1"/>
        <pt x="533" y="108" on="1"/>
        <pt x="533" y="14" on="1"/>
        <pt x="501" y="10" on="0"/>
        <pt x="292" y="0" on="1"/>
        <pt x="223" y="-3" on="1"/>
        <pt x="215" y="-3" on="0"/>
        <pt x="194" y="-3" on="0"/>
        <pt x="162" y="0" on="0"/>
        <pt x="118" y="17" on="0"/>
        <pt x="102" y="31" on="1"/>
        <pt x="66" y="65" on="0"/>
      </contour>
      <contour>
        <pt x="533" y="14" on="1"/>
        <pt x="481" y="-26" on="0"/>
        <pt x="481" y="-62" on="1"/>
        <pt x="481" y="-76" on="0"/>
        <pt x="506" y="-100" on="0"/>
        <pt x="538" y="-100" on="1"/>
        <pt x="538" y="-100" on="0"/>
        <pt x="539" y="-100" on="1"/>
        <pt x="539" y="-170" on="1"/>
        <pt x="527" y="-173" on="0"/>
        <pt x="496" y="-173" on="0"/>
        <pt x="447" y="-156" on="0"/>
        <pt x="431" y="-135" on="1"/>
        <pt x="408" y="-105" on="0"/>
        <pt x="408" y="-81" on="1"/>
        <pt x="408" y="-22" on="0"/>
        <pt x="483" y="14" on="1"/>
      </contour>
    </TTGlyph>
    <TTGlyph name="Eth" xMin="2" yMin="0" xMax="621" yMax="732">
      <contour>
        <pt x="3" y="342" on="1"/>
        <pt x="3" y="404" on="1"/>
        <pt x="68" y="404" on="1"/>
        <pt x="68" y="731" on="1"/>
        <pt x="68" y="732" on="0"/>
        <pt x="365" y="732" on="1"/>
        <pt x="621" y="732" on="0"/>
        <pt x="621" y="363" on="1"/>
        <pt x="621" y="208" on="0"/>
        <pt x="562" y="108" on="1"/>
        <pt x="533" y="57" on="0"/>
        <pt x="432" y="0" on="0"/>
        <pt x="365" y="0" on="1"/>
        <pt x="68" y="0" on="1"/>
        <pt x="68" y="342" on="1"/>
      </contour>
      <contour>
        <pt x="184" y="107" on="1"/>
        <pt x="358" y="107" on="1"/>
        <pt x="503" y="107" on="0"/>
        <pt x="503" y="364" on="1"/>
        <pt x="503" y="510" on="0"/>
        <pt x="463" y="569" on="1"/>
        <pt x="426" y="623" on="0"/>
        <pt x="358" y="623" on="1"/>
        <pt x="184" y="623" on="1"/>
        <pt x="184" y="404" on="1"/>
        <pt x="305" y="404" on="1"/>
        <pt x="305" y="342" on="1"/>
        <pt x="184" y="342" on="1"/>
      </contour>
    </TTGlyph>
    <TTGlyph name="Euro" xMin="16" yMin="-6" xMax="599" yMax="740">
      <contour>
        <pt x="210" y="717" on="0"/>
        <pt x="289" y="740" on="0"/>
        <pt x="382" y="740" on="0"/>
        <pt x="541" y="720" on="0"/>
        <pt x="594" y="706" on="1"/>
        <pt x="594" y="620" on="1"/>
        <pt x="442" y="634" on="0"/>
        <pt x="330" y="634" on="0"/>
        <pt x="285" y="627" on="0"/>
        <pt x="255" y="614" on="0"/>
        <pt x="233" y="590" on="0"/>
        <pt x="222" y="568" on="0"/>
        <pt x="218" y="549" on="1"/>
        <pt x="214" y="520" on="0"/>
        <pt x="214" y="474" on="1"/>
        <pt x="448" y="466" on="1"/>
        <pt x="448" y="406" on="1"/>
        <pt x="214" y="400" on="1"/>
        <pt x="214" y="320" on="1"/>
        <pt x="448" y="312" on="1"/>
        <pt x="448" y="252" on="1"/>
        <pt x="310" y="249" on="0"/>
        <pt x="247" y="246" on="1"/>
        <pt x="214" y="244" on="1"/>
        <pt x="214" y="162" on="0"/>
        <pt x="291" y="96" on="0"/>
        <pt x="360" y="96" on="1"/>
        <pt x="448" y="96" on="0"/>
        <pt x="583" y="114" on="1"/>
        <pt x="598" y="116" on="1"/>
        <pt x="598" y="32" on="1"/>
        <pt x="495" y="-6" on="0"/>
        <pt x="339" y="-6" on="1"/>
        <pt x="275" y="-6" on="0"/>
        <pt x="186" y="33" on="0"/>
        <pt x="134" y="84" on="0"/>
        <pt x="98" y="180" on="0"/>
        <pt x="98" y="244" on="1"/>
        <pt x="17" y="252" on="1"/>
        <pt x="17" y="312" on="1"/>
        <pt x="98" y="320" on="1"/>
        <pt x="98" y="400" on="1"/>
        <pt x="17" y="408" on="1"/>
        <pt x="17" y="464" on="1"/>
        <pt x="98" y="474" on="1"/>
        <pt x="98" y="477" on="1"/>
        <pt x="98" y="565" on="0"/>
        <pt x="117" y="612" on="1"/>
        <pt x="125" y="633" on="0"/>
        <pt x="161" y="685" on="0"/>
      </contour>
    </TTGlyph>
    <TTGlyph name="Euro.smcp" xMin="13" yMin="-5" xMax="490" yMax="577">
      <contour>
        <pt x="370" y="197" on="1"/>
        <pt x="190" y="193" on="0"/>
        <pt x="192" y="191" on="1"/>
        <pt x="192" y="139" on="0"/>
        <pt x="246" y="100" on="0"/>
        <pt x="286" y="100" on="1"/>
        <pt x="361" y="100" on="0"/>
        <pt x="457" y="110" on="1"/>
        <pt x="489" y="113" on="1"/>
        <pt x="489" y="23" on="1"/>
        <pt x="408" y="-5" on="0"/>
        <pt x="275" y="-5" on="1"/>
        <pt x="179" y="-5" on="0"/>
        <pt x="126" y="46" on="1"/>
        <pt x="104" y="66" on="0"/>
        <pt x="75" y="141" on="0"/>
        <pt x="75" y="191" on="1"/>
        <pt x="14" y="197" on="1"/>
        <pt x="14" y="255" on="1"/>
        <pt x="75" y="260" on="1"/>
        <pt x="75" y="305" on="1"/>
        <pt x="14" y="311" on="1"/>
        <pt x="14" y="365" on="1"/>
        <pt x="75" y="372" on="1"/>
        <pt x="75" y="577" on="0"/>
        <pt x="275" y="577" on="1"/>
        <pt x="306" y="577" on="0"/>
        <pt x="437" y="563" on="0"/>
        <pt x="486" y="554" on="1"/>
        <pt x="486" y="464" on="1"/>
        <pt x="356" y="475" on="0"/>
        <pt x="260" y="475" on="0"/>
        <pt x="218" y="459" on="0"/>
        <pt x="208" y="444" on="1"/>
        <pt x="192" y="417" on="0"/>
        <pt x="192" y="372" on="1"/>
        <pt x="370" y="366" on="1"/>
        <pt x="370" y="310" on="1"/>
        <pt x="192" y="305" on="1"/>
        <pt x="192" y="260" on="1"/>
        <pt x="370" y="255" on="1"/>
      </contour>
    </TTGlyph>
    <TTGlyph name="F" xMin="65" yMin="0" xMax="533" yMax="733">
      <contour>
        <pt x="206" y="732" on="1"/>
        <pt x="210" y="732" on="0"/>
        <pt x="492" y="722" on="0"/>
        <pt x="533" y="716" on="1"/>
        <pt x="533" y="621" on="1"/>
        <pt x="234" y="621" on="1"/>
        <pt x="197" y="621" on="0"/>
        <pt x="188" y="603" on="1"/>
        <pt x="182" y="589" on="0"/>
        <pt x="182" y="565" on="1"/>
        <pt x="182" y="420" on="1"/>
        <pt x="489" y="410" on="1"/>
        <pt x="489" y="315" on="1"/>
        <pt x="182" y="305" on="1"/>
        <pt x="182" y="0" on="1"/>
        <pt x="66" y="0" on="1"/>
        <pt x="66" y="587" on="1"/>
        <pt x="66" y="664" on="0"/>
        <pt x="149" y="732" on="0"/>
      </contour>
    </TTGlyph>
    <TTGlyph name="G" xMin="46" yMin="-6" xMax="569" yMax="740">
      <contour>
        <pt x="454" y="49" on="1"/>
        <pt x="384" y="-5" on="0"/>
        <pt x="275" y="-5" on="1"/>
        <pt x="157" y="-5" on="0"/>
        <pt x="104" y="74" on="1"/>
        <pt x="57" y="146" on="0"/>
        <pt x="49" y="283" on="1"/>
        <pt x="47" y="321" on="0"/>
        <pt x="47" y="437" on="0"/>
        <pt x="57" y="540" on="0"/>
        <pt x="88" y="639" on="0"/>
        <pt x="114" y="670" on="1"/>
        <pt x="171" y="740" on="0"/>
        <pt x="284" y="740" on="1"/>
        <pt x="423" y="740" on="0"/>
        <pt x="555" y="709" on="1"/>
        <pt x="555" y="619" on="1"/>
        <pt x="554" y="619" on="0"/>
        <pt x="521" y="622" on="0"/>
        <pt x="469" y="627" on="0"/>
        <pt x="439" y="629" on="1"/>
        <pt x="365" y="634" on="0"/>
        <pt x="305" y="634" on="1"/>
        <pt x="219" y="634" on="0"/>
        <pt x="163" y="516" on="0"/>
        <pt x="163" y="215" on="0"/>
        <pt x="191" y="161" on="1"/>
        <pt x="220" y="105" on="0"/>
        <pt x="304" y="105" on="1"/>
        <pt x="335" y="105" on="0"/>
        <pt x="409" y="127" on="0"/>
        <pt x="430" y="139" on="1"/>
        <pt x="452" y="151" on="1"/>
        <pt x="452" y="307" on="1"/>
        <pt x="326" y="307" on="1"/>
        <pt x="326" y="381" on="1"/>
        <pt x="393" y="406" on="0"/>
        <pt x="500" y="406" on="1"/>
        <pt x="532" y="406" on="0"/>
        <pt x="568" y="403" on="1"/>
        <pt x="568" y="0" on="1"/>
        <pt x="484" y="0" on="1"/>
      </contour>
    </TTGlyph>
    <TTGlyph name="Gbreve" xMin="46" yMin="-6" xMax="569" yMax="914">
      <contour>
        <pt x="454" y="49" on="1"/>
        <pt x="384" y="-5" on="0"/>
        <pt x="275" y="-5" on="1"/>
        <pt x="166" y="-5" on="0"/>
        <pt x="111" y="63" on="1"/>
        <pt x="63" y="124" on="0"/>
        <pt x="51" y="249" on="1"/>
        <pt x="47" y="300" on="0"/>
        <pt x="47" y="437" on="0"/>
        <pt x="57" y="540" on="0"/>
        <pt x="88" y="639" on="0"/>
        <pt x="114" y="670" on="1"/>
        <pt x="171" y="740" on="0"/>
        <pt x="284" y="740" on="1"/>
        <pt x="423" y="740" on="0"/>
        <pt x="555" y="710" on="1"/>
        <pt x="555" y="619" on="1"/>
        <pt x="554" y="619" on="0"/>
        <pt x="521" y="622" on="0"/>
        <pt x="469" y="627" on="0"/>
        <pt x="439" y="629" on="1"/>
        <pt x="365" y="634" on="0"/>
        <pt x="305" y="634" on="1"/>
        <pt x="219" y="634" on="0"/>
        <pt x="163" y="516" on="0"/>
        <pt x="163" y="215" on="0"/>
        <pt x="191" y="161" on="1"/>
        <pt x="220" y="105" on="0"/>
        <pt x="304" y="105" on="1"/>
        <pt x="370" y="105" on="0"/>
        <pt x="452" y="151" on="1"/>
        <pt x="452" y="307" on="1"/>
        <pt x="326" y="307" on="1"/>
        <pt x="326" y="382" on="1"/>
        <pt x="393" y="406" on="0"/>
        <pt x="500" y="406" on="1"/>
        <pt x="532" y="406" on="0"/>
        <pt x="568" y="404" on="1"/>
        <pt x="568" y="0" on="1"/>
        <pt x="484" y="0" on="1"/>
      </contour>
      <contour>
        <pt x="215" y="914" on="1"/>
        <pt x="269" y="914" on="1"/>
        <pt x="269" y="878" on="0"/>
        <pt x="299" y="861" on="1"/>
        <pt x="313" y="854" on="0"/>
        <pt x="358" y="854" on="0"/>
        <pt x="391" y="886" on="0"/>
        <pt x="391" y="914" on="1"/>
        <pt x="445" y="914" on="1"/>
        <pt x="445" y="861" on="0"/>
        <pt x="377" y="800" on="0"/>
        <pt x="299" y="800" on="0"/>
        <pt x="247" y="827" on="0"/>
        <pt x="215" y="880" on="0"/>
      </contour>
    </TTGlyph>
    <TTGlyph name="Gcircumflex" xMin="46" yMin="-6" xMax="569" yMax="934">
      <contour>
        <pt x="454" y="49" on="1"/>
        <pt x="384" y="-5" on="0"/>
        <pt x="275" y="-5" on="1"/>
        <pt x="166" y="-5" on="0"/>
        <pt x="111" y="63" on="1"/>
        <pt x="63" y="124" on="0"/>
        <pt x="51" y="249" on="1"/>
        <pt x="47" y="300" on="0"/>
        <pt x="47" y="437" on="0"/>
        <pt x="57" y="540" on="0"/>
        <pt x="88" y="639" on="0"/>
        <pt x="114" y="670" on="1"/>
        <pt x="171" y="740" on="0"/>
        <pt x="284" y="740" on="1"/>
        <pt x="423" y="740" on="0"/>
        <pt x="555" y="710" on="1"/>
        <pt x="555" y="619" on="1"/>
        <pt x="554" y="619" on="0"/>
        <pt x="521" y="622" on="0"/>
        <pt x="469" y="627" on="0"/>
        <pt x="439" y="629" on="1"/>
        <pt x="365" y="634" on="0"/>
        <pt x="305" y="634" on="1"/>
        <pt x="219" y="634" on="0"/>
        <pt x="163" y="516" on="0"/>
        <pt x="163" y="215" on="0"/>
        <pt x="191" y="161" on="1"/>
        <pt x="220" y="105" on="0"/>
        <pt x="304" y="105" on="1"/>
        <pt x="370" y="105" on="0"/>
        <pt x="452" y="151" on="1"/>
        <pt x="452" y="307" on="1"/>
        <pt x="326" y="307" on="1"/>
        <pt x="326" y="382" on="1"/>
        <pt x="393" y="406" on="0"/>
        <pt x="500" y="406" on="1"/>
        <pt x="532" y="406" on="0"/>
        <pt x="568" y="404" on="1"/>
        <pt x="568" y="0" on="1"/>
        <pt x="484" y="0" on="1"/>
      </contour>
      <contour>
        <pt x="183" y="800" on="1"/>
        <pt x="294" y="934" on="1"/>
        <pt x="386" y="934" on="1"/>
        <pt x="486" y="800" on="1"/>
        <pt x="401" y="800" on="1"/>
        <pt x="338" y="864" on="1"/>
        <pt x="269" y="800" on="1"/>
      </contour>
    </TTGlyph>
    <TTGlyph name="Gcommaaccent" xMin="46" yMin="-273" xMax="569" yMax="740">
      <contour>
        <pt x="454" y="49" on="1"/>
        <pt x="384" y="-5" on="0"/>
        <pt x="275" y="-5" on="1"/>
        <pt x="166" y="-5" on="0"/>
        <pt x="111" y="63" on="1"/>
        <pt x="63" y="124" on="0"/>
        <pt x="51" y="249" on="1"/>
        <pt x="47" y="300" on="0"/>
        <pt x="47" y="437" on="0"/>
        <pt x="57" y="540" on="0"/>
        <pt x="88" y="639" on="0"/>
        <pt x="114" y="670" on="1"/>
        <pt x="171" y="740" on="0"/>
        <pt x="284" y="740" on="1"/>
        <pt x="423" y="740" on="0"/>
        <pt x="555" y="710" on="1"/>
        <pt x="555" y="619" on="1"/>
        <pt x="554" y="619" on="0"/>
        <pt x="521" y="622" on="0"/>
        <pt x="469" y="627" on="0"/>
        <pt x="439" y="629" on="1"/>
        <pt x="365" y="634" on="0"/>
        <pt x="305" y="634" on="1"/>
        <pt x="219" y="634" on="0"/>
        <pt x="163" y="516" on="0"/>
        <pt x="163" y="215" on="0"/>
        <pt x="191" y="161" on="1"/>
        <pt x="220" y="105" on="0"/>
        <pt x="304" y="105" on="1"/>
        <pt x="370" y="105" on="0"/>
        <pt x="452" y="151" on="1"/>
        <pt x="452" y="307" on="1"/>
        <pt x="326" y="307" on="1"/>
        <pt x="326" y="382" on="1"/>
        <pt x="393" y="406" on="0"/>
        <pt x="500" y="406" on="1"/>
        <pt x="532" y="406" on="0"/>
        <pt x="568" y="404" on="1"/>
        <pt x="568" y="0" on="1"/>
        <pt x="484" y="0" on="1"/>
      </contour>
      <contour>
        <pt x="371" y="-200" on="1"/>
        <pt x="371" y="-273" on="0"/>
        <pt x="291" y="-273" on="1"/>
        <pt x="283" y="-273" on="0"/>
        <pt x="277" y="-272" on="1"/>
        <pt x="266" y="-270" on="1"/>
        <pt x="266" y="-231" on="1"/>
        <pt x="279" y="-232" on="0"/>
        <pt x="285" y="-227" on="1"/>
        <pt x="294" y="-221" on="0"/>
        <pt x="294" y="-206" on="1"/>
        <pt x="294" y="-190" on="1"/>
        <pt x="284" y="-190" on="1"/>
        <pt x="262" y="-190" on="0"/>
        <pt x="262" y="-168" on="1"/>
        <pt x="262" y="-100" on="1"/>
        <pt x="262" y="-76" on="0"/>
        <pt x="284" y="-76" on="1"/>
        <pt x="349" y="-76" on="1"/>
        <pt x="371" y="-76" on="0"/>
        <pt x="371" y="-100" on="1"/>
      </contour>
    </TTGlyph>
    <TTGlyph name="Gdotaccent" xMin="46" yMin="-6" xMax="569" yMax="916">
      <contour>
        <pt x="454" y="49" on="1"/>
        <pt x="384" y="-5" on="0"/>
        <pt x="275" y="-5" on="1"/>
        <pt x="166" y="-5" on="0"/>
        <pt x="111" y="63" on="1"/>
        <pt x="63" y="124" on="0"/>
        <pt x="51" y="249" on="1"/>
        <pt x="47" y="300" on="0"/>
        <pt x="47" y="437" on="0"/>
        <pt x="57" y="540" on="0"/>
        <pt x="88" y="639" on="0"/>
        <pt x="114" y="670" on="1"/>
        <pt x="171" y="740" on="0"/>
        <pt x="284" y="740" on="1"/>
        <pt x="423" y="740" on="0"/>
        <pt x="555" y="710" on="1"/>
        <pt x="555" y="619" on="1"/>
        <pt x="554" y="619" on="0"/>
        <pt x="521" y="622" on="0"/>
        <pt x="469" y="627" on="0"/>
        <pt x="439" y="629" on="1"/>
        <pt x="365" y="634" on="0"/>
        <pt x="305" y="634" on="1"/>
        <pt x="219" y="634" on="0"/>
        <pt x="163" y="516" on="0"/>
        <pt x="163" y="215" on="0"/>
        <pt x="191" y="161" on="1"/>
        <pt x="220" y="105" on="0"/>
        <pt x="304" y="105" on="1"/>
        <pt x="370" y="105" on="0"/>
        <pt x="452" y="151" on="1"/>
        <pt x="452" y="307" on="1"/>
        <pt x="326" y="307" on="1"/>
        <pt x="326" y="382" on="1"/>
        <pt x="393" y="406" on="0"/>
        <pt x="500" y="406" on="1"/>
        <pt x="532" y="406" on="0"/>
        <pt x="568" y="404" on="1"/>
        <pt x="568" y="0" on="1"/>
        <pt x="484" y="0" on="1"/>
      </contour>
      <contour>
        <pt x="271" y="823" on="1"/>
        <pt x="271" y="891" on="1"/>
        <pt x="271" y="916" on="0"/>
        <pt x="295" y="916" on="1"/>
        <pt x="359" y="916" on="1"/>
        <pt x="370" y="916" on="0"/>
        <pt x="382" y="902" on="0"/>
        <pt x="382" y="891" on="1"/>
        <pt x="382" y="823" on="1"/>
        <pt x="382" y="800" on="0"/>
        <pt x="359" y="800" on="1"/>
        <pt x="295" y="800" on="1"/>
        <pt x="284" y="800" on="0"/>
        <pt x="271" y="813" on="0"/>
      </contour>
    </TTGlyph>
    <TTGlyph name="H" xMin="67" yMin="0" xMax="587" yMax="732">
      <contour>
        <pt x="68" y="0" on="1"/>
        <pt x="68" y="732" on="1"/>
        <pt x="184" y="732" on="1"/>
        <pt x="184" y="408" on="1"/>
        <pt x="471" y="408" on="1"/>
        <pt x="471" y="732" on="1"/>
        <pt x="587" y="732" on="1"/>
        <pt x="587" y="0" on="1"/>
        <pt x="471" y="0" on="1"/>
        <pt x="471" y="300" on="1"/>
        <pt x="184" y="300" on="1"/>
        <pt x="184" y="0" on="1"/>
      </contour>
    </TTGlyph>
    <TTGlyph name="Hbar" xMin="16" yMin="0" xMax="659" yMax="732">
      <contour>
        <pt x="16" y="516" on="1"/>
        <pt x="16" y="577" on="1"/>
        <pt x="79" y="577" on="1"/>
        <pt x="79" y="732" on="1"/>
        <pt x="195" y="732" on="1"/>
        <pt x="195" y="577" on="1"/>
        <pt x="482" y="577" on="1"/>
        <pt x="482" y="732" on="1"/>
        <pt x="598" y="732" on="1"/>
        <pt x="598" y="577" on="1"/>
        <pt x="659" y="577" on="1"/>
        <pt x="659" y="516" on="1"/>
        <pt x="598" y="516" on="1"/>
        <pt x="598" y="0" on="1"/>
        <pt x="482" y="0" on="1"/>
        <pt x="482" y="300" on="1"/>
        <pt x="195" y="300" on="1"/>
        <pt x="195" y="0" on="1"/>
        <pt x="79" y="0" on="1"/>
        <pt x="79" y="516" on="1"/>
      </contour>
      <contour>
        <pt x="195" y="408" on="1"/>
        <pt x="482" y="408" on="1"/>
        <pt x="482" y="516" on="1"/>
        <pt x="195" y="516" on="1"/>
      </contour>
    </TTGlyph>
    <TTGlyph name="Hcircumflex" xMin="67" yMin="0" xMax="587" yMax="931">
      <contour>
        <pt x="68" y="0" on="1"/>
        <pt x="68" y="732" on="1"/>
        <pt x="184" y="732" on="1"/>
        <pt x="184" y="408" on="1"/>
        <pt x="471" y="408" on="1"/>
        <pt x="471" y="732" on="1"/>
        <pt x="587" y="732" on="1"/>
        <pt x="587" y="0" on="1"/>
        <pt x="471" y="0" on="1"/>
        <pt x="471" y="300" on="1"/>
        <pt x="184" y="300" on="1"/>
        <pt x="184" y="0" on="1"/>
      </contour>
      <contour>
        <pt x="176" y="797" on="1"/>
        <pt x="287" y="930" on="1"/>
        <pt x="379" y="930" on="1"/>
        <pt x="478" y="797" on="1"/>
        <pt x="394" y="797" on="1"/>
        <pt x="330" y="861" on="1"/>
        <pt x="262" y="797" on="1"/>
      </contour>
    </TTGlyph>
    <TTGlyph name="I" xMin="67" yMin="0" xMax="184" yMax="732">
      <contour>
        <pt x="68" y="0" on="1"/>
        <pt x="68" y="732" on="1"/>
        <pt x="184" y="732" on="1"/>
        <pt x="184" y="0" on="1"/>
      </contour>
    </TTGlyph>
    <TTGlyph name="Iacute" xMin="67" yMin="0" xMax="294" yMax="934">
      <contour>
        <pt x="68" y="0" on="1"/>
        <pt x="68" y="732" on="1"/>
        <pt x="184" y="732" on="1"/>
        <pt x="184" y="0" on="1"/>
      </contour>
      <contour>
        <pt x="84" y="797" on="1"/>
        <pt x="181" y="934" on="1"/>
        <pt x="293" y="934" on="1"/>
        <pt x="167" y="797" on="1"/>
      </contour>
    </TTGlyph>
    <TTGlyph name="Icircumflex" xMin="-26" yMin="0" xMax="277" yMax="931">
      <contour>
        <pt x="68" y="0" on="1"/>
        <pt x="68" y="732" on="1"/>
        <pt x="184" y="732" on="1"/>
        <pt x="184" y="0" on="1"/>
      </contour>
      <contour>
        <pt x="-26" y="797" on="1"/>
        <pt x="86" y="930" on="1"/>
        <pt x="178" y="930" on="1"/>
        <pt x="277" y="797" on="1"/>
        <pt x="192" y="797" on="1"/>
        <pt x="129" y="861" on="1"/>
        <pt x="60" y="797" on="1"/>
      </contour>
    </TTGlyph>
    <TTGlyph name="Idieresis" xMin="-58" yMin="0" xMax="309" yMax="909">
      <contour>
        <pt x="68" y="0" on="1"/>
        <pt x="68" y="732" on="1"/>
        <pt x="184" y="732" on="1"/>
        <pt x="184" y="0" on="1"/>
      </contour>
      <contour>
        <pt x="-58" y="830" on="0"/>
        <pt x="-58" y="876" on="0"/>
        <pt x="-24" y="908" on="0"/>
        <pt x="22" y="908" on="0"/>
        <pt x="54" y="876" on="0"/>
        <pt x="54" y="830" on="0"/>
        <pt x="22" y="797" on="0"/>
        <pt x="-24" y="797" on="0"/>
      </contour>
      <contour>
        <pt x="198" y="830" on="0"/>
        <pt x="198" y="876" on="0"/>
        <pt x="231" y="908" on="0"/>
        <pt x="277" y="908" on="0"/>
        <pt x="309" y="876" on="0"/>
        <pt x="309" y="830" on="0"/>
        <pt x="277" y="797" on="0"/>
        <pt x="231" y="797" on="0"/>
      </contour>
    </TTGlyph>
    <TTGlyph name="Idotaccent" xMin="67" yMin="0" xMax="184" yMax="913">
      <contour>
        <pt x="68" y="0" on="1"/>
        <pt x="68" y="732" on="1"/>
        <pt x="184" y="732" on="1"/>
        <pt x="184" y="0" on="1"/>
      </contour>
      <contour>
        <pt x="70" y="820" on="1"/>
        <pt x="70" y="888" on="1"/>
        <pt x="70" y="913" on="0"/>
        <pt x="94" y="913" on="1"/>
        <pt x="158" y="913" on="1"/>
        <pt x="169" y="913" on="0"/>
        <pt x="181" y="899" on="0"/>
        <pt x="181" y="888" on="1"/>
        <pt x="181" y="820" on="1"/>
        <pt x="181" y="797" on="0"/>
        <pt x="158" y="797" on="1"/>
        <pt x="94" y="797" on="1"/>
        <pt x="84" y="797" on="0"/>
        <pt x="70" y="810" on="0"/>
      </contour>
    </TTGlyph>
    <TTGlyph name="Idotaccent.smcp" xMin="49" yMin="0" xMax="166" yMax="753">
      <contour>
        <pt x="49" y="0" on="1"/>
        <pt x="49" y="570" on="1"/>
        <pt x="165" y="570" on="1"/>
        <pt x="165" y="0" on="1"/>
      </contour>
      <contour>
        <pt x="54" y="659" on="1"/>
        <pt x="54" y="727" on="1"/>
        <pt x="54" y="752" on="0"/>
        <pt x="78" y="752" on="1"/>
        <pt x="142" y="752" on="1"/>
        <pt x="153" y="752" on="0"/>
        <pt x="165" y="738" on="0"/>
        <pt x="165" y="727" on="1"/>
        <pt x="165" y="659" on="1"/>
        <pt x="165" y="636" on="0"/>
        <pt x="142" y="636" on="1"/>
        <pt x="78" y="636" on="1"/>
        <pt x="67" y="636" on="0"/>
        <pt x="54" y="649" on="0"/>
      </contour>
    </TTGlyph>
    <TTGlyph name="Igrave" xMin="-42" yMin="0" xMax="184" yMax="934">
      <contour>
        <pt x="68" y="0" on="1"/>
        <pt x="68" y="732" on="1"/>
        <pt x="184" y="732" on="1"/>
        <pt x="184" y="0" on="1"/>
      </contour>
      <contour>
        <pt x="-42" y="934" on="1"/>
        <pt x="71" y="934" on="1"/>
        <pt x="167" y="797" on="1"/>
        <pt x="84" y="797" on="1"/>
      </contour>
    </TTGlyph>
    <TTGlyph name="Imacron" xMin="-21" yMin="0" xMax="272" yMax="871">
      <contour>
        <pt x="68" y="0" on="1"/>
        <pt x="68" y="732" on="1"/>
        <pt x="184" y="732" on="1"/>
        <pt x="184" y="0" on="1"/>
      </contour>
      <contour>
        <pt x="-20" y="797" on="1"/>
        <pt x="-20" y="870" on="1"/>
        <pt x="272" y="870" on="1"/>
        <pt x="272" y="797" on="1"/>
      </contour>
    </TTGlyph>
    <TTGlyph name="Iogonek" xMin="30" yMin="-187" xMax="184" yMax="732">
      <contour>
        <pt x="68" y="0" on="1"/>
        <pt x="68" y="732" on="1"/>
        <pt x="184" y="732" on="1"/>
        <pt x="184" y="0" on="1"/>
      </contour>
      <contour>
        <pt x="156" y="0" on="1"/>
        <pt x="104" y="-40" on="0"/>
        <pt x="104" y="-76" on="1"/>
        <pt x="104" y="-90" on="0"/>
        <pt x="129" y="-114" on="0"/>
        <pt x="160" y="-114" on="1"/>
        <pt x="161" y="-114" on="0"/>
        <pt x="162" y="-114" on="1"/>
        <pt x="162" y="-184" on="1"/>
        <pt x="150" y="-187" on="0"/>
        <pt x="119" y="-187" on="0"/>
        <pt x="70" y="-170" on="0"/>
        <pt x="53" y="-149" on="1"/>
        <pt x="31" y="-119" on="0"/>
        <pt x="31" y="-95" on="1"/>
        <pt x="31" y="-36" on="0"/>
        <pt x="106" y="0" on="1"/>
      </contour>
    </TTGlyph>
    <TTGlyph name="Itilde" xMin="-45" yMin="0" xMax="297" yMax="917">
      <contour>
        <pt x="68" y="0" on="1"/>
        <pt x="68" y="732" on="1"/>
        <pt x="184" y="732" on="1"/>
        <pt x="184" y="0" on="1"/>
      </contour>
      <contour>
        <pt x="184" y="880" on="1"/>
        <pt x="217" y="880" on="0"/>
        <pt x="273" y="917" on="1"/>
        <pt x="296" y="864" on="1"/>
        <pt x="274" y="842" on="0"/>
        <pt x="251" y="822" on="0"/>
        <pt x="204" y="798" on="0"/>
        <pt x="194" y="798" on="1"/>
        <pt x="158" y="798" on="0"/>
        <pt x="90" y="832" on="0"/>
        <pt x="73" y="832" on="1"/>
        <pt x="46" y="832" on="0"/>
        <pt x="16" y="818" on="0"/>
        <pt x="-14" y="801" on="0"/>
        <pt x="-22" y="797" on="1"/>
        <pt x="-45" y="847" on="1"/>
        <pt x="-13" y="879" on="0"/>
        <pt x="44" y="915" on="0"/>
        <pt x="100" y="914" on="0"/>
        <pt x="167" y="880" on="0"/>
        <pt x="183" y="880" on="0"/>
      </contour>
    </TTGlyph>
    <TTGlyph name="J" xMin="29" yMin="-6" xMax="308" yMax="732">
      <contour>
        <pt x="254" y="18" on="1"/>
        <pt x="217" y="-5" on="0"/>
        <pt x="72" y="-5" on="0"/>
        <pt x="30" y="22" on="1"/>
        <pt x="32" y="111" on="1"/>
        <pt x="34" y="111" on="0"/>
        <pt x="59" y="108" on="0"/>
        <pt x="79" y="105" on="0"/>
        <pt x="114" y="103" on="0"/>
        <pt x="132" y="107" on="0"/>
        <pt x="158" y="113" on="0"/>
        <pt x="171" y="129" on="0"/>
        <pt x="178" y="139" on="1"/>
        <pt x="191" y="159" on="0"/>
        <pt x="191" y="204" on="1"/>
        <pt x="191" y="732" on="1"/>
        <pt x="307" y="732" on="1"/>
        <pt x="307" y="165" on="1"/>
        <pt x="307" y="134" on="0"/>
        <pt x="302" y="90" on="0"/>
        <pt x="277" y="33" on="0"/>
      </contour>
    </TTGlyph>
    <TTGlyph name="Jcircumflex" xMin="29" yMin="-6" xMax="401" yMax="931">
      <contour>
        <pt x="254" y="18" on="1"/>
        <pt x="217" y="-5" on="0"/>
        <pt x="72" y="-5" on="0"/>
        <pt x="30" y="22" on="1"/>
        <pt x="32" y="111" on="1"/>
        <pt x="34" y="111" on="0"/>
        <pt x="59" y="108" on="0"/>
        <pt x="79" y="105" on="0"/>
        <pt x="114" y="103" on="0"/>
        <pt x="132" y="107" on="0"/>
        <pt x="158" y="113" on="0"/>
        <pt x="171" y="129" on="0"/>
        <pt x="178" y="139" on="1"/>
        <pt x="191" y="159" on="0"/>
        <pt x="191" y="204" on="1"/>
        <pt x="191" y="732" on="1"/>
        <pt x="307" y="732" on="1"/>
        <pt x="307" y="165" on="1"/>
        <pt x="307" y="134" on="0"/>
        <pt x="302" y="90" on="0"/>
        <pt x="277" y="33" on="0"/>
      </contour>
      <contour>
        <pt x="98" y="797" on="1"/>
        <pt x="209" y="930" on="1"/>
        <pt x="301" y="930" on="1"/>
        <pt x="400" y="797" on="1"/>
        <pt x="315" y="797" on="1"/>
        <pt x="252" y="861" on="1"/>
        <pt x="184" y="797" on="1"/>
      </contour>
    </TTGlyph>
    <TTGlyph name="K" xMin="67" yMin="0" xMax="586" yMax="732">
      <contour>
        <pt x="68" y="0" on="1"/>
        <pt x="68" y="732" on="1"/>
        <pt x="180" y="732" on="1"/>
        <pt x="180" y="418" on="1"/>
        <pt x="248" y="418" on="1"/>
        <pt x="449" y="732" on="1"/>
        <pt x="586" y="732" on="1"/>
        <pt x="352" y="366" on="1"/>
        <pt x="586" y="0" on="1"/>
        <pt x="449" y="0" on="1"/>
        <pt x="248" y="312" on="1"/>
        <pt x="181" y="312" on="1"/>
        <pt x="181" y="0" on="1"/>
      </contour>
    </TTGlyph>
    <TTGlyph name="Kcommaaccent" xMin="67" yMin="-268" xMax="586" yMax="732">
      <contour>
        <pt x="68" y="0" on="1"/>
        <pt x="68" y="732" on="1"/>
        <pt x="180" y="732" on="1"/>
        <pt x="180" y="418" on="1"/>
        <pt x="248" y="418" on="1"/>
        <pt x="449" y="732" on="1"/>
        <pt x="586" y="732" on="1"/>
        <pt x="352" y="366" on="1"/>
        <pt x="586" y="0" on="1"/>
        <pt x="449" y="0" on="1"/>
        <pt x="248" y="312" on="1"/>
        <pt x="181" y="312" on="1"/>
        <pt x="181" y="0" on="1"/>
      </contour>
      <contour>
        <pt x="365" y="-195" on="1"/>
        <pt x="365" y="-268" on="0"/>
        <pt x="285" y="-268" on="1"/>
        <pt x="277" y="-268" on="0"/>
        <pt x="271" y="-267" on="1"/>
        <pt x="260" y="-264" on="1"/>
        <pt x="260" y="-226" on="1"/>
        <pt x="286" y="-227" on="0"/>
        <pt x="288" y="-208" on="1"/>
        <pt x="288" y="-205" on="0"/>
        <pt x="288" y="-202" on="1"/>
        <pt x="288" y="-185" on="1"/>
        <pt x="278" y="-185" on="1"/>
        <pt x="256" y="-185" on="0"/>
        <pt x="256" y="-163" on="1"/>
        <pt x="256" y="-95" on="1"/>
        <pt x="256" y="-71" on="0"/>
        <pt x="278" y="-71" on="1"/>
        <pt x="343" y="-71" on="1"/>
        <pt x="365" y="-71" on="0"/>
        <pt x="365" y="-95" on="1"/>
      </contour>
    </TTGlyph>
    <TTGlyph name="L" xMin="67" yMin="0" xMax="517" yMax="732">
      <contour>
        <pt x="68" y="136" on="1"/>
        <pt x="68" y="732" on="1"/>
        <pt x="184" y="732" on="1"/>
        <pt x="184" y="161" on="1"/>
        <pt x="184" y="123" on="0"/>
        <pt x="205" y="115" on="1"/>
        <pt x="220" y="109" on="0"/>
        <pt x="246" y="109" on="1"/>
        <pt x="517" y="109" on="1"/>
        <pt x="517" y="0" on="1"/>
        <pt x="214" y="0" on="1"/>
        <pt x="108" y="0" on="0"/>
        <pt x="80" y="68" on="1"/>
        <pt x="68" y="96" on="0"/>
      </contour>
    </TTGlyph>
    <TTGlyph name="Lacute" xMin="67" yMin="0" xMax="517" yMax="934">
      <contour>
        <pt x="68" y="136" on="1"/>
        <pt x="68" y="732" on="1"/>
        <pt x="184" y="732" on="1"/>
        <pt x="184" y="161" on="1"/>
        <pt x="184" y="123" on="0"/>
        <pt x="205" y="115" on="1"/>
        <pt x="220" y="109" on="0"/>
        <pt x="246" y="109" on="1"/>
        <pt x="517" y="109" on="1"/>
        <pt x="517" y="0" on="1"/>
        <pt x="214" y="0" on="1"/>
        <pt x="108" y="0" on="0"/>
        <pt x="80" y="68" on="1"/>
        <pt x="68" y="96" on="0"/>
      </contour>
      <contour>
        <pt x="84" y="797" on="1"/>
        <pt x="181" y="934" on="1"/>
        <pt x="293" y="934" on="1"/>
        <pt x="167" y="797" on="1"/>
      </contour>
    </TTGlyph>
    <TTGlyph name="Lcaron" xMin="67" yMin="0" xMax="517" yMax="772">
      <contour>
        <pt x="68" y="136" on="1"/>
        <pt x="68" y="732" on="1"/>
        <pt x="184" y="732" on="1"/>
        <pt x="184" y="161" on="1"/>
        <pt x="184" y="123" on="0"/>
        <pt x="205" y="115" on="1"/>
        <pt x="220" y="109" on="0"/>
        <pt x="246" y="109" on="1"/>
        <pt x="517" y="109" on="1"/>
        <pt x="517" y="0" on="1"/>
        <pt x="214" y="0" on="1"/>
        <pt x="108" y="0" on="0"/>
        <pt x="80" y="68" on="1"/>
        <pt x="68" y="96" on="0"/>
      </contour>
      <contour>
        <pt x="251" y="772" on="1"/>
        <pt x="339" y="772" on="1"/>
        <pt x="339" y="705" on="1"/>
        <pt x="329" y="571" on="1"/>
        <pt x="262" y="571" on="1"/>
        <pt x="251" y="705" on="1"/>
      </contour>
    </TTGlyph>
    <TTGlyph name="Lcommaaccent" xMin="67" yMin="-267" xMax="517" yMax="732">
      <contour>
        <pt x="68" y="136" on="1"/>
        <pt x="68" y="732" on="1"/>
        <pt x="184" y="732" on="1"/>
        <pt x="184" y="161" on="1"/>
        <pt x="184" y="123" on="0"/>
        <pt x="205" y="115" on="1"/>
        <pt x="220" y="109" on="0"/>
        <pt x="246" y="109" on="1"/>
        <pt x="517" y="109" on="1"/>
        <pt x="517" y="0" on="1"/>
        <pt x="214" y="0" on="1"/>
        <pt x="108" y="0" on="0"/>
        <pt x="80" y="68" on="1"/>
        <pt x="68" y="96" on="0"/>
      </contour>
      <contour>
        <pt x="354" y="-193" on="1"/>
        <pt x="354" y="-266" on="0"/>
        <pt x="275" y="-266" on="1"/>
        <pt x="267" y="-266" on="0"/>
        <pt x="260" y="-265" on="1"/>
        <pt x="250" y="-263" on="1"/>
        <pt x="250" y="-224" on="1"/>
        <pt x="262" y="-225" on="0"/>
        <pt x="269" y="-220" on="1"/>
        <pt x="278" y="-214" on="0"/>
        <pt x="278" y="-200" on="1"/>
        <pt x="278" y="-184" on="1"/>
        <pt x="268" y="-184" on="1"/>
        <pt x="245" y="-184" on="0"/>
        <pt x="245" y="-161" on="1"/>
        <pt x="245" y="-94" on="1"/>
        <pt x="245" y="-69" on="0"/>
        <pt x="268" y="-69" on="1"/>
        <pt x="332" y="-69" on="1"/>
        <pt x="354" y="-69" on="0"/>
        <pt x="354" y="-94" on="1"/>
      </contour>
    </TTGlyph>
    <TTGlyph name="Lslash" xMin="7" yMin="0" xMax="537" yMax="732">
      <contour>
        <pt x="88" y="732" on="1"/>
        <pt x="204" y="732" on="1"/>
        <pt x="204" y="463" on="1"/>
        <pt x="326" y="515" on="1"/>
        <pt x="326" y="448" on="1"/>
        <pt x="204" y="395" on="1"/>
        <pt x="204" y="161" on="1"/>
        <pt x="204" y="123" on="0"/>
        <pt x="225" y="115" on="1"/>
        <pt x="240" y="109" on="0"/>
        <pt x="266" y="109" on="1"/>
        <pt x="537" y="109" on="1"/>
        <pt x="537" y="0" on="1"/>
        <pt x="234" y="0" on="1"/>
        <pt x="128" y="0" on="0"/>
        <pt x="100" y="68" on="1"/>
        <pt x="88" y="96" on="0"/>
        <pt x="88" y="136" on="1"/>
        <pt x="88" y="345" on="1"/>
        <pt x="8" y="311" on="1"/>
        <pt x="8" y="379" on="1"/>
        <pt x="88" y="413" on="1"/>
      </contour>
    </TTGlyph>
    <TTGlyph name="M" xMin="46" yMin="0" xMax="785" yMax="732">
      <contour>
        <pt x="47" y="0" on="1"/>
        <pt x="105" y="732" on="1"/>
        <pt x="266" y="732" on="1"/>
        <pt x="414" y="192" on="1"/>
        <pt x="560" y="732" on="1"/>
        <pt x="720" y="732" on="1"/>
        <pt x="784" y="0" on="1"/>
        <pt x="670" y="0" on="1"/>
        <pt x="623" y="528" on="1"/>
        <pt x="479" y="0" on="1"/>
        <pt x="352" y="0" on="1"/>
        <pt x="204" y="528" on="1"/>
        <pt x="162" y="0" on="1"/>
      </contour>
    </TTGlyph>
    <TTGlyph name="M.salt" xMin="46" yMin="0" xMax="792" yMax="737">
      <contour>
        <pt x="84" y="671" on="0"/>
        <pt x="130" y="724" on="0"/>
        <pt x="185" y="736" on="0"/>
        <pt x="202" y="736" on="1"/>
        <pt x="259" y="736" on="0"/>
        <pt x="318" y="681" on="0"/>
        <pt x="323" y="644" on="1"/>
        <pt x="404" y="295" on="1"/>
        <pt x="407" y="281" on="0"/>
        <pt x="428" y="282" on="0"/>
        <pt x="430" y="295" on="1"/>
        <pt x="503" y="646" on="1"/>
        <pt x="508" y="683" on="0"/>
        <pt x="535" y="707" on="1"/>
        <pt x="568" y="737" on="0"/>
        <pt x="622" y="737" on="1"/>
        <pt x="643" y="737" on="0"/>
        <pt x="699" y="725" on="0"/>
        <pt x="746" y="674" on="0"/>
        <pt x="747" y="638" on="1"/>
        <pt x="792" y="0" on="1"/>
        <pt x="675" y="0" on="1"/>
        <pt x="635" y="594" on="1"/>
        <pt x="635" y="607" on="0"/>
        <pt x="610" y="609" on="0"/>
        <pt x="608" y="597" on="1"/>
        <pt x="535" y="252" on="1"/>
        <pt x="530" y="223" on="0"/>
        <pt x="482" y="182" on="0"/>
        <pt x="435" y="175" on="0"/>
        <pt x="403" y="175" on="0"/>
        <pt x="356" y="182" on="0"/>
        <pt x="308" y="223" on="0"/>
        <pt x="302" y="254" on="1"/>
        <pt x="220" y="600" on="1"/>
        <pt x="218" y="608" on="0"/>
        <pt x="206" y="611" on="0"/>
        <pt x="194" y="601" on="0"/>
        <pt x="194" y="593" on="1"/>
        <pt x="162" y="0" on="1"/>
        <pt x="47" y="0" on="1"/>
        <pt x="83" y="634" on="1"/>
      </contour>
    </TTGlyph>
    <TTGlyph name="N" xMin="67" yMin="0" xMax="629" yMax="732">
      <contour>
        <pt x="68" y="0" on="1"/>
        <pt x="68" y="732" on="1"/>
        <pt x="186" y="732" on="1"/>
        <pt x="512" y="215" on="1"/>
        <pt x="512" y="732" on="1"/>
        <pt x="628" y="732" on="1"/>
        <pt x="628" y="0" on="1"/>
        <pt x="512" y="0" on="1"/>
        <pt x="185" y="514" on="1"/>
        <pt x="185" y="0" on="1"/>
      </contour>
    </TTGlyph>
    <TTGlyph name="N.salt" xMin="67" yMin="-6" xMax="652" yMax="738">
      <contour>
        <pt x="68" y="0" on="1"/>
        <pt x="68" y="623" on="1"/>
        <pt x="68" y="665" on="0"/>
        <pt x="113" y="723" on="0"/>
        <pt x="171" y="738" on="0"/>
        <pt x="205" y="738" on="0"/>
        <pt x="216" y="737" on="1"/>
        <pt x="252" y="733" on="0"/>
        <pt x="310" y="686" on="0"/>
        <pt x="319" y="650" on="1"/>
        <pt x="512" y="118" on="1"/>
        <pt x="516" y="104" on="0"/>
        <pt x="536" y="109" on="0"/>
        <pt x="536" y="121" on="1"/>
        <pt x="536" y="732" on="1"/>
        <pt x="652" y="732" on="1"/>
        <pt x="652" y="109" on="1"/>
        <pt x="652" y="71" on="0"/>
        <pt x="629" y="43" on="1"/>
        <pt x="592" y="-5" on="0"/>
        <pt x="518" y="-5" on="1"/>
        <pt x="475" y="-5" on="0"/>
        <pt x="414" y="45" on="0"/>
        <pt x="404" y="85" on="1"/>
        <pt x="210" y="623" on="1"/>
        <pt x="206" y="634" on="0"/>
        <pt x="185" y="629" on="0"/>
        <pt x="185" y="616" on="1"/>
        <pt x="185" y="0" on="1"/>
      </contour>
    </TTGlyph>
    <TTGlyph name="Nacute" xMin="67" yMin="0" xMax="629" yMax="934">
      <contour>
        <pt x="68" y="0" on="1"/>
        <pt x="68" y="732" on="1"/>
        <pt x="186" y="732" on="1"/>
        <pt x="512" y="215" on="1"/>
        <pt x="512" y="732" on="1"/>
        <pt x="628" y="732" on="1"/>
        <pt x="628" y="0" on="1"/>
        <pt x="512" y="0" on="1"/>
        <pt x="185" y="514" on="1"/>
        <pt x="185" y="0" on="1"/>
      </contour>
      <contour>
        <pt x="313" y="797" on="1"/>
        <pt x="410" y="934" on="1"/>
        <pt x="522" y="934" on="1"/>
        <pt x="396" y="797" on="1"/>
      </contour>
    </TTGlyph>
    <TTGlyph name="Nacute.salt" xMin="67" yMin="-6" xMax="652" yMax="935">
      <contour>
        <pt x="68" y="0" on="1"/>
        <pt x="68" y="623" on="1"/>
        <pt x="68" y="665" on="0"/>
        <pt x="113" y="723" on="0"/>
        <pt x="171" y="738" on="0"/>
        <pt x="205" y="738" on="0"/>
        <pt x="216" y="737" on="1"/>
        <pt x="252" y="733" on="0"/>
        <pt x="310" y="686" on="0"/>
        <pt x="319" y="650" on="1"/>
        <pt x="512" y="118" on="1"/>
        <pt x="516" y="104" on="0"/>
        <pt x="536" y="109" on="0"/>
        <pt x="536" y="121" on="1"/>
        <pt x="536" y="732" on="1"/>
        <pt x="652" y="732" on="1"/>
        <pt x="652" y="109" on="1"/>
        <pt x="652" y="71" on="0"/>
        <pt x="629" y="43" on="1"/>
        <pt x="592" y="-5" on="0"/>
        <pt x="518" y="-5" on="1"/>
        <pt x="475" y="-5" on="0"/>
        <pt x="414" y="45" on="0"/>
        <pt x="404" y="85" on="1"/>
        <pt x="210" y="623" on="1"/>
        <pt x="206" y="634" on="0"/>
        <pt x="185" y="629" on="0"/>
        <pt x="185" y="616" on="1"/>
        <pt x="185" y="0" on="1"/>
      </contour>
      <contour>
        <pt x="324" y="798" on="1"/>
        <pt x="421" y="935" on="1"/>
        <pt x="533" y="935" on="1"/>
        <pt x="407" y="798" on="1"/>
      </contour>
    </TTGlyph>
    <TTGlyph name="Ncaron" xMin="67" yMin="0" xMax="629" yMax="931">
      <contour>
        <pt x="68" y="0" on="1"/>
        <pt x="68" y="732" on="1"/>
        <pt x="186" y="732" on="1"/>
        <pt x="512" y="215" on="1"/>
        <pt x="512" y="732" on="1"/>
        <pt x="628" y="732" on="1"/>
        <pt x="628" y="0" on="1"/>
        <pt x="512" y="0" on="1"/>
        <pt x="185" y="514" on="1"/>
        <pt x="185" y="0" on="1"/>
      </contour>
      <contour>
        <pt x="203" y="930" on="1"/>
        <pt x="289" y="930" on="1"/>
        <pt x="358" y="866" on="1"/>
        <pt x="420" y="930" on="1"/>
        <pt x="506" y="930" on="1"/>
        <pt x="403" y="797" on="1"/>
        <pt x="311" y="797" on="1"/>
      </contour>
    </TTGlyph>
    <TTGlyph name="Ncaron.salt" xMin="67" yMin="-6" xMax="652" yMax="932">
      <contour>
        <pt x="68" y="0" on="1"/>
        <pt x="68" y="623" on="1"/>
        <pt x="68" y="665" on="0"/>
        <pt x="113" y="723" on="0"/>
        <pt x="171" y="738" on="0"/>
        <pt x="205" y="738" on="0"/>
        <pt x="216" y="737" on="1"/>
        <pt x="252" y="733" on="0"/>
        <pt x="310" y="686" on="0"/>
        <pt x="319" y="650" on="1"/>
        <pt x="512" y="118" on="1"/>
        <pt x="516" y="104" on="0"/>
        <pt x="536" y="109" on="0"/>
        <pt x="536" y="121" on="1"/>
        <pt x="536" y="732" on="1"/>
        <pt x="652" y="732" on="1"/>
        <pt x="652" y="109" on="1"/>
        <pt x="652" y="71" on="0"/>
        <pt x="629" y="43" on="1"/>
        <pt x="592" y="-5" on="0"/>
        <pt x="518" y="-5" on="1"/>
        <pt x="475" y="-5" on="0"/>
        <pt x="414" y="45" on="0"/>
        <pt x="404" y="85" on="1"/>
        <pt x="210" y="623" on="1"/>
        <pt x="206" y="634" on="0"/>
        <pt x="185" y="629" on="0"/>
        <pt x="185" y="616" on="1"/>
        <pt x="185" y="0" on="1"/>
      </contour>
      <contour>
        <pt x="221" y="932" on="1"/>
        <pt x="306" y="932" on="1"/>
        <pt x="375" y="868" on="1"/>
        <pt x="438" y="932" on="1"/>
        <pt x="523" y="932" on="1"/>
        <pt x="420" y="798" on="1"/>
        <pt x="328" y="798" on="1"/>
      </contour>
    </TTGlyph>
    <TTGlyph name="Ncommaaccent" xMin="67" yMin="-268" xMax="629" yMax="732">
      <contour>
        <pt x="68" y="0" on="1"/>
        <pt x="68" y="732" on="1"/>
        <pt x="186" y="732" on="1"/>
        <pt x="512" y="215" on="1"/>
        <pt x="512" y="732" on="1"/>
        <pt x="628" y="732" on="1"/>
        <pt x="628" y="0" on="1"/>
        <pt x="512" y="0" on="1"/>
        <pt x="185" y="514" on="1"/>
        <pt x="185" y="0" on="1"/>
      </contour>
      <contour>
        <pt x="400" y="-195" on="1"/>
        <pt x="400" y="-268" on="0"/>
        <pt x="321" y="-268" on="1"/>
        <pt x="313" y="-268" on="0"/>
        <pt x="306" y="-267" on="1"/>
        <pt x="296" y="-264" on="1"/>
        <pt x="296" y="-226" on="1"/>
        <pt x="308" y="-227" on="0"/>
        <pt x="315" y="-222" on="1"/>
        <pt x="323" y="-216" on="0"/>
        <pt x="323" y="-202" on="1"/>
        <pt x="323" y="-185" on="1"/>
        <pt x="314" y="-185" on="1"/>
        <pt x="291" y="-185" on="0"/>
        <pt x="291" y="-163" on="1"/>
        <pt x="291" y="-95" on="1"/>
        <pt x="291" y="-71" on="0"/>
        <pt x="314" y="-71" on="1"/>
        <pt x="378" y="-71" on="1"/>
        <pt x="400" y="-71" on="0"/>
        <pt x="400" y="-95" on="1"/>
      </contour>
    </TTGlyph>
    <TTGlyph name="Ncommaaccent.salt" xMin="67" yMin="-275" xMax="652" yMax="738">
      <contour>
        <pt x="68" y="0" on="1"/>
        <pt x="68" y="623" on="1"/>
        <pt x="68" y="665" on="0"/>
        <pt x="113" y="723" on="0"/>
        <pt x="171" y="738" on="0"/>
        <pt x="205" y="738" on="0"/>
        <pt x="216" y="737" on="1"/>
        <pt x="252" y="733" on="0"/>
        <pt x="310" y="686" on="0"/>
        <pt x="319" y="650" on="1"/>
        <pt x="512" y="118" on="1"/>
        <pt x="516" y="104" on="0"/>
        <pt x="536" y="109" on="0"/>
        <pt x="536" y="121" on="1"/>
        <pt x="536" y="732" on="1"/>
        <pt x="652" y="732" on="1"/>
        <pt x="652" y="109" on="1"/>
        <pt x="652" y="71" on="0"/>
        <pt x="629" y="43" on="1"/>
        <pt x="592" y="-5" on="0"/>
        <pt x="518" y="-5" on="1"/>
        <pt x="475" y="-5" on="0"/>
        <pt x="414" y="45" on="0"/>
        <pt x="404" y="85" on="1"/>
        <pt x="210" y="623" on="1"/>
        <pt x="206" y="634" on="0"/>
        <pt x="185" y="629" on="0"/>
        <pt x="185" y="616" on="1"/>
        <pt x="185" y="0" on="1"/>
      </contour>
      <contour>
        <pt x="403" y="-202" on="1"/>
        <pt x="403" y="-274" on="0"/>
        <pt x="324" y="-274" on="1"/>
        <pt x="316" y="-274" on="0"/>
        <pt x="309" y="-273" on="1"/>
        <pt x="298" y="-271" on="1"/>
        <pt x="298" y="-233" on="1"/>
        <pt x="311" y="-233" on="0"/>
        <pt x="317" y="-228" on="1"/>
        <pt x="326" y="-222" on="0"/>
        <pt x="326" y="-208" on="1"/>
        <pt x="326" y="-192" on="1"/>
        <pt x="316" y="-192" on="1"/>
        <pt x="294" y="-192" on="0"/>
        <pt x="294" y="-169" on="1"/>
        <pt x="294" y="-102" on="1"/>
        <pt x="294" y="-77" on="0"/>
        <pt x="316" y="-77" on="1"/>
        <pt x="381" y="-77" on="1"/>
        <pt x="403" y="-77" on="0"/>
        <pt x="403" y="-102" on="1"/>
      </contour>
    </TTGlyph>
    <TTGlyph name="Ntilde" xMin="67" yMin="0" xMax="629" yMax="917">
      <contour>
        <pt x="68" y="0" on="1"/>
        <pt x="68" y="732" on="1"/>
        <pt x="186" y="732" on="1"/>
        <pt x="512" y="215" on="1"/>
        <pt x="512" y="732" on="1"/>
        <pt x="628" y="732" on="1"/>
        <pt x="628" y="0" on="1"/>
        <pt x="512" y="0" on="1"/>
        <pt x="185" y="514" on="1"/>
        <pt x="185" y="0" on="1"/>
      </contour>
      <contour>
        <pt x="406" y="880" on="1"/>
        <pt x="440" y="880" on="0"/>
        <pt x="495" y="917" on="1"/>
        <pt x="519" y="864" on="1"/>
        <pt x="496" y="842" on="0"/>
        <pt x="473" y="822" on="0"/>
        <pt x="427" y="798" on="0"/>
        <pt x="416" y="798" on="1"/>
        <pt x="380" y="798" on="0"/>
        <pt x="313" y="832" on="0"/>
        <pt x="295" y="832" on="1"/>
        <pt x="268" y="832" on="0"/>
        <pt x="238" y="818" on="0"/>
        <pt x="209" y="801" on="0"/>
        <pt x="200" y="797" on="1"/>
        <pt x="177" y="847" on="1"/>
        <pt x="210" y="879" on="0"/>
        <pt x="266" y="915" on="0"/>
        <pt x="323" y="914" on="0"/>
        <pt x="389" y="880" on="0"/>
        <pt x="405" y="880" on="0"/>
      </contour>
    </TTGlyph>
    <TTGlyph name="Ntilde.salt" xMin="67" yMin="-6" xMax="652" yMax="919">
      <contour>
        <pt x="68" y="0" on="1"/>
        <pt x="68" y="623" on="1"/>
        <pt x="68" y="665" on="0"/>
        <pt x="113" y="723" on="0"/>
        <pt x="171" y="738" on="0"/>
        <pt x="205" y="738" on="0"/>
        <pt x="216" y="737" on="1"/>
        <pt x="252" y="733" on="0"/>
        <pt x="310" y="686" on="0"/>
        <pt x="319" y="650" on="1"/>
        <pt x="512" y="118" on="1"/>
        <pt x="516" y="104" on="0"/>
        <pt x="536" y="109" on="0"/>
        <pt x="536" y="121" on="1"/>
        <pt x="536" y="732" on="1"/>
        <pt x="652" y="732" on="1"/>
        <pt x="652" y="109" on="1"/>
        <pt x="652" y="71" on="0"/>
        <pt x="629" y="43" on="1"/>
        <pt x="592" y="-5" on="0"/>
        <pt x="518" y="-5" on="1"/>
        <pt x="475" y="-5" on="0"/>
        <pt x="414" y="45" on="0"/>
        <pt x="404" y="85" on="1"/>
        <pt x="210" y="623" on="1"/>
        <pt x="206" y="634" on="0"/>
        <pt x="185" y="629" on="0"/>
        <pt x="185" y="616" on="1"/>
        <pt x="185" y="0" on="1"/>
      </contour>
      <contour>
        <pt x="428" y="881" on="1"/>
        <pt x="462" y="881" on="0"/>
        <pt x="517" y="918" on="1"/>
        <pt x="541" y="865" on="1"/>
        <pt x="487" y="814" on="0"/>
        <pt x="458" y="804" on="1"/>
        <pt x="444" y="799" on="0"/>
        <pt x="436" y="799" on="1"/>
        <pt x="402" y="799" on="0"/>
        <pt x="335" y="833" on="0"/>
        <pt x="317" y="833" on="1"/>
        <pt x="290" y="833" on="0"/>
        <pt x="260" y="819" on="0"/>
        <pt x="231" y="802" on="0"/>
        <pt x="222" y="798" on="1"/>
        <pt x="199" y="848" on="1"/>
        <pt x="232" y="880" on="0"/>
        <pt x="288" y="916" on="0"/>
        <pt x="345" y="915" on="0"/>
        <pt x="411" y="881" on="0"/>
        <pt x="427" y="881" on="0"/>
      </contour>
    </TTGlyph>
    <TTGlyph name="O" xMin="55" yMin="-2" xMax="636" yMax="737">
      <contour>
        <pt x="65" y="200" on="0"/>
        <pt x="55" y="299" on="0"/>
        <pt x="55" y="433" on="0"/>
        <pt x="70" y="546" on="0"/>
        <pt x="96" y="625" on="0"/>
        <pt x="138" y="681" on="0"/>
        <pt x="183" y="713" on="0"/>
        <pt x="215" y="722" on="1"/>
        <pt x="267" y="737" on="0"/>
        <pt x="387" y="737" on="0"/>
        <pt x="446" y="731" on="0"/>
        <pt x="511" y="713" on="0"/>
        <pt x="555" y="681" on="0"/>
        <pt x="596" y="625" on="0"/>
        <pt x="608" y="586" on="1"/>
        <pt x="635" y="499" on="0"/>
        <pt x="635" y="361" on="1"/>
        <pt x="635" y="160" on="0"/>
        <pt x="578" y="82" on="1"/>
        <pt x="539" y="29" on="0"/>
        <pt x="482" y="12" on="1"/>
        <pt x="404" y="-11" on="0"/>
        <pt x="281" y="-2" on="1"/>
        <pt x="211" y="3" on="0"/>
        <pt x="154" y="35" on="0"/>
        <pt x="113" y="72" on="0"/>
        <pt x="86" y="127" on="0"/>
      </contour>
      <contour>
        <pt x="176" y="472" on="0"/>
        <pt x="171" y="404" on="0"/>
        <pt x="171" y="313" on="0"/>
        <pt x="176" y="242" on="0"/>
        <pt x="187" y="186" on="0"/>
        <pt x="207" y="149" on="0"/>
        <pt x="232" y="124" on="0"/>
        <pt x="251" y="117" on="1"/>
        <pt x="287" y="105" on="0"/>
        <pt x="398" y="105" on="0"/>
        <pt x="460" y="124" on="0"/>
        <pt x="503" y="180" on="0"/>
        <pt x="519" y="279" on="0"/>
        <pt x="519" y="409" on="0"/>
        <pt x="515" y="482" on="0"/>
        <pt x="503" y="537" on="0"/>
        <pt x="490" y="577" on="0"/>
        <pt x="465" y="603" on="0"/>
        <pt x="442" y="618" on="0"/>
        <pt x="423" y="622" on="1"/>
        <pt x="394" y="628" on="0"/>
        <pt x="323" y="628" on="0"/>
        <pt x="295" y="627" on="0"/>
        <pt x="259" y="621" on="0"/>
        <pt x="238" y="611" on="0"/>
        <pt x="212" y="592" on="0"/>
        <pt x="198" y="564" on="0"/>
        <pt x="183" y="525" on="0"/>
      </contour>
    </TTGlyph>
    <TTGlyph name="OE" xMin="55" yMin="-4" xMax="980" yMax="738">
      <contour>
        <pt x="174" y="462" on="0"/>
        <pt x="171" y="399" on="0"/>
        <pt x="171" y="293" on="0"/>
        <pt x="182" y="206" on="0"/>
        <pt x="203" y="146" on="0"/>
        <pt x="225" y="131" on="1"/>
        <pt x="264" y="105" on="0"/>
        <pt x="345" y="105" on="1"/>
        <pt x="424" y="105" on="0"/>
        <pt x="463" y="133" on="1"/>
        <pt x="519" y="173" on="0"/>
        <pt x="519" y="361" on="1"/>
        <pt x="519" y="461" on="0"/>
        <pt x="503" y="537" on="0"/>
        <pt x="489" y="577" on="0"/>
        <pt x="465" y="603" on="0"/>
        <pt x="442" y="618" on="0"/>
        <pt x="423" y="622" on="1"/>
        <pt x="393" y="628" on="0"/>
        <pt x="325" y="628" on="0"/>
        <pt x="299" y="627" on="0"/>
        <pt x="266" y="623" on="0"/>
        <pt x="246" y="615" on="0"/>
        <pt x="221" y="601" on="0"/>
        <pt x="207" y="581" on="0"/>
        <pt x="191" y="551" on="0"/>
        <pt x="182" y="513" on="0"/>
      </contour>
      <contour>
        <pt x="64" y="216" on="0"/>
        <pt x="55" y="306" on="0"/>
        <pt x="55" y="433" on="0"/>
        <pt x="70" y="546" on="0"/>
        <pt x="96" y="625" on="0"/>
        <pt x="138" y="681" on="0"/>
        <pt x="182" y="713" on="0"/>
        <pt x="215" y="722" on="1"/>
        <pt x="266" y="737" on="0"/>
        <pt x="417" y="737" on="0"/>
        <pt x="515" y="713" on="0"/>
        <pt x="548" y="678" on="1"/>
        <pt x="580" y="732" on="0"/>
        <pt x="654" y="732" on="1"/>
        <pt x="660" y="732" on="0"/>
        <pt x="938" y="722" on="0"/>
        <pt x="979" y="716" on="1"/>
        <pt x="979" y="621" on="1"/>
        <pt x="687" y="621" on="1"/>
        <pt x="650" y="621" on="0"/>
        <pt x="641" y="603" on="1"/>
        <pt x="635" y="589" on="0"/>
        <pt x="635" y="565" on="1"/>
        <pt x="635" y="420" on="1"/>
        <pt x="936" y="410" on="1"/>
        <pt x="936" y="315" on="1"/>
        <pt x="635" y="305" on="1"/>
        <pt x="635" y="160" on="1"/>
        <pt x="635" y="122" on="0"/>
        <pt x="656" y="114" on="1"/>
        <pt x="671" y="108" on="0"/>
        <pt x="697" y="108" on="1"/>
        <pt x="979" y="108" on="1"/>
        <pt x="979" y="14" on="1"/>
        <pt x="945" y="9" on="0"/>
        <pt x="704" y="-2" on="1"/>
        <pt x="676" y="-3" on="1"/>
        <pt x="668" y="-3" on="0"/>
        <pt x="660" y="-3" on="1"/>
        <pt x="576" y="-3" on="0"/>
        <pt x="545" y="51" on="1"/>
        <pt x="512" y="19" on="0"/>
        <pt x="416" y="-4" on="0"/>
        <pt x="312" y="-4" on="0"/>
        <pt x="263" y="-1" on="0"/>
        <pt x="209" y="8" on="0"/>
        <pt x="170" y="25" on="0"/>
        <pt x="130" y="52" on="0"/>
        <pt x="103" y="91" on="0"/>
        <pt x="78" y="146" on="0"/>
      </contour>
    </TTGlyph>
    <TTGlyph name="Oacute" xMin="55" yMin="-3" xMax="636" yMax="934">
      <contour>
        <pt x="61" y="228" on="0"/>
        <pt x="55" y="311" on="0"/>
        <pt x="55" y="433" on="0"/>
        <pt x="70" y="546" on="0"/>
        <pt x="96" y="625" on="0"/>
        <pt x="138" y="681" on="0"/>
        <pt x="183" y="713" on="0"/>
        <pt x="215" y="722" on="1"/>
        <pt x="267" y="737" on="0"/>
        <pt x="387" y="737" on="0"/>
        <pt x="446" y="731" on="0"/>
        <pt x="511" y="713" on="0"/>
        <pt x="555" y="681" on="0"/>
        <pt x="596" y="625" on="0"/>
        <pt x="608" y="586" on="1"/>
        <pt x="635" y="499" on="0"/>
        <pt x="635" y="361" on="1"/>
        <pt x="635" y="160" on="0"/>
        <pt x="578" y="82" on="1"/>
        <pt x="539" y="29" on="0"/>
        <pt x="482" y="12" on="1"/>
        <pt x="411" y="-9" on="0"/>
        <pt x="294" y="-3" on="1"/>
        <pt x="236" y="0" on="0"/>
        <pt x="185" y="18" on="0"/>
        <pt x="147" y="39" on="0"/>
        <pt x="119" y="69" on="0"/>
        <pt x="93" y="109" on="0"/>
        <pt x="75" y="162" on="0"/>
      </contour>
      <contour>
        <pt x="176" y="484" on="0"/>
        <pt x="171" y="409" on="0"/>
        <pt x="171" y="305" on="0"/>
        <pt x="178" y="226" on="0"/>
        <pt x="195" y="167" on="0"/>
        <pt x="219" y="133" on="0"/>
        <pt x="240" y="122" on="1"/>
        <pt x="275" y="105" on="0"/>
        <pt x="398" y="105" on="0"/>
        <pt x="460" y="124" on="0"/>
        <pt x="503" y="180" on="0"/>
        <pt x="519" y="279" on="0"/>
        <pt x="519" y="399" on="0"/>
        <pt x="516" y="461" on="0"/>
        <pt x="509" y="511" on="0"/>
        <pt x="500" y="550" on="0"/>
        <pt x="485" y="579" on="0"/>
        <pt x="471" y="600" on="0"/>
        <pt x="447" y="614" on="0"/>
        <pt x="426" y="622" on="0"/>
        <pt x="410" y="625" on="1"/>
        <pt x="384" y="628" on="0"/>
        <pt x="320" y="628" on="0"/>
        <pt x="289" y="626" on="0"/>
        <pt x="250" y="619" on="0"/>
        <pt x="228" y="604" on="0"/>
        <pt x="202" y="578" on="0"/>
        <pt x="189" y="539" on="0"/>
      </contour>
      <contour>
        <pt x="304" y="797" on="1"/>
        <pt x="401" y="934" on="1"/>
        <pt x="513" y="934" on="1"/>
        <pt x="387" y="797" on="1"/>
      </contour>
    </TTGlyph>
    <TTGlyph name="Ocircumflex" xMin="55" yMin="-3" xMax="636" yMax="931">
      <contour>
        <pt x="61" y="228" on="0"/>
        <pt x="55" y="311" on="0"/>
        <pt x="55" y="433" on="0"/>
        <pt x="70" y="546" on="0"/>
        <pt x="96" y="625" on="0"/>
        <pt x="138" y="681" on="0"/>
        <pt x="183" y="713" on="0"/>
        <pt x="215" y="722" on="1"/>
        <pt x="267" y="737" on="0"/>
        <pt x="387" y="737" on="0"/>
        <pt x="446" y="731" on="0"/>
        <pt x="511" y="713" on="0"/>
        <pt x="555" y="681" on="0"/>
        <pt x="596" y="625" on="0"/>
        <pt x="608" y="586" on="1"/>
        <pt x="635" y="499" on="0"/>
        <pt x="635" y="361" on="1"/>
        <pt x="635" y="160" on="0"/>
        <pt x="578" y="82" on="1"/>
        <pt x="539" y="29" on="0"/>
        <pt x="482" y="12" on="1"/>
        <pt x="411" y="-9" on="0"/>
        <pt x="294" y="-3" on="1"/>
        <pt x="236" y="0" on="0"/>
        <pt x="185" y="18" on="0"/>
        <pt x="147" y="39" on="0"/>
        <pt x="119" y="69" on="0"/>
        <pt x="93" y="109" on="0"/>
        <pt x="75" y="162" on="0"/>
      </contour>
      <contour>
        <pt x="176" y="484" on="0"/>
        <pt x="171" y="409" on="0"/>
        <pt x="171" y="305" on="0"/>
        <pt x="178" y="226" on="0"/>
        <pt x="195" y="167" on="0"/>
        <pt x="219" y="133" on="0"/>
        <pt x="240" y="122" on="1"/>
        <pt x="275" y="105" on="0"/>
        <pt x="398" y="105" on="0"/>
        <pt x="460" y="124" on="0"/>
        <pt x="503" y="180" on="0"/>
        <pt x="519" y="279" on="0"/>
        <pt x="519" y="399" on="0"/>
        <pt x="516" y="461" on="0"/>
        <pt x="509" y="511" on="0"/>
        <pt x="500" y="550" on="0"/>
        <pt x="485" y="579" on="0"/>
        <pt x="471" y="600" on="0"/>
        <pt x="447" y="614" on="0"/>
        <pt x="426" y="622" on="0"/>
        <pt x="410" y="625" on="1"/>
        <pt x="384" y="628" on="0"/>
        <pt x="320" y="628" on="0"/>
        <pt x="289" y="626" on="0"/>
        <pt x="250" y="619" on="0"/>
        <pt x="228" y="604" on="0"/>
        <pt x="202" y="578" on="0"/>
        <pt x="189" y="539" on="0"/>
      </contour>
      <contour>
        <pt x="195" y="797" on="1"/>
        <pt x="306" y="930" on="1"/>
        <pt x="398" y="930" on="1"/>
        <pt x="497" y="797" on="1"/>
        <pt x="412" y="797" on="1"/>
        <pt x="349" y="861" on="1"/>
        <pt x="281" y="797" on="1"/>
      </contour>
    </TTGlyph>
    <TTGlyph name="Odieresis" xMin="55" yMin="-3" xMax="636" yMax="909">
      <contour>
        <pt x="61" y="228" on="0"/>
        <pt x="55" y="311" on="0"/>
        <pt x="55" y="433" on="0"/>
        <pt x="70" y="546" on="0"/>
        <pt x="96" y="625" on="0"/>
        <pt x="138" y="681" on="0"/>
        <pt x="183" y="713" on="0"/>
        <pt x="215" y="722" on="1"/>
        <pt x="267" y="737" on="0"/>
        <pt x="387" y="737" on="0"/>
        <pt x="446" y="731" on="0"/>
        <pt x="511" y="713" on="0"/>
        <pt x="555" y="681" on="0"/>
        <pt x="596" y="625" on="0"/>
        <pt x="608" y="586" on="1"/>
        <pt x="635" y="499" on="0"/>
        <pt x="635" y="361" on="1"/>
        <pt x="635" y="160" on="0"/>
        <pt x="578" y="82" on="1"/>
        <pt x="539" y="29" on="0"/>
        <pt x="482" y="12" on="1"/>
        <pt x="411" y="-9" on="0"/>
        <pt x="294" y="-3" on="1"/>
        <pt x="236" y="0" on="0"/>
        <pt x="185" y="18" on="0"/>
        <pt x="147" y="39" on="0"/>
        <pt x="119" y="69" on="0"/>
        <pt x="93" y="109" on="0"/>
        <pt x="75" y="162" on="0"/>
      </contour>
      <contour>
        <pt x="176" y="484" on="0"/>
        <pt x="171" y="409" on="0"/>
        <pt x="171" y="305" on="0"/>
        <pt x="178" y="226" on="0"/>
        <pt x="195" y="167" on="0"/>
        <pt x="219" y="133" on="0"/>
        <pt x="240" y="122" on="1"/>
        <pt x="275" y="105" on="0"/>
        <pt x="398" y="105" on="0"/>
        <pt x="460" y="124" on="0"/>
        <pt x="503" y="180" on="0"/>
        <pt x="519" y="279" on="0"/>
        <pt x="519" y="399" on="0"/>
        <pt x="516" y="461" on="0"/>
        <pt x="509" y="511" on="0"/>
        <pt x="500" y="550" on="0"/>
        <pt x="485" y="579" on="0"/>
        <pt x="471" y="600" on="0"/>
        <pt x="447" y="614" on="0"/>
        <pt x="426" y="622" on="0"/>
        <pt x="410" y="625" on="1"/>
        <pt x="384" y="628" on="0"/>
        <pt x="320" y="628" on="0"/>
        <pt x="289" y="626" on="0"/>
        <pt x="250" y="619" on="0"/>
        <pt x="228" y="604" on="0"/>
        <pt x="202" y="578" on="0"/>
        <pt x="189" y="539" on="0"/>
      </contour>
      <contour>
        <pt x="163" y="830" on="0"/>
        <pt x="163" y="876" on="0"/>
        <pt x="196" y="908" on="0"/>
        <pt x="242" y="908" on="0"/>
        <pt x="274" y="876" on="0"/>
        <pt x="274" y="830" on="0"/>
        <pt x="242" y="797" on="0"/>
        <pt x="196" y="797" on="0"/>
      </contour>
      <contour>
        <pt x="418" y="830" on="0"/>
        <pt x="418" y="876" on="0"/>
        <pt x="451" y="908" on="0"/>
        <pt x="497" y="908" on="0"/>
        <pt x="529" y="876" on="0"/>
        <pt x="529" y="830" on="0"/>
        <pt x="497" y="797" on="0"/>
        <pt x="451" y="797" on="0"/>
      </contour>
    </TTGlyph>
    <TTGlyph name="Ograve" xMin="55" yMin="-3" xMax="636" yMax="934">
      <contour>
        <pt x="61" y="228" on="0"/>
        <pt x="55" y="311" on="0"/>
        <pt x="55" y="433" on="0"/>
        <pt x="70" y="546" on="0"/>
        <pt x="96" y="625" on="0"/>
        <pt x="138" y="681" on="0"/>
        <pt x="183" y="713" on="0"/>
        <pt x="215" y="722" on="1"/>
        <pt x="267" y="737" on="0"/>
        <pt x="387" y="737" on="0"/>
        <pt x="446" y="731" on="0"/>
        <pt x="511" y="713" on="0"/>
        <pt x="555" y="681" on="0"/>
        <pt x="596" y="625" on="0"/>
        <pt x="608" y="586" on="1"/>
        <pt x="635" y="499" on="0"/>
        <pt x="635" y="361" on="1"/>
        <pt x="635" y="160" on="0"/>
        <pt x="578" y="82" on="1"/>
        <pt x="539" y="29" on="0"/>
        <pt x="482" y="12" on="1"/>
        <pt x="411" y="-9" on="0"/>
        <pt x="294" y="-3" on="1"/>
        <pt x="236" y="0" on="0"/>
        <pt x="185" y="18" on="0"/>
        <pt x="147" y="39" on="0"/>
        <pt x="119" y="69" on="0"/>
        <pt x="93" y="109" on="0"/>
        <pt x="75" y="162" on="0"/>
      </contour>
      <contour>
        <pt x="176" y="484" on="0"/>
        <pt x="171" y="409" on="0"/>
        <pt x="171" y="305" on="0"/>
        <pt x="178" y="226" on="0"/>
        <pt x="195" y="167" on="0"/>
        <pt x="219" y="133" on="0"/>
        <pt x="240" y="122" on="1"/>
        <pt x="275" y="105" on="0"/>
        <pt x="398" y="105" on="0"/>
        <pt x="460" y="124" on="0"/>
        <pt x="503" y="180" on="0"/>
        <pt x="519" y="279" on="0"/>
        <pt x="519" y="399" on="0"/>
        <pt x="516" y="461" on="0"/>
        <pt x="509" y="511" on="0"/>
        <pt x="500" y="550" on="0"/>
        <pt x="485" y="579" on="0"/>
        <pt x="471" y="600" on="0"/>
        <pt x="447" y="614" on="0"/>
        <pt x="426" y="622" on="0"/>
        <pt x="410" y="625" on="1"/>
        <pt x="384" y="628" on="0"/>
        <pt x="320" y="628" on="0"/>
        <pt x="289" y="626" on="0"/>
        <pt x="250" y="619" on="0"/>
        <pt x="228" y="604" on="0"/>
        <pt x="202" y="578" on="0"/>
        <pt x="189" y="539" on="0"/>
      </contour>
      <contour>
        <pt x="178" y="934" on="1"/>
        <pt x="291" y="934" on="1"/>
        <pt x="387" y="797" on="1"/>
        <pt x="304" y="797" on="1"/>
      </contour>
    </TTGlyph>
    <TTGlyph name="Ohungarumlaut" xMin="55" yMin="-3" xMax="636" yMax="934">
      <contour>
        <pt x="61" y="228" on="0"/>
        <pt x="55" y="311" on="0"/>
        <pt x="55" y="433" on="0"/>
        <pt x="70" y="546" on="0"/>
        <pt x="96" y="625" on="0"/>
        <pt x="138" y="681" on="0"/>
        <pt x="183" y="713" on="0"/>
        <pt x="215" y="722" on="1"/>
        <pt x="267" y="737" on="0"/>
        <pt x="387" y="737" on="0"/>
        <pt x="446" y="731" on="0"/>
        <pt x="511" y="713" on="0"/>
        <pt x="555" y="681" on="0"/>
        <pt x="596" y="625" on="0"/>
        <pt x="608" y="586" on="1"/>
        <pt x="635" y="499" on="0"/>
        <pt x="635" y="361" on="1"/>
        <pt x="635" y="160" on="0"/>
        <pt x="578" y="82" on="1"/>
        <pt x="539" y="29" on="0"/>
        <pt x="482" y="12" on="1"/>
        <pt x="411" y="-9" on="0"/>
        <pt x="294" y="-3" on="1"/>
        <pt x="236" y="0" on="0"/>
        <pt x="185" y="18" on="0"/>
        <pt x="147" y="39" on="0"/>
        <pt x="119" y="69" on="0"/>
        <pt x="93" y="109" on="0"/>
        <pt x="75" y="162" on="0"/>
      </contour>
      <contour>
        <pt x="176" y="484" on="0"/>
        <pt x="171" y="409" on="0"/>
        <pt x="171" y="305" on="0"/>
        <pt x="178" y="226" on="0"/>
        <pt x="195" y="167" on="0"/>
        <pt x="219" y="133" on="0"/>
        <pt x="240" y="122" on="1"/>
        <pt x="275" y="105" on="0"/>
        <pt x="398" y="105" on="0"/>
        <pt x="460" y="124" on="0"/>
        <pt x="503" y="180" on="0"/>
        <pt x="519" y="279" on="0"/>
        <pt x="519" y="399" on="0"/>
        <pt x="516" y="461" on="0"/>
        <pt x="509" y="511" on="0"/>
        <pt x="500" y="550" on="0"/>
        <pt x="485" y="579" on="0"/>
        <pt x="471" y="600" on="0"/>
        <pt x="447" y="614" on="0"/>
        <pt x="426" y="622" on="0"/>
        <pt x="410" y="625" on="1"/>
        <pt x="384" y="628" on="0"/>
        <pt x="320" y="628" on="0"/>
        <pt x="289" y="626" on="0"/>
        <pt x="250" y="619" on="0"/>
        <pt x="228" y="604" on="0"/>
        <pt x="202" y="578" on="0"/>
        <pt x="189" y="539" on="0"/>
      </contour>
      <contour>
        <pt x="230" y="797" on="1"/>
        <pt x="327" y="934" on="1"/>
        <pt x="439" y="934" on="1"/>
        <pt x="313" y="797" on="1"/>
      </contour>
      <contour>
        <pt x="378" y="797" on="1"/>
        <pt x="475" y="934" on="1"/>
        <pt x="588" y="934" on="1"/>
        <pt x="462" y="797" on="1"/>
      </contour>
    </TTGlyph>
    <TTGlyph name="Omacron" xMin="55" yMin="-3" xMax="636" yMax="871">
      <contour>
        <pt x="61" y="228" on="0"/>
        <pt x="55" y="311" on="0"/>
        <pt x="55" y="433" on="0"/>
        <pt x="70" y="546" on="0"/>
        <pt x="96" y="625" on="0"/>
        <pt x="138" y="681" on="0"/>
        <pt x="183" y="713" on="0"/>
        <pt x="215" y="722" on="1"/>
        <pt x="267" y="737" on="0"/>
        <pt x="387" y="737" on="0"/>
        <pt x="446" y="731" on="0"/>
        <pt x="511" y="713" on="0"/>
        <pt x="555" y="681" on="0"/>
        <pt x="596" y="625" on="0"/>
        <pt x="608" y="586" on="1"/>
        <pt x="635" y="499" on="0"/>
        <pt x="635" y="361" on="1"/>
        <pt x="635" y="160" on="0"/>
        <pt x="578" y="82" on="1"/>
        <pt x="539" y="29" on="0"/>
        <pt x="482" y="12" on="1"/>
        <pt x="411" y="-9" on="0"/>
        <pt x="294" y="-3" on="1"/>
        <pt x="236" y="0" on="0"/>
        <pt x="185" y="18" on="0"/>
        <pt x="147" y="39" on="0"/>
        <pt x="119" y="69" on="0"/>
        <pt x="93" y="109" on="0"/>
        <pt x="75" y="162" on="0"/>
      </contour>
      <contour>
        <pt x="176" y="484" on="0"/>
        <pt x="171" y="409" on="0"/>
        <pt x="171" y="305" on="0"/>
        <pt x="178" y="226" on="0"/>
        <pt x="195" y="167" on="0"/>
        <pt x="219" y="133" on="0"/>
        <pt x="240" y="122" on="1"/>
        <pt x="275" y="105" on="0"/>
        <pt x="398" y="105" on="0"/>
        <pt x="460" y="124" on="0"/>
        <pt x="503" y="180" on="0"/>
        <pt x="519" y="279" on="0"/>
        <pt x="519" y="399" on="0"/>
        <pt x="516" y="461" on="0"/>
        <pt x="509" y="511" on="0"/>
        <pt x="500" y="550" on="0"/>
        <pt x="485" y="579" on="0"/>
        <pt x="471" y="600" on="0"/>
        <pt x="447" y="614" on="0"/>
        <pt x="426" y="622" on="0"/>
        <pt x="410" y="625" on="1"/>
        <pt x="384" y="628" on="0"/>
        <pt x="320" y="628" on="0"/>
        <pt x="289" y="626" on="0"/>
        <pt x="250" y="619" on="0"/>
        <pt x="228" y="604" on="0"/>
        <pt x="202" y="578" on="0"/>
        <pt x="189" y="539" on="0"/>
      </contour>
      <contour>
        <pt x="200" y="797" on="1"/>
        <pt x="200" y="870" on="1"/>
        <pt x="492" y="870" on="1"/>
        <pt x="492" y="797" on="1"/>
      </contour>
    </TTGlyph>
    <TTGlyph name="Omega" xMin="54" yMin="0" xMax="715" yMax="739">
      <contour>
        <pt x="55" y="441" on="0"/>
        <pt x="73" y="533" on="0"/>
        <pt x="119" y="627" on="0"/>
        <pt x="191" y="696" on="0"/>
        <pt x="310" y="739" on="0"/>
        <pt x="457" y="739" on="0"/>
        <pt x="570" y="700" on="0"/>
        <pt x="643" y="635" on="0"/>
        <pt x="666" y="589" on="1"/>
        <pt x="709" y="505" on="0"/>
        <pt x="709" y="288" on="0"/>
        <pt x="666" y="161" on="0"/>
        <pt x="600" y="108" on="1"/>
        <pt x="714" y="98" on="1"/>
        <pt x="714" y="0" on="1"/>
        <pt x="472" y="0" on="1"/>
        <pt x="472" y="110" on="1"/>
        <pt x="564" y="176" on="0"/>
        <pt x="583" y="261" on="1"/>
        <pt x="593" y="309" on="0"/>
        <pt x="593" y="385" on="1"/>
        <pt x="593" y="630" on="0"/>
        <pt x="385" y="630" on="1"/>
        <pt x="171" y="630" on="0"/>
        <pt x="171" y="380" on="1"/>
        <pt x="171" y="261" on="0"/>
        <pt x="200" y="212" on="1"/>
        <pt x="231" y="162" on="0"/>
        <pt x="295" y="110" on="1"/>
        <pt x="295" y="0" on="1"/>
        <pt x="61" y="0" on="1"/>
        <pt x="61" y="100" on="1"/>
        <pt x="180" y="110" on="1"/>
        <pt x="86" y="171" on="0"/>
        <pt x="65" y="266" on="1"/>
        <pt x="55" y="316" on="0"/>
      </contour>
    </TTGlyph>
    <TTGlyph name="Oslash" xMin="58" yMin="-4" xMax="639" yMax="737">
      <contour>
        <pt x="119" y="653" on="1"/>
        <pt x="140" y="681" on="0"/>
        <pt x="184" y="713" on="0"/>
        <pt x="217" y="722" on="1"/>
        <pt x="269" y="737" on="0"/>
        <pt x="410" y="737" on="0"/>
        <pt x="497" y="722" on="0"/>
        <pt x="530" y="700" on="1"/>
        <pt x="551" y="732" on="1"/>
        <pt x="621" y="732" on="1"/>
        <pt x="573" y="660" on="1"/>
        <pt x="638" y="575" on="0"/>
        <pt x="638" y="361" on="1"/>
        <pt x="638" y="160" on="0"/>
        <pt x="581" y="82" on="1"/>
        <pt x="542" y="29" on="0"/>
        <pt x="484" y="12" on="1"/>
        <pt x="431" y="-4" on="0"/>
        <pt x="282" y="-4" on="0"/>
        <pt x="190" y="12" on="0"/>
        <pt x="156" y="36" on="1"/>
        <pt x="132" y="0" on="1"/>
        <pt x="62" y="0" on="1"/>
        <pt x="115" y="79" on="1"/>
        <pt x="58" y="160" on="0"/>
        <pt x="58" y="572" on="0"/>
      </contour>
      <contour>
        <pt x="195" y="195" on="1"/>
        <pt x="465" y="605" on="1"/>
        <pt x="446" y="620" on="0"/>
        <pt x="393" y="628" on="0"/>
        <pt x="328" y="628" on="0"/>
        <pt x="302" y="627" on="0"/>
        <pt x="269" y="623" on="0"/>
        <pt x="249" y="615" on="0"/>
        <pt x="224" y="601" on="0"/>
        <pt x="210" y="581" on="0"/>
        <pt x="194" y="551" on="0"/>
        <pt x="185" y="513" on="0"/>
        <pt x="181" y="487" on="1"/>
        <pt x="174" y="442" on="0"/>
        <pt x="174" y="244" on="0"/>
      </contour>
      <contour>
        <pt x="348" y="105" on="1"/>
        <pt x="401" y="105" on="0"/>
        <pt x="462" y="124" on="0"/>
        <pt x="506" y="180" on="0"/>
        <pt x="522" y="279" on="0"/>
        <pt x="522" y="496" on="0"/>
        <pt x="499" y="552" on="1"/>
        <pt x="224" y="136" on="1"/>
        <pt x="259" y="105" on="0"/>
      </contour>
    </TTGlyph>
    <TTGlyph name="Otilde" xMin="55" yMin="-3" xMax="636" yMax="917">
      <contour>
        <pt x="61" y="228" on="0"/>
        <pt x="55" y="311" on="0"/>
        <pt x="55" y="433" on="0"/>
        <pt x="70" y="546" on="0"/>
        <pt x="96" y="625" on="0"/>
        <pt x="138" y="681" on="0"/>
        <pt x="183" y="713" on="0"/>
        <pt x="215" y="722" on="1"/>
        <pt x="267" y="737" on="0"/>
        <pt x="387" y="737" on="0"/>
        <pt x="446" y="731" on="0"/>
        <pt x="511" y="713" on="0"/>
        <pt x="555" y="681" on="0"/>
        <pt x="596" y="625" on="0"/>
        <pt x="608" y="586" on="1"/>
        <pt x="635" y="499" on="0"/>
        <pt x="635" y="361" on="1"/>
        <pt x="635" y="160" on="0"/>
        <pt x="578" y="82" on="1"/>
        <pt x="539" y="29" on="0"/>
        <pt x="482" y="12" on="1"/>
        <pt x="411" y="-9" on="0"/>
        <pt x="294" y="-3" on="1"/>
        <pt x="236" y="0" on="0"/>
        <pt x="185" y="18" on="0"/>
        <pt x="147" y="39" on="0"/>
        <pt x="119" y="69" on="0"/>
        <pt x="93" y="109" on="0"/>
        <pt x="75" y="162" on="0"/>
      </contour>
      <contour>
        <pt x="176" y="484" on="0"/>
        <pt x="171" y="409" on="0"/>
        <pt x="171" y="305" on="0"/>
        <pt x="178" y="226" on="0"/>
        <pt x="195" y="167" on="0"/>
        <pt x="219" y="133" on="0"/>
        <pt x="240" y="122" on="1"/>
        <pt x="275" y="105" on="0"/>
        <pt x="398" y="105" on="0"/>
        <pt x="460" y="124" on="0"/>
        <pt x="503" y="180" on="0"/>
        <pt x="519" y="279" on="0"/>
        <pt x="519" y="399" on="0"/>
        <pt x="516" y="461" on="0"/>
        <pt x="509" y="511" on="0"/>
        <pt x="500" y="550" on="0"/>
        <pt x="485" y="579" on="0"/>
        <pt x="471" y="600" on="0"/>
        <pt x="447" y="614" on="0"/>
        <pt x="426" y="622" on="0"/>
        <pt x="410" y="625" on="1"/>
        <pt x="384" y="628" on="0"/>
        <pt x="320" y="628" on="0"/>
        <pt x="289" y="626" on="0"/>
        <pt x="250" y="619" on="0"/>
        <pt x="228" y="604" on="0"/>
        <pt x="202" y="578" on="0"/>
        <pt x="189" y="539" on="0"/>
      </contour>
      <contour>
        <pt x="404" y="880" on="1"/>
        <pt x="437" y="880" on="0"/>
        <pt x="493" y="917" on="1"/>
        <pt x="517" y="864" on="1"/>
        <pt x="494" y="842" on="0"/>
        <pt x="471" y="822" on="0"/>
        <pt x="425" y="798" on="0"/>
        <pt x="414" y="798" on="1"/>
        <pt x="378" y="798" on="0"/>
        <pt x="310" y="832" on="0"/>
        <pt x="293" y="832" on="1"/>
        <pt x="266" y="832" on="0"/>
        <pt x="236" y="818" on="0"/>
        <pt x="206" y="801" on="0"/>
        <pt x="198" y="797" on="1"/>
        <pt x="175" y="847" on="1"/>
        <pt x="208" y="879" on="0"/>
        <pt x="264" y="915" on="0"/>
        <pt x="321" y="914" on="0"/>
        <pt x="387" y="880" on="0"/>
        <pt x="403" y="880" on="0"/>
      </contour>
    </TTGlyph>
    <TTGlyph name="P" xMin="54" yMin="0" xMax="557" yMax="732">
      <contour>
        <pt x="54" y="0" on="1"/>
        <pt x="54" y="732" on="1"/>
        <pt x="364" y="732" on="1"/>
        <pt x="467" y="732" on="0"/>
        <pt x="515" y="671" on="1"/>
        <pt x="557" y="618" on="0"/>
        <pt x="557" y="511" on="1"/>
        <pt x="557" y="449" on="0"/>
        <pt x="531" y="358" on="0"/>
        <pt x="494" y="311" on="0"/>
        <pt x="438" y="285" on="0"/>
        <pt x="399" y="280" on="0"/>
        <pt x="371" y="280" on="0"/>
        <pt x="345" y="281" on="0"/>
        <pt x="299" y="285" on="1"/>
        <pt x="177" y="297" on="0"/>
        <pt x="170" y="300" on="1"/>
        <pt x="170" y="0" on="1"/>
      </contour>
      <contour>
        <pt x="357" y="625" on="1"/>
        <pt x="170" y="625" on="1"/>
        <pt x="170" y="386" on="1"/>
        <pt x="357" y="386" on="1"/>
        <pt x="397" y="386" on="0"/>
        <pt x="440" y="438" on="0"/>
        <pt x="440" y="510" on="1"/>
        <pt x="439" y="591" on="0"/>
        <pt x="401" y="614" on="1"/>
        <pt x="383" y="625" on="0"/>
      </contour>
    </TTGlyph>
    <TTGlyph name="Q" xMin="55" yMin="-167" xMax="636" yMax="737">
      <contour>
        <pt x="65" y="200" on="0"/>
        <pt x="55" y="299" on="0"/>
        <pt x="55" y="433" on="0"/>
        <pt x="70" y="546" on="0"/>
        <pt x="95" y="625" on="0"/>
        <pt x="137" y="681" on="0"/>
        <pt x="181" y="713" on="0"/>
        <pt x="213" y="722" on="1"/>
        <pt x="265" y="737" on="0"/>
        <pt x="386" y="737" on="0"/>
        <pt x="445" y="731" on="0"/>
        <pt x="510" y="713" on="0"/>
        <pt x="554" y="681" on="0"/>
        <pt x="596" y="625" on="0"/>
        <pt x="608" y="586" on="1"/>
        <pt x="635" y="499" on="0"/>
        <pt x="635" y="361" on="1"/>
        <pt x="635" y="160" on="0"/>
        <pt x="577" y="82" on="1"/>
        <pt x="538" y="29" on="0"/>
        <pt x="481" y="12" on="1"/>
        <pt x="402" y="-11" on="0"/>
        <pt x="280" y="-2" on="1"/>
        <pt x="210" y="3" on="0"/>
        <pt x="153" y="35" on="0"/>
        <pt x="112" y="72" on="0"/>
        <pt x="86" y="127" on="0"/>
      </contour>
      <contour>
        <pt x="176" y="483" on="0"/>
        <pt x="171" y="409" on="0"/>
        <pt x="171" y="293" on="0"/>
        <pt x="182" y="206" on="0"/>
        <pt x="203" y="146" on="0"/>
        <pt x="225" y="131" on="1"/>
        <pt x="263" y="105" on="0"/>
        <pt x="397" y="105" on="0"/>
        <pt x="459" y="124" on="0"/>
        <pt x="503" y="180" on="0"/>
        <pt x="519" y="279" on="0"/>
        <pt x="519" y="403" on="0"/>
        <pt x="515" y="471" on="0"/>
        <pt x="508" y="523" on="0"/>
        <pt x="493" y="563" on="0"/>
        <pt x="479" y="591" on="0"/>
        <pt x="454" y="610" on="0"/>
        <pt x="432" y="621" on="0"/>
        <pt x="415" y="624" on="1"/>
        <pt x="387" y="628" on="0"/>
        <pt x="319" y="628" on="0"/>
        <pt x="288" y="626" on="0"/>
        <pt x="249" y="619" on="0"/>
        <pt x="227" y="604" on="0"/>
        <pt x="202" y="578" on="0"/>
        <pt x="188" y="539" on="0"/>
      </contour>
      <contour>
        <pt x="540" y="-159" on="1"/>
        <pt x="512" y="-167" on="0"/>
        <pt x="451" y="-167" on="0"/>
        <pt x="392" y="-151" on="0"/>
        <pt x="367" y="-135" on="1"/>
        <pt x="312" y="-101" on="0"/>
        <pt x="306" y="-33" on="1"/>
        <pt x="376" y="-33" on="1"/>
        <pt x="408" y="-71" on="0"/>
        <pt x="465" y="-71" on="1"/>
        <pt x="499" y="-71" on="0"/>
        <pt x="540" y="-58" on="1"/>
      </contour>
    </TTGlyph>
    <TTGlyph name="R" xMin="54" yMin="0" xMax="584" yMax="732">
      <contour>
        <pt x="372" y="732" on="1"/>
        <pt x="560" y="732" on="0"/>
        <pt x="560" y="507" on="1"/>
        <pt x="560" y="365" on="0"/>
        <pt x="497" y="320" on="1"/>
        <pt x="476" y="305" on="0"/>
        <pt x="457" y="298" on="0"/>
        <pt x="440" y="293" on="1"/>
        <pt x="584" y="0" on="1"/>
        <pt x="454" y="0" on="1"/>
        <pt x="321" y="285" on="1"/>
        <pt x="170" y="299" on="1"/>
        <pt x="170" y="0" on="1"/>
        <pt x="54" y="0" on="1"/>
        <pt x="54" y="732" on="1"/>
      </contour>
      <contour>
        <pt x="171" y="393" on="1"/>
        <pt x="363" y="393" on="1"/>
        <pt x="384" y="393" on="0"/>
        <pt x="408" y="400" on="0"/>
        <pt x="420" y="410" on="1"/>
        <pt x="443" y="431" on="0"/>
        <pt x="443" y="576" on="0"/>
        <pt x="401" y="626" on="0"/>
        <pt x="363" y="626" on="1"/>
        <pt x="171" y="626" on="1"/>
      </contour>
    </TTGlyph>
    <TTGlyph name="Racute" xMin="54" yMin="0" xMax="584" yMax="931">
      <contour>
        <pt x="54" y="0" on="1"/>
        <pt x="54" y="732" on="1"/>
        <pt x="372" y="732" on="1"/>
        <pt x="560" y="732" on="0"/>
        <pt x="560" y="507" on="1"/>
        <pt x="560" y="365" on="0"/>
        <pt x="497" y="320" on="1"/>
        <pt x="476" y="305" on="0"/>
        <pt x="457" y="298" on="0"/>
        <pt x="440" y="293" on="1"/>
        <pt x="584" y="0" on="1"/>
        <pt x="454" y="0" on="1"/>
        <pt x="321" y="285" on="1"/>
        <pt x="170" y="299" on="1"/>
        <pt x="170" y="0" on="1"/>
      </contour>
      <contour>
        <pt x="171" y="393" on="1"/>
        <pt x="363" y="393" on="1"/>
        <pt x="384" y="393" on="0"/>
        <pt x="408" y="400" on="0"/>
        <pt x="420" y="410" on="1"/>
        <pt x="443" y="431" on="0"/>
        <pt x="443" y="576" on="0"/>
        <pt x="401" y="626" on="0"/>
        <pt x="363" y="626" on="1"/>
        <pt x="171" y="626" on="1"/>
      </contour>
      <contour>
        <pt x="258" y="794" on="1"/>
        <pt x="354" y="930" on="1"/>
        <pt x="467" y="930" on="1"/>
        <pt x="341" y="794" on="1"/>
      </contour>
    </TTGlyph>
    <TTGlyph name="Rcaron" xMin="54" yMin="0" xMax="584" yMax="931">
      <contour>
        <pt x="54" y="0" on="1"/>
        <pt x="54" y="732" on="1"/>
        <pt x="372" y="732" on="1"/>
        <pt x="560" y="732" on="0"/>
        <pt x="560" y="507" on="1"/>
        <pt x="560" y="365" on="0"/>
        <pt x="497" y="320" on="1"/>
        <pt x="476" y="305" on="0"/>
        <pt x="457" y="298" on="0"/>
        <pt x="440" y="293" on="1"/>
        <pt x="584" y="0" on="1"/>
        <pt x="454" y="0" on="1"/>
        <pt x="321" y="285" on="1"/>
        <pt x="170" y="299" on="1"/>
        <pt x="170" y="0" on="1"/>
      </contour>
      <contour>
        <pt x="171" y="393" on="1"/>
        <pt x="363" y="393" on="1"/>
        <pt x="384" y="393" on="0"/>
        <pt x="408" y="400" on="0"/>
        <pt x="420" y="410" on="1"/>
        <pt x="443" y="431" on="0"/>
        <pt x="443" y="576" on="0"/>
        <pt x="401" y="626" on="0"/>
        <pt x="363" y="626" on="1"/>
        <pt x="171" y="626" on="1"/>
      </contour>
      <contour>
        <pt x="147" y="930" on="1"/>
        <pt x="233" y="930" on="1"/>
        <pt x="302" y="866" on="1"/>
        <pt x="364" y="930" on="1"/>
        <pt x="450" y="930" on="1"/>
        <pt x="347" y="797" on="1"/>
        <pt x="255" y="797" on="1"/>
      </contour>
    </TTGlyph>
    <TTGlyph name="Rcommaaccent" xMin="54" yMin="-266" xMax="584" yMax="732">
      <contour>
        <pt x="54" y="0" on="1"/>
        <pt x="54" y="732" on="1"/>
        <pt x="372" y="732" on="1"/>
        <pt x="560" y="732" on="0"/>
        <pt x="560" y="507" on="1"/>
        <pt x="560" y="365" on="0"/>
        <pt x="497" y="320" on="1"/>
        <pt x="476" y="305" on="0"/>
        <pt x="457" y="298" on="0"/>
        <pt x="440" y="293" on="1"/>
        <pt x="584" y="0" on="1"/>
        <pt x="454" y="0" on="1"/>
        <pt x="321" y="285" on="1"/>
        <pt x="170" y="299" on="1"/>
        <pt x="170" y="0" on="1"/>
      </contour>
      <contour>
        <pt x="171" y="393" on="1"/>
        <pt x="363" y="393" on="1"/>
        <pt x="384" y="393" on="0"/>
        <pt x="408" y="400" on="0"/>
        <pt x="420" y="410" on="1"/>
        <pt x="443" y="431" on="0"/>
        <pt x="443" y="576" on="0"/>
        <pt x="401" y="626" on="0"/>
        <pt x="363" y="626" on="1"/>
        <pt x="171" y="626" on="1"/>
      </contour>
      <contour>
        <pt x="353" y="-193" on="1"/>
        <pt x="353" y="-265" on="0"/>
        <pt x="274" y="-265" on="1"/>
        <pt x="266" y="-265" on="0"/>
        <pt x="260" y="-264" on="1"/>
        <pt x="249" y="-262" on="1"/>
        <pt x="249" y="-224" on="1"/>
        <pt x="261" y="-224" on="0"/>
        <pt x="268" y="-220" on="1"/>
        <pt x="277" y="-213" on="0"/>
        <pt x="277" y="-199" on="1"/>
        <pt x="277" y="-183" on="1"/>
        <pt x="267" y="-183" on="1"/>
        <pt x="245" y="-183" on="0"/>
        <pt x="245" y="-160" on="1"/>
        <pt x="245" y="-93" on="1"/>
        <pt x="245" y="-69" on="0"/>
        <pt x="267" y="-69" on="1"/>
        <pt x="332" y="-69" on="1"/>
        <pt x="353" y="-69" on="0"/>
        <pt x="353" y="-93" on="1"/>
      </contour>
    </TTGlyph>
    <TTGlyph name="S" xMin="55" yMin="-8" xMax="551" yMax="739">
      <contour>
        <pt x="141" y="720" on="0"/>
        <pt x="209" y="738" on="0"/>
        <pt x="259" y="738" on="0"/>
        <pt x="323" y="738" on="0"/>
        <pt x="483" y="721" on="0"/>
        <pt x="524" y="711" on="1"/>
        <pt x="524" y="619" on="1"/>
        <pt x="482" y="622" on="0"/>
        <pt x="391" y="626" on="1"/>
        <pt x="297" y="629" on="0"/>
        <pt x="219" y="629" on="0"/>
        <pt x="171" y="601" on="0"/>
        <pt x="171" y="546" on="1"/>
        <pt x="171" y="499" on="1"/>
        <pt x="171" y="450" on="0"/>
        <pt x="211" y="419" on="0"/>
        <pt x="258" y="419" on="1"/>
        <pt x="384" y="419" on="1"/>
        <pt x="512" y="419" on="0"/>
        <pt x="542" y="305" on="1"/>
        <pt x="551" y="272" on="0"/>
        <pt x="551" y="233" on="1"/>
        <pt x="551" y="177" on="1"/>
        <pt x="551" y="50" on="0"/>
        <pt x="462" y="12" on="1"/>
        <pt x="416" y="-8" on="0"/>
        <pt x="348" y="-8" on="1"/>
        <pt x="184" y="-8" on="0"/>
        <pt x="78" y="20" on="1"/>
        <pt x="78" y="112" on="1"/>
        <pt x="188" y="101" on="0"/>
        <pt x="350" y="101" on="0"/>
        <pt x="380" y="105" on="0"/>
        <pt x="398" y="112" on="1"/>
        <pt x="435" y="126" on="0"/>
        <pt x="435" y="174" on="1"/>
        <pt x="435" y="224" on="1"/>
        <pt x="435" y="262" on="0"/>
        <pt x="403" y="303" on="0"/>
        <pt x="363" y="303" on="1"/>
        <pt x="240" y="303" on="1"/>
        <pt x="191" y="303" on="0"/>
        <pt x="120" y="329" on="0"/>
        <pt x="82" y="366" on="0"/>
        <pt x="71" y="393" on="1"/>
        <pt x="55" y="434" on="0"/>
        <pt x="55" y="489" on="1"/>
        <pt x="55" y="553" on="1"/>
        <pt x="55" y="658" on="0"/>
        <pt x="113" y="700" on="1"/>
      </contour>
    </TTGlyph>
    <TTGlyph name="Sacute" xMin="55" yMin="-8" xMax="551" yMax="935">
      <contour>
        <pt x="55" y="489" on="1"/>
        <pt x="55" y="553" on="1"/>
        <pt x="55" y="658" on="0"/>
        <pt x="113" y="700" on="1"/>
        <pt x="166" y="738" on="0"/>
        <pt x="266" y="738" on="1"/>
        <pt x="323" y="738" on="0"/>
        <pt x="483" y="721" on="0"/>
        <pt x="524" y="711" on="1"/>
        <pt x="524" y="619" on="1"/>
        <pt x="482" y="622" on="0"/>
        <pt x="391" y="626" on="1"/>
        <pt x="297" y="629" on="0"/>
        <pt x="219" y="629" on="0"/>
        <pt x="171" y="601" on="0"/>
        <pt x="171" y="546" on="1"/>
        <pt x="171" y="499" on="1"/>
        <pt x="171" y="450" on="0"/>
        <pt x="211" y="419" on="0"/>
        <pt x="258" y="419" on="1"/>
        <pt x="384" y="419" on="1"/>
        <pt x="495" y="419" on="0"/>
        <pt x="532" y="333" on="1"/>
        <pt x="551" y="290" on="0"/>
        <pt x="551" y="233" on="1"/>
        <pt x="551" y="177" on="1"/>
        <pt x="551" y="50" on="0"/>
        <pt x="462" y="12" on="1"/>
        <pt x="416" y="-8" on="0"/>
        <pt x="348" y="-8" on="1"/>
        <pt x="184" y="-8" on="0"/>
        <pt x="78" y="20" on="1"/>
        <pt x="78" y="112" on="1"/>
        <pt x="188" y="101" on="0"/>
        <pt x="350" y="101" on="0"/>
        <pt x="380" y="105" on="0"/>
        <pt x="398" y="112" on="1"/>
        <pt x="435" y="126" on="0"/>
        <pt x="435" y="174" on="1"/>
        <pt x="435" y="224" on="1"/>
        <pt x="435" y="249" on="0"/>
        <pt x="429" y="266" on="1"/>
        <pt x="416" y="303" on="0"/>
        <pt x="363" y="303" on="1"/>
        <pt x="240" y="303" on="1"/>
        <pt x="191" y="303" on="0"/>
        <pt x="120" y="329" on="0"/>
        <pt x="82" y="366" on="0"/>
        <pt x="71" y="393" on="1"/>
        <pt x="55" y="434" on="0"/>
      </contour>
      <contour>
        <pt x="265" y="798" on="1"/>
        <pt x="362" y="935" on="1"/>
        <pt x="474" y="935" on="1"/>
        <pt x="348" y="798" on="1"/>
      </contour>
    </TTGlyph>
    <TTGlyph name="Scaron" xMin="55" yMin="-8" xMax="551" yMax="932">
      <contour>
        <pt x="55" y="489" on="1"/>
        <pt x="55" y="553" on="1"/>
        <pt x="55" y="658" on="0"/>
        <pt x="113" y="700" on="1"/>
        <pt x="166" y="738" on="0"/>
        <pt x="266" y="738" on="1"/>
        <pt x="323" y="738" on="0"/>
        <pt x="483" y="721" on="0"/>
        <pt x="524" y="711" on="1"/>
        <pt x="524" y="619" on="1"/>
        <pt x="482" y="622" on="0"/>
        <pt x="391" y="626" on="1"/>
        <pt x="297" y="629" on="0"/>
        <pt x="219" y="629" on="0"/>
        <pt x="171" y="601" on="0"/>
        <pt x="171" y="546" on="1"/>
        <pt x="171" y="499" on="1"/>
        <pt x="171" y="450" on="0"/>
        <pt x="211" y="419" on="0"/>
        <pt x="258" y="419" on="1"/>
        <pt x="384" y="419" on="1"/>
        <pt x="495" y="419" on="0"/>
        <pt x="532" y="333" on="1"/>
        <pt x="551" y="290" on="0"/>
        <pt x="551" y="233" on="1"/>
        <pt x="551" y="177" on="1"/>
        <pt x="551" y="50" on="0"/>
        <pt x="462" y="12" on="1"/>
        <pt x="416" y="-8" on="0"/>
        <pt x="348" y="-8" on="1"/>
        <pt x="184" y="-8" on="0"/>
        <pt x="78" y="20" on="1"/>
        <pt x="78" y="112" on="1"/>
        <pt x="188" y="101" on="0"/>
        <pt x="350" y="101" on="0"/>
        <pt x="380" y="105" on="0"/>
        <pt x="398" y="112" on="1"/>
        <pt x="435" y="126" on="0"/>
        <pt x="435" y="174" on="1"/>
        <pt x="435" y="224" on="1"/>
        <pt x="435" y="249" on="0"/>
        <pt x="429" y="266" on="1"/>
        <pt x="416" y="303" on="0"/>
        <pt x="363" y="303" on="1"/>
        <pt x="240" y="303" on="1"/>
        <pt x="191" y="303" on="0"/>
        <pt x="120" y="329" on="0"/>
        <pt x="82" y="366" on="0"/>
        <pt x="71" y="393" on="1"/>
        <pt x="55" y="434" on="0"/>
      </contour>
      <contour>
        <pt x="157" y="932" on="1"/>
        <pt x="242" y="932" on="1"/>
        <pt x="312" y="868" on="1"/>
        <pt x="374" y="932" on="1"/>
        <pt x="459" y="932" on="1"/>
        <pt x="357" y="798" on="1"/>
        <pt x="265" y="798" on="1"/>
      </contour>
    </TTGlyph>
    <TTGlyph name="Scedilla" xMin="55" yMin="-184" xMax="551" yMax="739">
      <contour>
        <pt x="55" y="489" on="1"/>
        <pt x="55" y="553" on="1"/>
        <pt x="55" y="658" on="0"/>
        <pt x="113" y="700" on="1"/>
        <pt x="166" y="738" on="0"/>
        <pt x="266" y="738" on="1"/>
        <pt x="323" y="738" on="0"/>
        <pt x="483" y="721" on="0"/>
        <pt x="524" y="711" on="1"/>
        <pt x="524" y="619" on="1"/>
        <pt x="482" y="622" on="0"/>
        <pt x="391" y="626" on="1"/>
        <pt x="297" y="629" on="0"/>
        <pt x="219" y="629" on="0"/>
        <pt x="171" y="601" on="0"/>
        <pt x="171" y="546" on="1"/>
        <pt x="171" y="499" on="1"/>
        <pt x="171" y="450" on="0"/>
        <pt x="211" y="419" on="0"/>
        <pt x="258" y="419" on="1"/>
        <pt x="384" y="419" on="1"/>
        <pt x="495" y="419" on="0"/>
        <pt x="532" y="333" on="1"/>
        <pt x="551" y="290" on="0"/>
        <pt x="551" y="233" on="1"/>
        <pt x="551" y="177" on="1"/>
        <pt x="551" y="50" on="0"/>
        <pt x="462" y="12" on="1"/>
        <pt x="416" y="-8" on="0"/>
        <pt x="348" y="-8" on="1"/>
        <pt x="184" y="-8" on="0"/>
        <pt x="78" y="20" on="1"/>
        <pt x="78" y="112" on="1"/>
        <pt x="188" y="101" on="0"/>
        <pt x="350" y="101" on="0"/>
        <pt x="380" y="105" on="0"/>
        <pt x="398" y="112" on="1"/>
        <pt x="435" y="126" on="0"/>
        <pt x="435" y="174" on="1"/>
        <pt x="435" y="224" on="1"/>
        <pt x="435" y="249" on="0"/>
        <pt x="429" y="266" on="1"/>
        <pt x="416" y="303" on="0"/>
        <pt x="363" y="303" on="1"/>
        <pt x="240" y="303" on="1"/>
        <pt x="191" y="303" on="0"/>
        <pt x="120" y="329" on="0"/>
        <pt x="82" y="366" on="0"/>
        <pt x="71" y="393" on="1"/>
        <pt x="55" y="434" on="0"/>
      </contour>
      <contour>
        <pt x="274" y="-44" on="1"/>
        <pt x="358" y="-44" on="1"/>
        <pt x="358" y="-122" on="0"/>
        <pt x="313" y="-184" on="0"/>
        <pt x="250" y="-184" on="1"/>
        <pt x="196" y="-184" on="1"/>
        <pt x="196" y="-132" on="1"/>
        <pt x="243" y="-117" on="1"/>
        <pt x="263" y="-109" on="0"/>
        <pt x="274" y="-77" on="0"/>
      </contour>
    </TTGlyph>
    <TTGlyph name="Scircumflex" xMin="55" yMin="-8" xMax="551" yMax="932">
      <contour>
        <pt x="55" y="489" on="1"/>
        <pt x="55" y="553" on="1"/>
        <pt x="55" y="658" on="0"/>
        <pt x="113" y="700" on="1"/>
        <pt x="166" y="738" on="0"/>
        <pt x="266" y="738" on="1"/>
        <pt x="323" y="738" on="0"/>
        <pt x="483" y="721" on="0"/>
        <pt x="524" y="711" on="1"/>
        <pt x="524" y="619" on="1"/>
        <pt x="482" y="622" on="0"/>
        <pt x="391" y="626" on="1"/>
        <pt x="297" y="629" on="0"/>
        <pt x="219" y="629" on="0"/>
        <pt x="171" y="601" on="0"/>
        <pt x="171" y="546" on="1"/>
        <pt x="171" y="499" on="1"/>
        <pt x="171" y="450" on="0"/>
        <pt x="211" y="419" on="0"/>
        <pt x="258" y="419" on="1"/>
        <pt x="384" y="419" on="1"/>
        <pt x="495" y="419" on="0"/>
        <pt x="532" y="333" on="1"/>
        <pt x="551" y="290" on="0"/>
        <pt x="551" y="233" on="1"/>
        <pt x="551" y="177" on="1"/>
        <pt x="551" y="50" on="0"/>
        <pt x="462" y="12" on="1"/>
        <pt x="416" y="-8" on="0"/>
        <pt x="348" y="-8" on="1"/>
        <pt x="184" y="-8" on="0"/>
        <pt x="78" y="20" on="1"/>
        <pt x="78" y="112" on="1"/>
        <pt x="188" y="101" on="0"/>
        <pt x="350" y="101" on="0"/>
        <pt x="380" y="105" on="0"/>
        <pt x="398" y="112" on="1"/>
        <pt x="435" y="126" on="0"/>
        <pt x="435" y="174" on="1"/>
        <pt x="435" y="224" on="1"/>
        <pt x="435" y="249" on="0"/>
        <pt x="429" y="266" on="1"/>
        <pt x="416" y="303" on="0"/>
        <pt x="363" y="303" on="1"/>
        <pt x="240" y="303" on="1"/>
        <pt x="191" y="303" on="0"/>
        <pt x="120" y="329" on="0"/>
        <pt x="82" y="366" on="0"/>
        <pt x="71" y="393" on="1"/>
        <pt x="55" y="434" on="0"/>
      </contour>
      <contour>
        <pt x="159" y="798" on="1"/>
        <pt x="271" y="932" on="1"/>
        <pt x="363" y="932" on="1"/>
        <pt x="462" y="798" on="1"/>
        <pt x="377" y="798" on="1"/>
        <pt x="314" y="862" on="1"/>
        <pt x="245" y="798" on="1"/>
      </contour>
    </TTGlyph>
    <TTGlyph name="T" xMin="36" yMin="0" xMax="566" yMax="732">
      <contour>
        <pt x="36" y="623" on="1"/>
        <pt x="36" y="732" on="1"/>
        <pt x="565" y="732" on="1"/>
        <pt x="565" y="623" on="1"/>
        <pt x="356" y="623" on="1"/>
        <pt x="356" y="0" on="1"/>
        <pt x="240" y="0" on="1"/>
        <pt x="240" y="623" on="1"/>
      </contour>
    </TTGlyph>
    <TTGlyph name="Tbar" xMin="26" yMin="0" xMax="556" yMax="732">
      <contour>
        <pt x="27" y="623" on="1"/>
        <pt x="27" y="732" on="1"/>
        <pt x="556" y="732" on="1"/>
        <pt x="556" y="623" on="1"/>
        <pt x="346" y="623" on="1"/>
        <pt x="346" y="437" on="1"/>
        <pt x="452" y="437" on="1"/>
        <pt x="452" y="376" on="1"/>
        <pt x="346" y="376" on="1"/>
        <pt x="346" y="0" on="1"/>
        <pt x="230" y="0" on="1"/>
        <pt x="230" y="376" on="1"/>
        <pt x="124" y="376" on="1"/>
        <pt x="124" y="437" on="1"/>
        <pt x="230" y="437" on="1"/>
        <pt x="230" y="623" on="1"/>
      </contour>
    </TTGlyph>
    <TTGlyph name="Tcaron" xMin="36" yMin="0" xMax="566" yMax="931">
      <contour>
        <pt x="36" y="623" on="1"/>
        <pt x="36" y="732" on="1"/>
        <pt x="565" y="732" on="1"/>
        <pt x="565" y="623" on="1"/>
        <pt x="356" y="623" on="1"/>
        <pt x="356" y="0" on="1"/>
        <pt x="240" y="0" on="1"/>
        <pt x="240" y="623" on="1"/>
      </contour>
      <contour>
        <pt x="143" y="930" on="1"/>
        <pt x="229" y="930" on="1"/>
        <pt x="298" y="866" on="1"/>
        <pt x="360" y="930" on="1"/>
        <pt x="446" y="930" on="1"/>
        <pt x="343" y="797" on="1"/>
        <pt x="251" y="797" on="1"/>
      </contour>
    </TTGlyph>
    <TTGlyph name="Tcommaaccent" xMin="36" yMin="-185" xMax="566" yMax="732">
      <contour>
        <pt x="36" y="623" on="1"/>
        <pt x="36" y="732" on="1"/>
        <pt x="565" y="732" on="1"/>
        <pt x="565" y="623" on="1"/>
        <pt x="356" y="623" on="1"/>
        <pt x="356" y="0" on="1"/>
        <pt x="240" y="0" on="1"/>
        <pt x="240" y="623" on="1"/>
      </contour>
      <contour>
        <pt x="202" y="-45" on="1"/>
        <pt x="287" y="-45" on="1"/>
        <pt x="287" y="-123" on="0"/>
        <pt x="241" y="-184" on="0"/>
        <pt x="179" y="-184" on="1"/>
        <pt x="124" y="-184" on="1"/>
        <pt x="124" y="-133" on="1"/>
        <pt x="172" y="-118" on="1"/>
        <pt x="191" y="-109" on="0"/>
        <pt x="202" y="-77" on="0"/>
      </contour>
    </TTGlyph>
    <TTGlyph name="Thorn" xMin="50" yMin="0" xMax="509" yMax="729">
      <contour>
        <pt x="51" y="0" on="1"/>
        <pt x="51" y="729" on="1"/>
        <pt x="167" y="729" on="1"/>
        <pt x="167" y="588" on="1"/>
        <pt x="332" y="588" on="1"/>
        <pt x="508" y="587" on="0"/>
        <pt x="508" y="375" on="1"/>
        <pt x="508" y="215" on="0"/>
        <pt x="426" y="170" on="1"/>
        <pt x="387" y="150" on="0"/>
        <pt x="332" y="149" on="1"/>
        <pt x="328" y="149" on="0"/>
        <pt x="303" y="148" on="0"/>
        <pt x="295" y="148" on="0"/>
        <pt x="273" y="149" on="0"/>
        <pt x="261" y="150" on="0"/>
        <pt x="238" y="153" on="0"/>
        <pt x="227" y="155" on="1"/>
        <pt x="193" y="162" on="0"/>
        <pt x="167" y="168" on="1"/>
        <pt x="167" y="0" on="1"/>
      </contour>
      <contour>
        <pt x="167" y="254" on="1"/>
        <pt x="304" y="254" on="1"/>
        <pt x="306" y="254" on="0"/>
        <pt x="327" y="254" on="0"/>
        <pt x="355" y="263" on="0"/>
        <pt x="367" y="275" on="1"/>
        <pt x="391" y="299" on="0"/>
        <pt x="391" y="375" on="1"/>
        <pt x="390" y="449" on="0"/>
        <pt x="360" y="468" on="1"/>
        <pt x="338" y="482" on="0"/>
        <pt x="304" y="482" on="1"/>
        <pt x="167" y="482" on="1"/>
      </contour>
    </TTGlyph>
    <TTGlyph name="U" xMin="67" yMin="-6" xMax="619" yMax="732">
      <contour>
        <pt x="346" y="-5" on="1"/>
        <pt x="332" y="-5" on="1"/>
        <pt x="213" y="-5" on="0"/>
        <pt x="174" y="20" on="1"/>
        <pt x="156" y="32" on="0"/>
        <pt x="109" y="79" on="0"/>
        <pt x="97" y="113" on="1"/>
        <pt x="68" y="197" on="0"/>
        <pt x="68" y="320" on="1"/>
        <pt x="68" y="732" on="1"/>
        <pt x="184" y="732" on="1"/>
        <pt x="184" y="320" on="1"/>
        <pt x="184" y="218" on="0"/>
        <pt x="202" y="175" on="1"/>
        <pt x="212" y="151" on="0"/>
        <pt x="235" y="123" on="0"/>
        <pt x="256" y="116" on="1"/>
        <pt x="288" y="104" on="0"/>
        <pt x="378" y="104" on="0"/>
        <pt x="420" y="112" on="0"/>
        <pt x="463" y="137" on="0"/>
        <pt x="475" y="160" on="1"/>
        <pt x="502" y="212" on="0"/>
        <pt x="502" y="320" on="1"/>
        <pt x="502" y="732" on="1"/>
        <pt x="619" y="732" on="1"/>
        <pt x="619" y="320" on="1"/>
        <pt x="619" y="196" on="0"/>
        <pt x="593" y="133" on="1"/>
        <pt x="579" y="100" on="0"/>
        <pt x="551" y="51" on="0"/>
        <pt x="504" y="22" on="0"/>
        <pt x="468" y="4" on="0"/>
        <pt x="439" y="0" on="1"/>
        <pt x="396" y="-5" on="0"/>
      </contour>
    </TTGlyph>
    <TTGlyph name="Uacute" xMin="67" yMin="-6" xMax="619" yMax="934">
      <contour>
        <pt x="346" y="-5" on="1"/>
        <pt x="332" y="-5" on="1"/>
        <pt x="213" y="-5" on="0"/>
        <pt x="174" y="20" on="1"/>
        <pt x="156" y="32" on="0"/>
        <pt x="109" y="79" on="0"/>
        <pt x="97" y="113" on="1"/>
        <pt x="68" y="197" on="0"/>
        <pt x="68" y="320" on="1"/>
        <pt x="68" y="732" on="1"/>
        <pt x="184" y="732" on="1"/>
        <pt x="184" y="320" on="1"/>
        <pt x="184" y="218" on="0"/>
        <pt x="202" y="175" on="1"/>
        <pt x="212" y="151" on="0"/>
        <pt x="235" y="123" on="0"/>
        <pt x="256" y="116" on="1"/>
        <pt x="288" y="104" on="0"/>
        <pt x="378" y="104" on="0"/>
        <pt x="420" y="112" on="0"/>
        <pt x="463" y="137" on="0"/>
        <pt x="475" y="160" on="1"/>
        <pt x="502" y="212" on="0"/>
        <pt x="502" y="320" on="1"/>
        <pt x="502" y="732" on="1"/>
        <pt x="619" y="732" on="1"/>
        <pt x="619" y="320" on="1"/>
        <pt x="619" y="196" on="0"/>
        <pt x="593" y="133" on="1"/>
        <pt x="579" y="100" on="0"/>
        <pt x="551" y="51" on="0"/>
        <pt x="504" y="22" on="0"/>
        <pt x="468" y="4" on="0"/>
        <pt x="439" y="0" on="1"/>
        <pt x="396" y="-5" on="0"/>
      </contour>
      <contour>
        <pt x="302" y="797" on="1"/>
        <pt x="398" y="934" on="1"/>
        <pt x="511" y="934" on="1"/>
        <pt x="385" y="797" on="1"/>
      </contour>
    </TTGlyph>
    <TTGlyph name="Ubreve" xMin="67" yMin="-6" xMax="619" yMax="911">
      <contour>
        <pt x="346" y="-5" on="1"/>
        <pt x="332" y="-5" on="1"/>
        <pt x="213" y="-5" on="0"/>
        <pt x="174" y="20" on="1"/>
        <pt x="156" y="32" on="0"/>
        <pt x="109" y="79" on="0"/>
        <pt x="97" y="113" on="1"/>
        <pt x="68" y="197" on="0"/>
        <pt x="68" y="320" on="1"/>
        <pt x="68" y="732" on="1"/>
        <pt x="184" y="732" on="1"/>
        <pt x="184" y="320" on="1"/>
        <pt x="184" y="218" on="0"/>
        <pt x="202" y="175" on="1"/>
        <pt x="212" y="151" on="0"/>
        <pt x="235" y="123" on="0"/>
        <pt x="256" y="116" on="1"/>
        <pt x="288" y="104" on="0"/>
        <pt x="378" y="104" on="0"/>
        <pt x="420" y="112" on="0"/>
        <pt x="463" y="137" on="0"/>
        <pt x="475" y="160" on="1"/>
        <pt x="502" y="212" on="0"/>
        <pt x="502" y="320" on="1"/>
        <pt x="502" y="732" on="1"/>
        <pt x="619" y="732" on="1"/>
        <pt x="619" y="320" on="1"/>
        <pt x="619" y="196" on="0"/>
        <pt x="593" y="133" on="1"/>
        <pt x="579" y="100" on="0"/>
        <pt x="551" y="51" on="0"/>
        <pt x="504" y="22" on="0"/>
        <pt x="468" y="4" on="0"/>
        <pt x="439" y="0" on="1"/>
        <pt x="396" y="-5" on="0"/>
      </contour>
      <contour>
        <pt x="228" y="911" on="1"/>
        <pt x="282" y="911" on="1"/>
        <pt x="282" y="875" on="0"/>
        <pt x="312" y="858" on="1"/>
        <pt x="326" y="851" on="0"/>
        <pt x="371" y="851" on="0"/>
        <pt x="404" y="883" on="0"/>
        <pt x="404" y="911" on="1"/>
        <pt x="458" y="911" on="1"/>
        <pt x="458" y="876" on="0"/>
        <pt x="442" y="849" on="1"/>
        <pt x="409" y="797" on="0"/>
        <pt x="342" y="797" on="1"/>
        <pt x="295" y="797" on="0"/>
        <pt x="228" y="860" on="0"/>
      </contour>
    </TTGlyph>
    <TTGlyph name="Ucircumflex" xMin="67" yMin="-6" xMax="619" yMax="931">
      <contour>
        <pt x="346" y="-5" on="1"/>
        <pt x="332" y="-5" on="1"/>
        <pt x="213" y="-5" on="0"/>
        <pt x="174" y="20" on="1"/>
        <pt x="156" y="32" on="0"/>
        <pt x="109" y="79" on="0"/>
        <pt x="97" y="113" on="1"/>
        <pt x="68" y="197" on="0"/>
        <pt x="68" y="320" on="1"/>
        <pt x="68" y="732" on="1"/>
        <pt x="184" y="732" on="1"/>
        <pt x="184" y="320" on="1"/>
        <pt x="184" y="218" on="0"/>
        <pt x="202" y="175" on="1"/>
        <pt x="212" y="151" on="0"/>
        <pt x="235" y="123" on="0"/>
        <pt x="256" y="116" on="1"/>
        <pt x="288" y="104" on="0"/>
        <pt x="378" y="104" on="0"/>
        <pt x="420" y="112" on="0"/>
        <pt x="463" y="137" on="0"/>
        <pt x="475" y="160" on="1"/>
        <pt x="502" y="212" on="0"/>
        <pt x="502" y="320" on="1"/>
        <pt x="502" y="732" on="1"/>
        <pt x="619" y="732" on="1"/>
        <pt x="619" y="320" on="1"/>
        <pt x="619" y="196" on="0"/>
        <pt x="593" y="133" on="1"/>
        <pt x="579" y="100" on="0"/>
        <pt x="551" y="51" on="0"/>
        <pt x="504" y="22" on="0"/>
        <pt x="468" y="4" on="0"/>
        <pt x="439" y="0" on="1"/>
        <pt x="396" y="-5" on="0"/>
      </contour>
      <contour>
        <pt x="192" y="797" on="1"/>
        <pt x="303" y="930" on="1"/>
        <pt x="395" y="930" on="1"/>
        <pt x="494" y="797" on="1"/>
        <pt x="410" y="797" on="1"/>
        <pt x="346" y="861" on="1"/>
        <pt x="278" y="797" on="1"/>
      </contour>
    </TTGlyph>
    <TTGlyph name="Udieresis" xMin="67" yMin="-6" xMax="619" yMax="909">
      <contour>
        <pt x="346" y="-5" on="1"/>
        <pt x="332" y="-5" on="1"/>
        <pt x="213" y="-5" on="0"/>
        <pt x="174" y="20" on="1"/>
        <pt x="156" y="32" on="0"/>
        <pt x="109" y="79" on="0"/>
        <pt x="97" y="113" on="1"/>
        <pt x="68" y="197" on="0"/>
        <pt x="68" y="320" on="1"/>
        <pt x="68" y="732" on="1"/>
        <pt x="184" y="732" on="1"/>
        <pt x="184" y="320" on="1"/>
        <pt x="184" y="218" on="0"/>
        <pt x="202" y="175" on="1"/>
        <pt x="212" y="151" on="0"/>
        <pt x="235" y="123" on="0"/>
        <pt x="256" y="116" on="1"/>
        <pt x="288" y="104" on="0"/>
        <pt x="378" y="104" on="0"/>
        <pt x="420" y="112" on="0"/>
        <pt x="463" y="137" on="0"/>
        <pt x="475" y="160" on="1"/>
        <pt x="502" y="212" on="0"/>
        <pt x="502" y="320" on="1"/>
        <pt x="502" y="732" on="1"/>
        <pt x="619" y="732" on="1"/>
        <pt x="619" y="320" on="1"/>
        <pt x="619" y="196" on="0"/>
        <pt x="593" y="133" on="1"/>
        <pt x="579" y="100" on="0"/>
        <pt x="551" y="51" on="0"/>
        <pt x="504" y="22" on="0"/>
        <pt x="468" y="4" on="0"/>
        <pt x="439" y="0" on="1"/>
        <pt x="396" y="-5" on="0"/>
      </contour>
      <contour>
        <pt x="160" y="830" on="0"/>
        <pt x="160" y="876" on="0"/>
        <pt x="193" y="908" on="0"/>
        <pt x="239" y="908" on="0"/>
        <pt x="272" y="876" on="0"/>
        <pt x="272" y="830" on="0"/>
        <pt x="239" y="797" on="0"/>
        <pt x="193" y="797" on="0"/>
      </contour>
      <contour>
        <pt x="415" y="830" on="0"/>
        <pt x="415" y="876" on="0"/>
        <pt x="448" y="908" on="0"/>
        <pt x="494" y="908" on="0"/>
        <pt x="526" y="876" on="0"/>
        <pt x="526" y="830" on="0"/>
        <pt x="494" y="797" on="0"/>
        <pt x="448" y="797" on="0"/>
      </contour>
    </TTGlyph>
    <TTGlyph name="Ugrave" xMin="67" yMin="-6" xMax="619" yMax="934">
      <contour>
        <pt x="346" y="-5" on="1"/>
        <pt x="332" y="-5" on="1"/>
        <pt x="213" y="-5" on="0"/>
        <pt x="174" y="20" on="1"/>
        <pt x="156" y="32" on="0"/>
        <pt x="109" y="79" on="0"/>
        <pt x="97" y="113" on="1"/>
        <pt x="68" y="197" on="0"/>
        <pt x="68" y="320" on="1"/>
        <pt x="68" y="732" on="1"/>
        <pt x="184" y="732" on="1"/>
        <pt x="184" y="320" on="1"/>
        <pt x="184" y="218" on="0"/>
        <pt x="202" y="175" on="1"/>
        <pt x="212" y="151" on="0"/>
        <pt x="235" y="123" on="0"/>
        <pt x="256" y="116" on="1"/>
        <pt x="288" y="104" on="0"/>
        <pt x="378" y="104" on="0"/>
        <pt x="420" y="112" on="0"/>
        <pt x="463" y="137" on="0"/>
        <pt x="475" y="160" on="1"/>
        <pt x="502" y="212" on="0"/>
        <pt x="502" y="320" on="1"/>
        <pt x="502" y="732" on="1"/>
        <pt x="619" y="732" on="1"/>
        <pt x="619" y="320" on="1"/>
        <pt x="619" y="196" on="0"/>
        <pt x="593" y="133" on="1"/>
        <pt x="579" y="100" on="0"/>
        <pt x="551" y="51" on="0"/>
        <pt x="504" y="22" on="0"/>
        <pt x="468" y="4" on="0"/>
        <pt x="439" y="0" on="1"/>
        <pt x="396" y="-5" on="0"/>
      </contour>
      <contour>
        <pt x="176" y="934" on="1"/>
        <pt x="288" y="934" on="1"/>
        <pt x="385" y="797" on="1"/>
        <pt x="302" y="797" on="1"/>
      </contour>
    </TTGlyph>
    <TTGlyph name="Uhungarumlaut" xMin="67" yMin="-6" xMax="619" yMax="934">
      <contour>
        <pt x="346" y="-5" on="1"/>
        <pt x="332" y="-5" on="1"/>
        <pt x="213" y="-5" on="0"/>
        <pt x="174" y="20" on="1"/>
        <pt x="156" y="32" on="0"/>
        <pt x="109" y="79" on="0"/>
        <pt x="97" y="113" on="1"/>
        <pt x="68" y="197" on="0"/>
        <pt x="68" y="320" on="1"/>
        <pt x="68" y="732" on="1"/>
        <pt x="184" y="732" on="1"/>
        <pt x="184" y="320" on="1"/>
        <pt x="184" y="218" on="0"/>
        <pt x="202" y="175" on="1"/>
        <pt x="212" y="151" on="0"/>
        <pt x="235" y="123" on="0"/>
        <pt x="256" y="116" on="1"/>
        <pt x="288" y="104" on="0"/>
        <pt x="378" y="104" on="0"/>
        <pt x="420" y="112" on="0"/>
        <pt x="463" y="137" on="0"/>
        <pt x="475" y="160" on="1"/>
        <pt x="502" y="212" on="0"/>
        <pt x="502" y="320" on="1"/>
        <pt x="502" y="732" on="1"/>
        <pt x="619" y="732" on="1"/>
        <pt x="619" y="320" on="1"/>
        <pt x="619" y="196" on="0"/>
        <pt x="593" y="133" on="1"/>
        <pt x="579" y="100" on="0"/>
        <pt x="551" y="51" on="0"/>
        <pt x="504" y="22" on="0"/>
        <pt x="468" y="4" on="0"/>
        <pt x="439" y="0" on="1"/>
        <pt x="396" y="-5" on="0"/>
      </contour>
      <contour>
        <pt x="228" y="797" on="1"/>
        <pt x="324" y="934" on="1"/>
        <pt x="437" y="934" on="1"/>
        <pt x="311" y="797" on="1"/>
      </contour>
      <contour>
        <pt x="376" y="797" on="1"/>
        <pt x="472" y="934" on="1"/>
        <pt x="585" y="934" on="1"/>
        <pt x="459" y="797" on="1"/>
      </contour>
    </TTGlyph>
    <TTGlyph name="Umacron" xMin="67" yMin="-6" xMax="619" yMax="871">
      <contour>
        <pt x="346" y="-5" on="1"/>
        <pt x="332" y="-5" on="1"/>
        <pt x="213" y="-5" on="0"/>
        <pt x="174" y="20" on="1"/>
        <pt x="156" y="32" on="0"/>
        <pt x="109" y="79" on="0"/>
        <pt x="97" y="113" on="1"/>
        <pt x="68" y="197" on="0"/>
        <pt x="68" y="320" on="1"/>
        <pt x="68" y="732" on="1"/>
        <pt x="184" y="732" on="1"/>
        <pt x="184" y="320" on="1"/>
        <pt x="184" y="218" on="0"/>
        <pt x="202" y="175" on="1"/>
        <pt x="212" y="151" on="0"/>
        <pt x="235" y="123" on="0"/>
        <pt x="256" y="116" on="1"/>
        <pt x="288" y="104" on="0"/>
        <pt x="378" y="104" on="0"/>
        <pt x="420" y="112" on="0"/>
        <pt x="463" y="137" on="0"/>
        <pt x="475" y="160" on="1"/>
        <pt x="502" y="212" on="0"/>
        <pt x="502" y="320" on="1"/>
        <pt x="502" y="732" on="1"/>
        <pt x="619" y="732" on="1"/>
        <pt x="619" y="320" on="1"/>
        <pt x="619" y="196" on="0"/>
        <pt x="593" y="133" on="1"/>
        <pt x="579" y="100" on="0"/>
        <pt x="551" y="51" on="0"/>
        <pt x="504" y="22" on="0"/>
        <pt x="468" y="4" on="0"/>
        <pt x="439" y="0" on="1"/>
        <pt x="396" y="-5" on="0"/>
      </contour>
      <contour>
        <pt x="197" y="797" on="1"/>
        <pt x="197" y="870" on="1"/>
        <pt x="489" y="870" on="1"/>
        <pt x="489" y="797" on="1"/>
      </contour>
    </TTGlyph>
    <TTGlyph name="Uogonek" xMin="67" yMin="-190" xMax="619" yMax="732">
      <contour>
        <pt x="346" y="-5" on="1"/>
        <pt x="332" y="-5" on="1"/>
        <pt x="213" y="-5" on="0"/>
        <pt x="174" y="20" on="1"/>
        <pt x="156" y="32" on="0"/>
        <pt x="109" y="79" on="0"/>
        <pt x="97" y="113" on="1"/>
        <pt x="68" y="197" on="0"/>
        <pt x="68" y="320" on="1"/>
        <pt x="68" y="732" on="1"/>
        <pt x="184" y="732" on="1"/>
        <pt x="184" y="320" on="1"/>
        <pt x="184" y="218" on="0"/>
        <pt x="202" y="175" on="1"/>
        <pt x="212" y="151" on="0"/>
        <pt x="235" y="123" on="0"/>
        <pt x="256" y="116" on="1"/>
        <pt x="288" y="104" on="0"/>
        <pt x="378" y="104" on="0"/>
        <pt x="420" y="112" on="0"/>
        <pt x="463" y="137" on="0"/>
        <pt x="475" y="160" on="1"/>
        <pt x="502" y="212" on="0"/>
        <pt x="502" y="320" on="1"/>
        <pt x="502" y="732" on="1"/>
        <pt x="619" y="732" on="1"/>
        <pt x="619" y="320" on="1"/>
        <pt x="619" y="196" on="0"/>
        <pt x="593" y="133" on="1"/>
        <pt x="579" y="100" on="0"/>
        <pt x="551" y="51" on="0"/>
        <pt x="504" y="22" on="0"/>
        <pt x="468" y="4" on="0"/>
        <pt x="439" y="0" on="1"/>
        <pt x="396" y="-5" on="0"/>
      </contour>
      <contour>
        <pt x="368" y="-3" on="1"/>
        <pt x="316" y="-43" on="0"/>
        <pt x="316" y="-78" on="1"/>
        <pt x="316" y="-93" on="0"/>
        <pt x="342" y="-117" on="0"/>
        <pt x="373" y="-117" on="1"/>
        <pt x="373" y="-117" on="0"/>
        <pt x="374" y="-117" on="1"/>
        <pt x="374" y="-187" on="1"/>
        <pt x="362" y="-190" on="0"/>
        <pt x="331" y="-190" on="0"/>
        <pt x="282" y="-173" on="0"/>
        <pt x="266" y="-151" on="1"/>
        <pt x="243" y="-122" on="0"/>
        <pt x="243" y="-97" on="1"/>
        <pt x="243" y="-38" on="0"/>
        <pt x="318" y="-3" on="1"/>
      </contour>
    </TTGlyph>
    <TTGlyph name="Uring" xMin="67" yMin="-6" xMax="619" yMax="1002">
      <contour>
        <pt x="346" y="-5" on="1"/>
        <pt x="332" y="-5" on="1"/>
        <pt x="213" y="-5" on="0"/>
        <pt x="174" y="20" on="1"/>
        <pt x="156" y="32" on="0"/>
        <pt x="109" y="79" on="0"/>
        <pt x="97" y="113" on="1"/>
        <pt x="68" y="197" on="0"/>
        <pt x="68" y="320" on="1"/>
        <pt x="68" y="732" on="1"/>
        <pt x="184" y="732" on="1"/>
        <pt x="184" y="320" on="1"/>
        <pt x="184" y="218" on="0"/>
        <pt x="202" y="175" on="1"/>
        <pt x="212" y="151" on="0"/>
        <pt x="235" y="123" on="0"/>
        <pt x="256" y="116" on="1"/>
        <pt x="288" y="104" on="0"/>
        <pt x="378" y="104" on="0"/>
        <pt x="420" y="112" on="0"/>
        <pt x="463" y="137" on="0"/>
        <pt x="475" y="160" on="1"/>
        <pt x="502" y="212" on="0"/>
        <pt x="502" y="320" on="1"/>
        <pt x="502" y="732" on="1"/>
        <pt x="619" y="732" on="1"/>
        <pt x="619" y="320" on="1"/>
        <pt x="619" y="196" on="0"/>
        <pt x="593" y="133" on="1"/>
        <pt x="579" y="100" on="0"/>
        <pt x="551" y="51" on="0"/>
        <pt x="504" y="22" on="0"/>
        <pt x="468" y="4" on="0"/>
        <pt x="439" y="0" on="1"/>
        <pt x="396" y="-5" on="0"/>
      </contour>
      <contour>
        <pt x="242" y="927" on="0"/>
        <pt x="269" y="974" on="0"/>
        <pt x="316" y="1002" on="0"/>
        <pt x="386" y="1002" on="0"/>
        <pt x="445" y="942" on="0"/>
        <pt x="445" y="856" on="0"/>
        <pt x="386" y="797" on="0"/>
        <pt x="344" y="797" on="1"/>
        <pt x="285" y="797" on="0"/>
        <pt x="256" y="847" on="1"/>
        <pt x="242" y="871" on="0"/>
      </contour>
      <contour>
        <pt x="296" y="919" on="0"/>
        <pt x="296" y="879" on="0"/>
        <pt x="324" y="852" on="0"/>
        <pt x="363" y="852" on="0"/>
        <pt x="390" y="879" on="0"/>
        <pt x="390" y="909" on="0"/>
        <pt x="383" y="926" on="0"/>
        <pt x="377" y="933" on="1"/>
        <pt x="363" y="947" on="0"/>
        <pt x="324" y="947" on="0"/>
      </contour>
    </TTGlyph>
    <TTGlyph name="Utilde" xMin="67" yMin="-6" xMax="619" yMax="914">
      <contour>
        <pt x="346" y="-5" on="1"/>
        <pt x="332" y="-5" on="1"/>
        <pt x="213" y="-5" on="0"/>
        <pt x="174" y="20" on="1"/>
        <pt x="156" y="32" on="0"/>
        <pt x="109" y="79" on="0"/>
        <pt x="97" y="113" on="1"/>
        <pt x="68" y="197" on="0"/>
        <pt x="68" y="320" on="1"/>
        <pt x="68" y="732" on="1"/>
        <pt x="184" y="732" on="1"/>
        <pt x="184" y="320" on="1"/>
        <pt x="184" y="218" on="0"/>
        <pt x="202" y="175" on="1"/>
        <pt x="212" y="151" on="0"/>
        <pt x="235" y="123" on="0"/>
        <pt x="256" y="116" on="1"/>
        <pt x="288" y="104" on="0"/>
        <pt x="378" y="104" on="0"/>
        <pt x="420" y="112" on="0"/>
        <pt x="463" y="137" on="0"/>
        <pt x="475" y="160" on="1"/>
        <pt x="502" y="212" on="0"/>
        <pt x="502" y="320" on="1"/>
        <pt x="502" y="732" on="1"/>
        <pt x="619" y="732" on="1"/>
        <pt x="619" y="320" on="1"/>
        <pt x="619" y="196" on="0"/>
        <pt x="593" y="133" on="1"/>
        <pt x="579" y="100" on="0"/>
        <pt x="551" y="51" on="0"/>
        <pt x="504" y="22" on="0"/>
        <pt x="468" y="4" on="0"/>
        <pt x="439" y="0" on="1"/>
        <pt x="396" y="-5" on="0"/>
      </contour>
      <contour>
        <pt x="401" y="876" on="1"/>
        <pt x="434" y="876" on="0"/>
        <pt x="490" y="914" on="1"/>
        <pt x="514" y="861" on="1"/>
        <pt x="491" y="839" on="0"/>
        <pt x="468" y="819" on="0"/>
        <pt x="422" y="794" on="0"/>
        <pt x="411" y="794" on="1"/>
        <pt x="375" y="794" on="0"/>
        <pt x="308" y="829" on="0"/>
        <pt x="290" y="829" on="1"/>
        <pt x="263" y="829" on="0"/>
        <pt x="233" y="814" on="0"/>
        <pt x="203" y="798" on="0"/>
        <pt x="195" y="794" on="1"/>
        <pt x="172" y="844" on="1"/>
        <pt x="205" y="876" on="0"/>
        <pt x="261" y="911" on="0"/>
        <pt x="318" y="910" on="0"/>
        <pt x="384" y="877" on="0"/>
        <pt x="400" y="876" on="0"/>
      </contour>
    </TTGlyph>
    <TTGlyph name="V" xMin="38" yMin="0" xMax="659" yMax="732">
      <contour>
        <pt x="38" y="732" on="1"/>
        <pt x="162" y="732" on="1"/>
        <pt x="344" y="160" on="1"/>
        <pt x="535" y="732" on="1"/>
        <pt x="659" y="732" on="1"/>
        <pt x="408" y="0" on="1"/>
        <pt x="278" y="0" on="1"/>
      </contour>
    </TTGlyph>
    <TTGlyph name="W" xMin="38" yMin="0" xMax="961" yMax="732">
      <contour>
        <pt x="38" y="732" on="1"/>
        <pt x="162" y="732" on="1"/>
        <pt x="343" y="167" on="1"/>
        <pt x="492" y="732" on="1"/>
        <pt x="618" y="732" on="1"/>
        <pt x="561" y="527" on="1"/>
        <pt x="683" y="163" on="1"/>
        <pt x="837" y="732" on="1"/>
        <pt x="961" y="732" on="1"/>
        <pt x="749" y="0" on="1"/>
        <pt x="619" y="0" on="1"/>
        <pt x="507" y="327" on="1"/>
        <pt x="408" y="0" on="1"/>
        <pt x="278" y="0" on="1"/>
      </contour>
    </TTGlyph>
    <TTGlyph name="Wacute" xMin="38" yMin="0" xMax="961" yMax="931">
      <contour>
        <pt x="38" y="732" on="1"/>
        <pt x="162" y="732" on="1"/>
        <pt x="343" y="167" on="1"/>
        <pt x="492" y="732" on="1"/>
        <pt x="618" y="732" on="1"/>
        <pt x="561" y="527" on="1"/>
        <pt x="683" y="163" on="1"/>
        <pt x="837" y="732" on="1"/>
        <pt x="961" y="732" on="1"/>
        <pt x="749" y="0" on="1"/>
        <pt x="619" y="0" on="1"/>
        <pt x="507" y="327" on="1"/>
        <pt x="408" y="0" on="1"/>
        <pt x="278" y="0" on="1"/>
      </contour>
      <contour>
        <pt x="465" y="794" on="1"/>
        <pt x="561" y="930" on="1"/>
        <pt x="674" y="930" on="1"/>
        <pt x="548" y="794" on="1"/>
      </contour>
    </TTGlyph>
    <TTGlyph name="Wcircumflex" xMin="38" yMin="0" xMax="961" yMax="928">
      <contour>
        <pt x="38" y="732" on="1"/>
        <pt x="162" y="732" on="1"/>
        <pt x="343" y="167" on="1"/>
        <pt x="492" y="732" on="1"/>
        <pt x="618" y="732" on="1"/>
        <pt x="561" y="527" on="1"/>
        <pt x="683" y="163" on="1"/>
        <pt x="837" y="732" on="1"/>
        <pt x="961" y="732" on="1"/>
        <pt x="749" y="0" on="1"/>
        <pt x="619" y="0" on="1"/>
        <pt x="507" y="327" on="1"/>
        <pt x="408" y="0" on="1"/>
        <pt x="278" y="0" on="1"/>
      </contour>
      <contour>
        <pt x="357" y="794" on="1"/>
        <pt x="468" y="927" on="1"/>
        <pt x="560" y="927" on="1"/>
        <pt x="660" y="794" on="1"/>
        <pt x="575" y="794" on="1"/>
        <pt x="512" y="858" on="1"/>
        <pt x="443" y="794" on="1"/>
      </contour>
    </TTGlyph>
    <TTGlyph name="Wdieresis" xMin="38" yMin="0" xMax="961" yMax="906">
      <contour>
        <pt x="38" y="732" on="1"/>
        <pt x="162" y="732" on="1"/>
        <pt x="343" y="167" on="1"/>
        <pt x="492" y="732" on="1"/>
        <pt x="618" y="732" on="1"/>
        <pt x="561" y="527" on="1"/>
        <pt x="683" y="163" on="1"/>
        <pt x="837" y="732" on="1"/>
        <pt x="961" y="732" on="1"/>
        <pt x="749" y="0" on="1"/>
        <pt x="619" y="0" on="1"/>
        <pt x="507" y="327" on="1"/>
        <pt x="408" y="0" on="1"/>
        <pt x="278" y="0" on="1"/>
      </contour>
      <contour>
        <pt x="320" y="827" on="0"/>
        <pt x="320" y="873" on="0"/>
        <pt x="353" y="905" on="0"/>
        <pt x="400" y="905" on="0"/>
        <pt x="432" y="873" on="0"/>
        <pt x="432" y="827" on="0"/>
        <pt x="399" y="794" on="0"/>
        <pt x="353" y="794" on="0"/>
      </contour>
      <contour>
        <pt x="608" y="794" on="0"/>
        <pt x="575" y="827" on="0"/>
        <pt x="575" y="865" on="0"/>
        <pt x="583" y="878" on="1"/>
        <pt x="599" y="905" on="0"/>
        <pt x="655" y="905" on="0"/>
        <pt x="687" y="873" on="0"/>
        <pt x="687" y="827" on="0"/>
        <pt x="654" y="794" on="0"/>
      </contour>
    </TTGlyph>
    <TTGlyph name="Wgrave" xMin="38" yMin="0" xMax="961" yMax="931">
      <contour>
        <pt x="38" y="732" on="1"/>
        <pt x="162" y="732" on="1"/>
        <pt x="343" y="167" on="1"/>
        <pt x="492" y="732" on="1"/>
        <pt x="618" y="732" on="1"/>
        <pt x="561" y="527" on="1"/>
        <pt x="683" y="163" on="1"/>
        <pt x="837" y="732" on="1"/>
        <pt x="961" y="732" on="1"/>
        <pt x="749" y="0" on="1"/>
        <pt x="619" y="0" on="1"/>
        <pt x="507" y="327" on="1"/>
        <pt x="408" y="0" on="1"/>
        <pt x="278" y="0" on="1"/>
      </contour>
      <contour>
        <pt x="338" y="930" on="1"/>
        <pt x="451" y="930" on="1"/>
        <pt x="547" y="794" on="1"/>
        <pt x="464" y="794" on="1"/>
      </contour>
    </TTGlyph>
    <TTGlyph name="X" xMin="38" yMin="0" xMax="604" yMax="732">
      <contour>
        <pt x="38" y="732" on="1"/>
        <pt x="166" y="732" on="1"/>
        <pt x="320" y="461" on="1"/>
        <pt x="476" y="732" on="1"/>
        <pt x="604" y="732" on="1"/>
        <pt x="385" y="368" on="1"/>
        <pt x="599" y="0" on="1"/>
        <pt x="471" y="0" on="1"/>
        <pt x="320" y="269" on="1"/>
        <pt x="169" y="0" on="1"/>
        <pt x="41" y="0" on="1"/>
        <pt x="254" y="368" on="1"/>
      </contour>
    </TTGlyph>
    <TTGlyph name="X.salt" xMin="16" yMin="0" xMax="624" yMax="732">
      <contour>
        <pt x="177" y="305" on="1"/>
        <pt x="193" y="336" on="0"/>
        <pt x="197" y="366" on="0"/>
        <pt x="197" y="377" on="1"/>
        <pt x="197" y="401" on="0"/>
        <pt x="167" y="457" on="1"/>
        <pt x="17" y="732" on="1"/>
        <pt x="141" y="732" on="1"/>
        <pt x="281" y="487" on="1"/>
        <pt x="308" y="442" on="0"/>
        <pt x="308" y="351" on="1"/>
        <pt x="308" y="302" on="0"/>
        <pt x="294" y="276" on="1"/>
        <pt x="145" y="0" on="1"/>
        <pt x="17" y="0" on="1"/>
      </contour>
      <contour>
        <pt x="332" y="351" on="1"/>
        <pt x="332" y="442" on="0"/>
        <pt x="359" y="487" on="1"/>
        <pt x="499" y="732" on="1"/>
        <pt x="623" y="732" on="1"/>
        <pt x="473" y="457" on="1"/>
        <pt x="443" y="401" on="0"/>
        <pt x="443" y="373" on="1"/>
        <pt x="443" y="343" on="0"/>
        <pt x="463" y="305" on="1"/>
        <pt x="623" y="0" on="1"/>
        <pt x="495" y="0" on="1"/>
        <pt x="346" y="276" on="1"/>
        <pt x="332" y="302" on="0"/>
      </contour>
    </TTGlyph>
    <TTGlyph name="Y" xMin="38" yMin="0" xMax="626" yMax="732">
      <contour>
        <pt x="381" y="0" on="1"/>
        <pt x="265" y="0" on="1"/>
        <pt x="265" y="239" on="1"/>
        <pt x="38" y="732" on="1"/>
        <pt x="164" y="732" on="1"/>
        <pt x="324" y="369" on="1"/>
        <pt x="500" y="732" on="1"/>
        <pt x="626" y="732" on="1"/>
        <pt x="381" y="239" on="1"/>
      </contour>
    </TTGlyph>
    <TTGlyph name="Yacute" xMin="38" yMin="0" xMax="626" yMax="934">
      <contour>
        <pt x="381" y="0" on="1"/>
        <pt x="265" y="0" on="1"/>
        <pt x="265" y="239" on="1"/>
        <pt x="38" y="732" on="1"/>
        <pt x="164" y="732" on="1"/>
        <pt x="324" y="369" on="1"/>
        <pt x="500" y="732" on="1"/>
        <pt x="626" y="732" on="1"/>
        <pt x="381" y="239" on="1"/>
      </contour>
      <contour>
        <pt x="290" y="797" on="1"/>
        <pt x="387" y="934" on="1"/>
        <pt x="500" y="934" on="1"/>
        <pt x="374" y="797" on="1"/>
      </contour>
    </TTGlyph>
    <TTGlyph name="Ycircumflex" xMin="38" yMin="0" xMax="626" yMax="928">
      <contour>
        <pt x="381" y="0" on="1"/>
        <pt x="265" y="0" on="1"/>
        <pt x="265" y="239" on="1"/>
        <pt x="38" y="732" on="1"/>
        <pt x="164" y="732" on="1"/>
        <pt x="324" y="369" on="1"/>
        <pt x="500" y="732" on="1"/>
        <pt x="626" y="732" on="1"/>
        <pt x="381" y="239" on="1"/>
      </contour>
      <contour>
        <pt x="174" y="794" on="1"/>
        <pt x="285" y="927" on="1"/>
        <pt x="377" y="927" on="1"/>
        <pt x="477" y="794" on="1"/>
        <pt x="392" y="794" on="1"/>
        <pt x="328" y="858" on="1"/>
        <pt x="260" y="794" on="1"/>
      </contour>
    </TTGlyph>
    <TTGlyph name="Ydieresis" xMin="38" yMin="0" xMax="626" yMax="909">
      <contour>
        <pt x="381" y="0" on="1"/>
        <pt x="265" y="0" on="1"/>
        <pt x="265" y="239" on="1"/>
        <pt x="38" y="732" on="1"/>
        <pt x="164" y="732" on="1"/>
        <pt x="324" y="369" on="1"/>
        <pt x="500" y="732" on="1"/>
        <pt x="626" y="732" on="1"/>
        <pt x="381" y="239" on="1"/>
      </contour>
      <contour>
        <pt x="149" y="830" on="0"/>
        <pt x="149" y="876" on="0"/>
        <pt x="182" y="908" on="0"/>
        <pt x="228" y="908" on="0"/>
        <pt x="260" y="876" on="0"/>
        <pt x="260" y="830" on="0"/>
        <pt x="228" y="797" on="0"/>
        <pt x="182" y="797" on="0"/>
      </contour>
      <contour>
        <pt x="404" y="830" on="0"/>
        <pt x="404" y="876" on="0"/>
        <pt x="437" y="908" on="0"/>
        <pt x="483" y="908" on="0"/>
        <pt x="515" y="876" on="0"/>
        <pt x="515" y="830" on="0"/>
        <pt x="483" y="797" on="0"/>
        <pt x="437" y="797" on="0"/>
      </contour>
    </TTGlyph>
    <TTGlyph name="Ygrave" xMin="38" yMin="0" xMax="626" yMax="934">
      <contour>
        <pt x="381" y="0" on="1"/>
        <pt x="265" y="0" on="1"/>
        <pt x="265" y="239" on="1"/>
        <pt x="38" y="732" on="1"/>
        <pt x="164" y="732" on="1"/>
        <pt x="324" y="369" on="1"/>
        <pt x="500" y="732" on="1"/>
        <pt x="626" y="732" on="1"/>
        <pt x="381" y="239" on="1"/>
      </contour>
      <contour>
        <pt x="164" y="934" on="1"/>
        <pt x="277" y="934" on="1"/>
        <pt x="374" y="797" on="1"/>
        <pt x="290" y="797" on="1"/>
      </contour>
    </TTGlyph>
    <TTGlyph name="Z" xMin="29" yMin="0" xMax="530" yMax="732">
      <contour>
        <pt x="30" y="0" on="1"/>
        <pt x="30" y="109" on="1"/>
        <pt x="387" y="623" on="1"/>
        <pt x="30" y="623" on="1"/>
        <pt x="30" y="732" on="1"/>
        <pt x="530" y="732" on="1"/>
        <pt x="530" y="623" on="1"/>
        <pt x="183" y="109" on="1"/>
        <pt x="530" y="109" on="1"/>
        <pt x="530" y="0" on="1"/>
      </contour>
    </TTGlyph>
    <TTGlyph name="Zacute" xMin="29" yMin="0" xMax="530" yMax="934">
      <contour>
        <pt x="30" y="0" on="1"/>
        <pt x="30" y="109" on="1"/>
        <pt x="387" y="623" on="1"/>
        <pt x="30" y="623" on="1"/>
        <pt x="30" y="732" on="1"/>
        <pt x="530" y="732" on="1"/>
        <pt x="530" y="623" on="1"/>
        <pt x="183" y="109" on="1"/>
        <pt x="530" y="109" on="1"/>
        <pt x="530" y="0" on="1"/>
      </contour>
      <contour>
        <pt x="238" y="797" on="1"/>
        <pt x="335" y="934" on="1"/>
        <pt x="447" y="934" on="1"/>
        <pt x="321" y="797" on="1"/>
      </contour>
    </TTGlyph>
    <TTGlyph name="Zcaron" xMin="29" yMin="0" xMax="530" yMax="931">
      <contour>
        <pt x="30" y="0" on="1"/>
        <pt x="30" y="109" on="1"/>
        <pt x="387" y="623" on="1"/>
        <pt x="30" y="623" on="1"/>
        <pt x="30" y="732" on="1"/>
        <pt x="530" y="732" on="1"/>
        <pt x="530" y="623" on="1"/>
        <pt x="183" y="109" on="1"/>
        <pt x="530" y="109" on="1"/>
        <pt x="530" y="0" on="1"/>
      </contour>
      <contour>
        <pt x="128" y="930" on="1"/>
        <pt x="214" y="930" on="1"/>
        <pt x="283" y="866" on="1"/>
        <pt x="346" y="930" on="1"/>
        <pt x="431" y="930" on="1"/>
        <pt x="328" y="797" on="1"/>
        <pt x="236" y="797" on="1"/>
      </contour>
    </TTGlyph>
    <TTGlyph name="Zdotaccent" xMin="29" yMin="0" xMax="530" yMax="913">
      <contour>
        <pt x="30" y="0" on="1"/>
        <pt x="30" y="109" on="1"/>
        <pt x="387" y="623" on="1"/>
        <pt x="30" y="623" on="1"/>
        <pt x="30" y="732" on="1"/>
        <pt x="530" y="732" on="1"/>
        <pt x="530" y="623" on="1"/>
        <pt x="183" y="109" on="1"/>
        <pt x="530" y="109" on="1"/>
        <pt x="530" y="0" on="1"/>
      </contour>
      <contour>
        <pt x="224" y="820" on="1"/>
        <pt x="224" y="888" on="1"/>
        <pt x="224" y="913" on="0"/>
        <pt x="248" y="913" on="1"/>
        <pt x="312" y="913" on="1"/>
        <pt x="323" y="913" on="0"/>
        <pt x="335" y="899" on="0"/>
        <pt x="335" y="888" on="1"/>
        <pt x="335" y="820" on="1"/>
        <pt x="335" y="797" on="0"/>
        <pt x="312" y="797" on="1"/>
        <pt x="248" y="797" on="1"/>
        <pt x="238" y="797" on="0"/>
        <pt x="224" y="810" on="0"/>
      </contour>
    </TTGlyph>
    <TTGlyph name="a" xMin="33" yMin="-7" xMax="478" yMax="542">
      <contour>
        <pt x="51" y="508" on="1"/>
        <pt x="147" y="541" on="0"/>
        <pt x="302" y="541" on="1"/>
        <pt x="477" y="541" on="0"/>
        <pt x="477" y="377" on="1"/>
        <pt x="477" y="0" on="1"/>
        <pt x="387" y="0" on="1"/>
        <pt x="361" y="61" on="1"/>
        <pt x="358" y="55" on="0"/>
        <pt x="305" y="25" on="0"/>
        <pt x="217" y="-6" on="0"/>
        <pt x="180" y="-6" on="1"/>
        <pt x="112" y="-6" on="0"/>
        <pt x="34" y="74" on="0"/>
        <pt x="34" y="132" on="1"/>
        <pt x="34" y="186" on="1"/>
        <pt x="34" y="248" on="0"/>
        <pt x="108" y="327" on="0"/>
        <pt x="271" y="327" on="0"/>
        <pt x="361" y="327" on="0"/>
        <pt x="361" y="327" on="1"/>
        <pt x="362" y="350" on="0"/>
        <pt x="362" y="373" on="0"/>
        <pt x="361" y="373" on="1"/>
        <pt x="361" y="414" on="0"/>
        <pt x="324" y="444" on="0"/>
        <pt x="286" y="444" on="1"/>
        <pt x="212" y="444" on="0"/>
        <pt x="51" y="433" on="1"/>
      </contour>
      <contour>
        <pt x="150" y="146" on="1"/>
        <pt x="150" y="115" on="0"/>
        <pt x="178" y="93" on="0"/>
        <pt x="232" y="93" on="0"/>
        <pt x="311" y="115" on="0"/>
        <pt x="336" y="126" on="1"/>
        <pt x="361" y="137" on="1"/>
        <pt x="361" y="251" on="1"/>
        <pt x="199" y="239" on="1"/>
        <pt x="150" y="234" on="0"/>
        <pt x="150" y="181" on="1"/>
      </contour>
    </TTGlyph>
    <TTGlyph name="a.salt" xMin="42" yMin="0" xMax="493" yMax="538">
      <contour>
        <pt x="42" y="138" on="1"/>
        <pt x="42" y="188" on="1"/>
        <pt x="42" y="252" on="0"/>
        <pt x="108" y="321" on="0"/>
        <pt x="193" y="321" on="1"/>
        <pt x="376" y="321" on="1"/>
        <pt x="376" y="374" on="0"/>
        <pt x="356" y="425" on="0"/>
        <pt x="316" y="441" on="0"/>
        <pt x="273" y="441" on="0"/>
        <pt x="210" y="441" on="0"/>
        <pt x="53" y="429" on="1"/>
        <pt x="53" y="504" on="1"/>
        <pt x="125" y="522" on="0"/>
        <pt x="231" y="537" on="0"/>
        <pt x="305" y="537" on="0"/>
        <pt x="347" y="537" on="0"/>
        <pt x="404" y="523" on="0"/>
        <pt x="444" y="492" on="0"/>
        <pt x="471" y="450" on="0"/>
        <pt x="479" y="418" on="1"/>
        <pt x="492" y="360" on="0"/>
        <pt x="492" y="262" on="1"/>
        <pt x="492" y="163" on="1"/>
        <pt x="492" y="79" on="0"/>
        <pt x="417" y="0" on="0"/>
        <pt x="337" y="0" on="1"/>
        <pt x="193" y="0" on="1"/>
        <pt x="42" y="0" on="0"/>
      </contour>
      <contour>
        <pt x="158" y="145" on="1"/>
        <pt x="158" y="119" on="0"/>
        <pt x="179" y="95" on="0"/>
        <pt x="211" y="95" on="1"/>
        <pt x="312" y="95" on="1"/>
        <pt x="351" y="95" on="0"/>
        <pt x="376" y="126" on="0"/>
        <pt x="376" y="160" on="1"/>
        <pt x="376" y="245" on="1"/>
        <pt x="211" y="234" on="1"/>
        <pt x="182" y="232" on="0"/>
        <pt x="158" y="211" on="0"/>
        <pt x="158" y="188" on="1"/>
      </contour>
    </TTGlyph>
    <TTGlyph name="a.smcp" xMin="29" yMin="0" xMax="572" yMax="570">
      <contour>
        <pt x="30" y="0" on="1"/>
        <pt x="242" y="570" on="1"/>
        <pt x="375" y="570" on="1"/>
        <pt x="572" y="0" on="1"/>
        <pt x="449" y="0" on="1"/>
        <pt x="402" y="129" on="1"/>
        <pt x="203" y="129" on="1"/>
        <pt x="153" y="0" on="1"/>
      </contour>
      <contour>
        <pt x="236" y="228" on="1"/>
        <pt x="373" y="228" on="1"/>
        <pt x="308" y="422" on="1"/>
      </contour>
    </TTGlyph>
    <TTGlyph name="a.superior" xMin="26" yMin="373" xMax="340" yMax="739">
      <contour>
        <pt x="38" y="713" on="1"/>
        <pt x="111" y="739" on="0"/>
        <pt x="209" y="739" on="1"/>
        <pt x="340" y="739" on="0"/>
        <pt x="340" y="629" on="1"/>
        <pt x="340" y="378" on="1"/>
        <pt x="273" y="378" on="1"/>
        <pt x="249" y="424" on="1"/>
        <pt x="245" y="417" on="0"/>
        <pt x="219" y="402" on="1"/>
        <pt x="170" y="374" on="0"/>
        <pt x="132" y="374" on="1"/>
        <pt x="84" y="374" on="0"/>
        <pt x="26" y="427" on="0"/>
        <pt x="26" y="465" on="1"/>
        <pt x="26" y="504" on="1"/>
        <pt x="26" y="545" on="0"/>
        <pt x="80" y="597" on="0"/>
        <pt x="133" y="597" on="1"/>
        <pt x="163" y="597" on="0"/>
        <pt x="248" y="597" on="0"/>
        <pt x="248" y="598" on="1"/>
        <pt x="249" y="618" on="0"/>
        <pt x="248" y="637" on="0"/>
        <pt x="241" y="647" on="1"/>
        <pt x="230" y="663" on="0"/>
        <pt x="154" y="663" on="0"/>
        <pt x="38" y="656" on="1"/>
      </contour>
      <contour>
        <pt x="113" y="482" on="1"/>
        <pt x="113" y="448" on="0"/>
        <pt x="199" y="448" on="0"/>
        <pt x="248" y="478" on="1"/>
        <pt x="248" y="546" on="1"/>
        <pt x="149" y="537" on="1"/>
        <pt x="113" y="533" on="0"/>
        <pt x="113" y="501" on="1"/>
      </contour>
    </TTGlyph>
    <TTGlyph name="aacute" xMin="33" yMin="-7" xMax="478" yMax="738">
      <contour>
        <pt x="51" y="508" on="1"/>
        <pt x="147" y="541" on="0"/>
        <pt x="302" y="541" on="1"/>
        <pt x="477" y="541" on="0"/>
        <pt x="477" y="376" on="1"/>
        <pt x="477" y="0" on="1"/>
        <pt x="387" y="0" on="1"/>
        <pt x="361" y="60" on="1"/>
        <pt x="358" y="55" on="0"/>
        <pt x="305" y="25" on="0"/>
        <pt x="217" y="-6" on="0"/>
        <pt x="180" y="-6" on="1"/>
        <pt x="112" y="-6" on="0"/>
        <pt x="34" y="74" on="0"/>
        <pt x="34" y="132" on="1"/>
        <pt x="34" y="186" on="1"/>
        <pt x="34" y="248" on="0"/>
        <pt x="108" y="327" on="0"/>
        <pt x="271" y="327" on="0"/>
        <pt x="361" y="327" on="0"/>
        <pt x="361" y="327" on="1"/>
        <pt x="362" y="350" on="0"/>
        <pt x="362" y="373" on="0"/>
        <pt x="361" y="373" on="1"/>
        <pt x="361" y="414" on="0"/>
        <pt x="324" y="444" on="0"/>
        <pt x="286" y="444" on="1"/>
        <pt x="212" y="444" on="0"/>
        <pt x="51" y="433" on="1"/>
      </contour>
      <contour>
        <pt x="150" y="146" on="1"/>
        <pt x="150" y="115" on="0"/>
        <pt x="178" y="92" on="0"/>
        <pt x="232" y="92" on="0"/>
        <pt x="311" y="115" on="0"/>
        <pt x="336" y="126" on="1"/>
        <pt x="361" y="137" on="1"/>
        <pt x="361" y="251" on="1"/>
        <pt x="199" y="239" on="1"/>
        <pt x="150" y="234" on="0"/>
        <pt x="150" y="181" on="1"/>
      </contour>
      <contour>
        <pt x="222" y="601" on="1"/>
        <pt x="319" y="738" on="1"/>
        <pt x="431" y="738" on="1"/>
        <pt x="305" y="601" on="1"/>
      </contour>
    </TTGlyph>
    <TTGlyph name="aacute.salt" xMin="42" yMin="0" xMax="493" yMax="734">
      <contour>
        <pt x="42" y="138" on="1"/>
        <pt x="42" y="188" on="1"/>
        <pt x="42" y="252" on="0"/>
        <pt x="108" y="320" on="0"/>
        <pt x="193" y="320" on="1"/>
        <pt x="376" y="320" on="1"/>
        <pt x="376" y="374" on="0"/>
        <pt x="356" y="425" on="0"/>
        <pt x="316" y="441" on="0"/>
        <pt x="273" y="441" on="0"/>
        <pt x="210" y="441" on="0"/>
        <pt x="53" y="429" on="1"/>
        <pt x="53" y="504" on="1"/>
        <pt x="125" y="522" on="0"/>
        <pt x="231" y="537" on="0"/>
        <pt x="305" y="537" on="0"/>
        <pt x="309" y="537" on="1"/>
        <pt x="366" y="537" on="0"/>
        <pt x="438" y="506" on="0"/>
        <pt x="478" y="435" on="0"/>
        <pt x="492" y="338" on="0"/>
        <pt x="492" y="262" on="1"/>
        <pt x="492" y="163" on="1"/>
        <pt x="492" y="79" on="0"/>
        <pt x="417" y="0" on="0"/>
        <pt x="337" y="0" on="1"/>
        <pt x="193" y="0" on="1"/>
        <pt x="42" y="0" on="0"/>
      </contour>
      <contour>
        <pt x="158" y="145" on="1"/>
        <pt x="158" y="128" on="0"/>
        <pt x="162" y="118" on="1"/>
        <pt x="169" y="95" on="0"/>
        <pt x="211" y="95" on="1"/>
        <pt x="312" y="95" on="1"/>
        <pt x="353" y="95" on="0"/>
        <pt x="365" y="112" on="1"/>
        <pt x="376" y="128" on="0"/>
        <pt x="376" y="160" on="1"/>
        <pt x="376" y="245" on="1"/>
        <pt x="211" y="234" on="1"/>
        <pt x="173" y="231" on="0"/>
        <pt x="163" y="213" on="1"/>
        <pt x="158" y="203" on="0"/>
        <pt x="158" y="188" on="1"/>
      </contour>
      <contour>
        <pt x="230" y="597" on="1"/>
        <pt x="326" y="734" on="1"/>
        <pt x="439" y="734" on="1"/>
        <pt x="313" y="597" on="1"/>
      </contour>
    </TTGlyph>
    <TTGlyph name="aacute.smcp" xMin="29" yMin="0" xMax="572" yMax="767">
      <contour>
        <pt x="30" y="0" on="1"/>
        <pt x="242" y="570" on="1"/>
        <pt x="375" y="570" on="1"/>
        <pt x="572" y="0" on="1"/>
        <pt x="449" y="0" on="1"/>
        <pt x="402" y="129" on="1"/>
        <pt x="203" y="129" on="1"/>
        <pt x="153" y="0" on="1"/>
      </contour>
      <contour>
        <pt x="236" y="228" on="1"/>
        <pt x="373" y="228" on="1"/>
        <pt x="308" y="422" on="1"/>
      </contour>
      <contour>
        <pt x="267" y="630" on="1"/>
        <pt x="364" y="766" on="1"/>
        <pt x="476" y="766" on="1"/>
        <pt x="350" y="630" on="1"/>
      </contour>
    </TTGlyph>
    <TTGlyph name="abreve" xMin="33" yMin="-7" xMax="478" yMax="715">
      <contour>
        <pt x="51" y="508" on="1"/>
        <pt x="147" y="541" on="0"/>
        <pt x="302" y="541" on="1"/>
        <pt x="477" y="541" on="0"/>
        <pt x="477" y="376" on="1"/>
        <pt x="477" y="0" on="1"/>
        <pt x="387" y="0" on="1"/>
        <pt x="361" y="60" on="1"/>
        <pt x="358" y="55" on="0"/>
        <pt x="305" y="25" on="0"/>
        <pt x="217" y="-6" on="0"/>
        <pt x="180" y="-6" on="1"/>
        <pt x="112" y="-6" on="0"/>
        <pt x="34" y="74" on="0"/>
        <pt x="34" y="132" on="1"/>
        <pt x="34" y="186" on="1"/>
        <pt x="34" y="248" on="0"/>
        <pt x="108" y="327" on="0"/>
        <pt x="271" y="327" on="0"/>
        <pt x="361" y="327" on="0"/>
        <pt x="361" y="327" on="1"/>
        <pt x="362" y="350" on="0"/>
        <pt x="362" y="373" on="0"/>
        <pt x="361" y="373" on="1"/>
        <pt x="361" y="414" on="0"/>
        <pt x="324" y="444" on="0"/>
        <pt x="286" y="444" on="1"/>
        <pt x="212" y="444" on="0"/>
        <pt x="51" y="433" on="1"/>
      </contour>
      <contour>
        <pt x="150" y="146" on="1"/>
        <pt x="150" y="115" on="0"/>
        <pt x="178" y="92" on="0"/>
        <pt x="232" y="92" on="0"/>
        <pt x="311" y="115" on="0"/>
        <pt x="336" y="126" on="1"/>
        <pt x="361" y="137" on="1"/>
        <pt x="361" y="251" on="1"/>
        <pt x="199" y="239" on="1"/>
        <pt x="150" y="234" on="0"/>
        <pt x="150" y="181" on="1"/>
      </contour>
      <contour>
        <pt x="156" y="715" on="1"/>
        <pt x="210" y="715" on="1"/>
        <pt x="210" y="689" on="0"/>
        <pt x="245" y="655" on="0"/>
        <pt x="299" y="655" on="0"/>
        <pt x="332" y="687" on="0"/>
        <pt x="332" y="715" on="1"/>
        <pt x="386" y="715" on="1"/>
        <pt x="386" y="680" on="0"/>
        <pt x="370" y="653" on="1"/>
        <pt x="337" y="601" on="0"/>
        <pt x="270" y="601" on="1"/>
        <pt x="223" y="601" on="0"/>
        <pt x="156" y="664" on="0"/>
      </contour>
    </TTGlyph>
    <TTGlyph name="abreve.salt" xMin="42" yMin="0" xMax="493" yMax="712">
      <contour>
        <pt x="42" y="138" on="1"/>
        <pt x="42" y="188" on="1"/>
        <pt x="42" y="252" on="0"/>
        <pt x="108" y="320" on="0"/>
        <pt x="193" y="320" on="1"/>
        <pt x="376" y="320" on="1"/>
        <pt x="376" y="374" on="0"/>
        <pt x="356" y="425" on="0"/>
        <pt x="316" y="441" on="0"/>
        <pt x="273" y="441" on="0"/>
        <pt x="210" y="441" on="0"/>
        <pt x="53" y="429" on="1"/>
        <pt x="53" y="504" on="1"/>
        <pt x="125" y="522" on="0"/>
        <pt x="231" y="537" on="0"/>
        <pt x="305" y="537" on="0"/>
        <pt x="309" y="537" on="1"/>
        <pt x="366" y="537" on="0"/>
        <pt x="438" y="506" on="0"/>
        <pt x="478" y="435" on="0"/>
        <pt x="492" y="338" on="0"/>
        <pt x="492" y="262" on="1"/>
        <pt x="492" y="163" on="1"/>
        <pt x="492" y="79" on="0"/>
        <pt x="417" y="0" on="0"/>
        <pt x="337" y="0" on="1"/>
        <pt x="193" y="0" on="1"/>
        <pt x="42" y="0" on="0"/>
      </contour>
      <contour>
        <pt x="158" y="145" on="1"/>
        <pt x="158" y="128" on="0"/>
        <pt x="162" y="118" on="1"/>
        <pt x="169" y="95" on="0"/>
        <pt x="211" y="95" on="1"/>
        <pt x="312" y="95" on="1"/>
        <pt x="353" y="95" on="0"/>
        <pt x="365" y="112" on="1"/>
        <pt x="376" y="128" on="0"/>
        <pt x="376" y="160" on="1"/>
        <pt x="376" y="245" on="1"/>
        <pt x="211" y="234" on="1"/>
        <pt x="173" y="231" on="0"/>
        <pt x="163" y="213" on="1"/>
        <pt x="158" y="203" on="0"/>
        <pt x="158" y="188" on="1"/>
      </contour>
      <contour>
        <pt x="159" y="711" on="1"/>
        <pt x="213" y="711" on="1"/>
        <pt x="213" y="685" on="0"/>
        <pt x="248" y="651" on="0"/>
        <pt x="301" y="651" on="0"/>
        <pt x="335" y="683" on="0"/>
        <pt x="335" y="711" on="1"/>
        <pt x="389" y="711" on="1"/>
        <pt x="389" y="658" on="0"/>
        <pt x="321" y="597" on="0"/>
        <pt x="226" y="597" on="0"/>
        <pt x="159" y="660" on="0"/>
      </contour>
    </TTGlyph>
    <TTGlyph name="abreve.smcp" xMin="29" yMin="0" xMax="572" yMax="744">
      <contour>
        <pt x="30" y="0" on="1"/>
        <pt x="242" y="570" on="1"/>
        <pt x="375" y="570" on="1"/>
        <pt x="572" y="0" on="1"/>
        <pt x="449" y="0" on="1"/>
        <pt x="402" y="129" on="1"/>
        <pt x="203" y="129" on="1"/>
        <pt x="153" y="0" on="1"/>
      </contour>
      <contour>
        <pt x="236" y="228" on="1"/>
        <pt x="373" y="228" on="1"/>
        <pt x="308" y="422" on="1"/>
      </contour>
      <contour>
        <pt x="194" y="744" on="1"/>
        <pt x="248" y="744" on="1"/>
        <pt x="248" y="708" on="0"/>
        <pt x="278" y="691" on="1"/>
        <pt x="291" y="684" on="0"/>
        <pt x="336" y="684" on="0"/>
        <pt x="370" y="716" on="0"/>
        <pt x="370" y="744" on="1"/>
        <pt x="424" y="744" on="1"/>
        <pt x="424" y="709" on="0"/>
        <pt x="407" y="682" on="1"/>
        <pt x="374" y="630" on="0"/>
        <pt x="308" y="630" on="1"/>
        <pt x="261" y="630" on="0"/>
        <pt x="194" y="693" on="0"/>
      </contour>
    </TTGlyph>
    <TTGlyph name="acircumflex" xMin="33" yMin="-7" xMax="478" yMax="735">
      <contour>
        <pt x="51" y="508" on="1"/>
        <pt x="147" y="541" on="0"/>
        <pt x="302" y="541" on="1"/>
        <pt x="477" y="541" on="0"/>
        <pt x="477" y="376" on="1"/>
        <pt x="477" y="0" on="1"/>
        <pt x="387" y="0" on="1"/>
        <pt x="361" y="60" on="1"/>
        <pt x="358" y="55" on="0"/>
        <pt x="305" y="25" on="0"/>
        <pt x="217" y="-6" on="0"/>
        <pt x="180" y="-6" on="1"/>
        <pt x="112" y="-6" on="0"/>
        <pt x="34" y="74" on="0"/>
        <pt x="34" y="132" on="1"/>
        <pt x="34" y="186" on="1"/>
        <pt x="34" y="248" on="0"/>
        <pt x="108" y="327" on="0"/>
        <pt x="271" y="327" on="0"/>
        <pt x="361" y="327" on="0"/>
        <pt x="361" y="327" on="1"/>
        <pt x="362" y="350" on="0"/>
        <pt x="362" y="373" on="0"/>
        <pt x="361" y="373" on="1"/>
        <pt x="361" y="414" on="0"/>
        <pt x="324" y="444" on="0"/>
        <pt x="286" y="444" on="1"/>
        <pt x="212" y="444" on="0"/>
        <pt x="51" y="433" on="1"/>
      </contour>
      <contour>
        <pt x="150" y="146" on="1"/>
        <pt x="150" y="115" on="0"/>
        <pt x="178" y="92" on="0"/>
        <pt x="232" y="92" on="0"/>
        <pt x="311" y="115" on="0"/>
        <pt x="336" y="126" on="1"/>
        <pt x="361" y="137" on="1"/>
        <pt x="361" y="251" on="1"/>
        <pt x="199" y="239" on="1"/>
        <pt x="150" y="234" on="0"/>
        <pt x="150" y="181" on="1"/>
      </contour>
      <contour>
        <pt x="114" y="601" on="1"/>
        <pt x="225" y="734" on="1"/>
        <pt x="317" y="734" on="1"/>
        <pt x="416" y="601" on="1"/>
        <pt x="331" y="601" on="1"/>
        <pt x="268" y="665" on="1"/>
        <pt x="200" y="601" on="1"/>
      </contour>
    </TTGlyph>
    <TTGlyph name="acircumflex.salt" xMin="42" yMin="0" xMax="493" yMax="731">
      <contour>
        <pt x="42" y="138" on="1"/>
        <pt x="42" y="188" on="1"/>
        <pt x="42" y="252" on="0"/>
        <pt x="108" y="320" on="0"/>
        <pt x="193" y="320" on="1"/>
        <pt x="376" y="320" on="1"/>
        <pt x="376" y="374" on="0"/>
        <pt x="356" y="425" on="0"/>
        <pt x="316" y="441" on="0"/>
        <pt x="273" y="441" on="0"/>
        <pt x="210" y="441" on="0"/>
        <pt x="53" y="429" on="1"/>
        <pt x="53" y="504" on="1"/>
        <pt x="125" y="522" on="0"/>
        <pt x="231" y="537" on="0"/>
        <pt x="305" y="537" on="0"/>
        <pt x="309" y="537" on="1"/>
        <pt x="366" y="537" on="0"/>
        <pt x="438" y="506" on="0"/>
        <pt x="478" y="435" on="0"/>
        <pt x="492" y="338" on="0"/>
        <pt x="492" y="262" on="1"/>
        <pt x="492" y="163" on="1"/>
        <pt x="492" y="79" on="0"/>
        <pt x="417" y="0" on="0"/>
        <pt x="337" y="0" on="1"/>
        <pt x="193" y="0" on="1"/>
        <pt x="42" y="0" on="0"/>
      </contour>
      <contour>
        <pt x="158" y="145" on="1"/>
        <pt x="158" y="128" on="0"/>
        <pt x="162" y="118" on="1"/>
        <pt x="169" y="95" on="0"/>
        <pt x="211" y="95" on="1"/>
        <pt x="312" y="95" on="1"/>
        <pt x="353" y="95" on="0"/>
        <pt x="365" y="112" on="1"/>
        <pt x="376" y="128" on="0"/>
        <pt x="376" y="160" on="1"/>
        <pt x="376" y="245" on="1"/>
        <pt x="211" y="234" on="1"/>
        <pt x="173" y="231" on="0"/>
        <pt x="163" y="213" on="1"/>
        <pt x="158" y="203" on="0"/>
        <pt x="158" y="188" on="1"/>
      </contour>
      <contour>
        <pt x="120" y="597" on="1"/>
        <pt x="231" y="731" on="1"/>
        <pt x="323" y="731" on="1"/>
        <pt x="423" y="597" on="1"/>
        <pt x="338" y="597" on="1"/>
        <pt x="275" y="661" on="1"/>
        <pt x="206" y="597" on="1"/>
      </contour>
    </TTGlyph>
    <TTGlyph name="acircumflex.smcp" xMin="29" yMin="0" xMax="572" yMax="764">
      <contour>
        <pt x="30" y="0" on="1"/>
        <pt x="242" y="570" on="1"/>
        <pt x="375" y="570" on="1"/>
        <pt x="572" y="0" on="1"/>
        <pt x="449" y="0" on="1"/>
        <pt x="402" y="129" on="1"/>
        <pt x="203" y="129" on="1"/>
        <pt x="153" y="0" on="1"/>
      </contour>
      <contour>
        <pt x="236" y="228" on="1"/>
        <pt x="373" y="228" on="1"/>
        <pt x="308" y="422" on="1"/>
      </contour>
      <contour>
        <pt x="157" y="630" on="1"/>
        <pt x="268" y="764" on="1"/>
        <pt x="360" y="764" on="1"/>
        <pt x="460" y="630" on="1"/>
        <pt x="375" y="630" on="1"/>
        <pt x="311" y="694" on="1"/>
        <pt x="243" y="630" on="1"/>
      </contour>
    </TTGlyph>
    <TTGlyph name="acute" xMin="16" yMin="531" xMax="226" yMax="668">
      <contour>
        <pt x="17" y="531" on="1"/>
        <pt x="113" y="668" on="1"/>
        <pt x="226" y="668" on="1"/>
        <pt x="100" y="531" on="1"/>
      </contour>
    </TTGlyph>
    <TTGlyph name="acute.smcp" xMin="16" yMin="531" xMax="226" yMax="668">
      <contour>
        <pt x="17" y="531" on="1"/>
        <pt x="113" y="668" on="1"/>
        <pt x="226" y="668" on="1"/>
        <pt x="100" y="531" on="1"/>
      </contour>
    </TTGlyph>
    <TTGlyph name="adieresis" xMin="33" yMin="-7" xMax="478" yMax="713">
      <contour>
        <pt x="51" y="508" on="1"/>
        <pt x="147" y="541" on="0"/>
        <pt x="302" y="541" on="1"/>
        <pt x="477" y="541" on="0"/>
        <pt x="477" y="376" on="1"/>
        <pt x="477" y="0" on="1"/>
        <pt x="387" y="0" on="1"/>
        <pt x="361" y="60" on="1"/>
        <pt x="358" y="55" on="0"/>
        <pt x="305" y="25" on="0"/>
        <pt x="217" y="-6" on="0"/>
        <pt x="180" y="-6" on="1"/>
        <pt x="112" y="-6" on="0"/>
        <pt x="34" y="74" on="0"/>
        <pt x="34" y="132" on="1"/>
        <pt x="34" y="186" on="1"/>
        <pt x="34" y="248" on="0"/>
        <pt x="108" y="327" on="0"/>
        <pt x="271" y="327" on="0"/>
        <pt x="361" y="327" on="0"/>
        <pt x="361" y="327" on="1"/>
        <pt x="362" y="350" on="0"/>
        <pt x="362" y="373" on="0"/>
        <pt x="361" y="373" on="1"/>
        <pt x="361" y="414" on="0"/>
        <pt x="324" y="444" on="0"/>
        <pt x="286" y="444" on="1"/>
        <pt x="212" y="444" on="0"/>
        <pt x="51" y="433" on="1"/>
      </contour>
      <contour>
        <pt x="150" y="146" on="1"/>
        <pt x="150" y="115" on="0"/>
        <pt x="178" y="92" on="0"/>
        <pt x="232" y="92" on="0"/>
        <pt x="311" y="115" on="0"/>
        <pt x="336" y="126" on="1"/>
        <pt x="361" y="137" on="1"/>
        <pt x="361" y="251" on="1"/>
        <pt x="199" y="239" on="1"/>
        <pt x="150" y="234" on="0"/>
        <pt x="150" y="181" on="1"/>
      </contour>
      <contour>
        <pt x="80" y="634" on="0"/>
        <pt x="80" y="680" on="0"/>
        <pt x="113" y="713" on="0"/>
        <pt x="160" y="713" on="0"/>
        <pt x="192" y="680" on="0"/>
        <pt x="192" y="634" on="0"/>
        <pt x="160" y="601" on="0"/>
        <pt x="114" y="601" on="0"/>
      </contour>
      <contour>
        <pt x="335" y="634" on="0"/>
        <pt x="335" y="680" on="0"/>
        <pt x="368" y="713" on="0"/>
        <pt x="415" y="713" on="0"/>
        <pt x="447" y="680" on="0"/>
        <pt x="447" y="642" on="0"/>
        <pt x="440" y="629" on="1"/>
        <pt x="424" y="601" on="0"/>
        <pt x="369" y="601" on="0"/>
      </contour>
    </TTGlyph>
</ttFont>
